<?xml version="1.0" encoding="UTF-8"?>
<svg xmlns="http://www.w3.org/2000/svg" xmlns:xlink="http://www.w3.org/1999/xlink"
     width="1000" height="350.0" viewBox="0 -350.0 1000 350.0" viewport-fill="white">
<defs>
</defs>
<rect x="0" y="-350.0" width="1000" height="350.0" fill="white" />
<circle cx="682.1363707618851" cy="-331.6533574790835" r="4" fill-opacity="0" stroke-width="2" stroke="#4e79a7" />
<circle cx="1000.0" cy="-64.76088474797382" r="4" fill-opacity="0" stroke-width="2" stroke="#f28e2b" />
<circle cx="544.5641860358968" cy="-330.18797085400445" r="4" fill-opacity="0" stroke-width="2" stroke="#76b7b2" />
<circle cx="655.8887166190589" cy="-271.3073684640657" r="4" fill-opacity="0" stroke-width="2" stroke="#59a14f" />
<circle cx="448.04066667634305" cy="-339.07480098794895" r="4" fill-opacity="0" stroke-width="2" stroke="#edc948" />
<circle cx="768.5939768916166" cy="-149.9961307656414" r="4" fill-opacity="0" stroke-width="2" stroke="#b07aa1" />
<circle cx="33.64284039890123" cy="-346.7986554069279" r="4" fill-opacity="0" stroke-width="2" stroke="#ff9da7" />
<circle cx="177.2832306057058" cy="-309.97840929516883" r="4" fill-opacity="0" stroke-width="2" stroke="#9c755f" />
<circle cx="816.3337388699096" cy="-344.1406024827487" r="4" fill-opacity="0" stroke-width="2" stroke="#e15759" />
<circle cx="826.5882487043452" cy="-332.0771233142111" r="4" fill-opacity="0" stroke-width="2" stroke="#bab0ac" />
<circle cx="681.7911521907645" cy="-331.5605574350591" r="4" fill-opacity="0" stroke-width="2" stroke="#4e79a7" />
<circle cx="1000.0" cy="-64.53612413486474" r="4" fill-opacity="0" stroke-width="2" stroke="#f28e2b" />
<circle cx="542.1534148074887" cy="-330.0854445623255" r="4" fill-opacity="0" stroke-width="2" stroke="#76b7b2" />
<circle cx="653.8422354264051" cy="-270.71777713713425" r="4" fill-opacity="0" stroke-width="2" stroke="#59a14f" />
<circle cx="444.98623949190835" cy="-339.02004094682775" r="4" fill-opacity="0" stroke-width="2" stroke="#edc948" />
<circle cx="767.0037415665271" cy="-149.19785284193165" r="4" fill-opacity="0" stroke-width="2" stroke="#b07aa1" />
<circle cx="32.4782090731094" cy="-346.7388081826267" r="4" fill-opacity="0" stroke-width="2" stroke="#ff9da7" />
<circle cx="174.19584261471712" cy="-309.3718205644118" r="4" fill-opacity="0" stroke-width="2" stroke="#9c755f" />
<circle cx="816.043919716051" cy="-344.126417700086" r="4" fill-opacity="0" stroke-width="2" stroke="#e15759" />
<circle cx="826.3767650403297" cy="-332.0445205421589" r="4" fill-opacity="0" stroke-width="2" stroke="#bab0ac" />
<circle cx="682.088702395598" cy="-331.66412707943493" r="4" fill-opacity="0" stroke-width="2" stroke="#4e79a7" />
<circle cx="1000.0" cy="-64.69648146998031" r="4" fill-opacity="0" stroke-width="2" stroke="#f28e2b" />
<circle cx="544.3312514118021" cy="-330.15078953797513" r="4" fill-opacity="0" stroke-width="2" stroke="#76b7b2" />
<circle cx="655.7557662409922" cy="-271.07020548783385" r="4" fill-opacity="0" stroke-width="2" stroke="#59a14f" />
<circle cx="447.735613511408" cy="-339.0406756118879" r="4" fill-opacity="0" stroke-width="2" stroke="#edc948" />
<circle cx="768.4802433848348" cy="-150.01148878845754" r="4" fill-opacity="0" stroke-width="2" stroke="#b07aa1" />
<circle cx="33.416341410926755" cy="-346.71396291572864" r="4" fill-opacity="0" stroke-width="2" stroke="#ff9da7" />
<circle cx="176.86028878874416" cy="-309.72998023837135" r="4" fill-opacity="0" stroke-width="2" stroke="#9c755f" />
<circle cx="816.292875770751" cy="-344.1375480260298" r="4" fill-opacity="0" stroke-width="2" stroke="#e15759" />
<circle cx="826.4550382016218" cy="-332.0768180231362" r="4" fill-opacity="0" stroke-width="2" stroke="#bab0ac" />
<circle cx="684.3997281557398" cy="-328.8829211466301" r="4" fill-opacity="0" stroke-width="2" stroke="#4e79a7" />
<circle cx="1000.0" cy="-63.561491760743934" r="4" fill-opacity="0" stroke-width="2" stroke="#f28e2b" />
<circle cx="570.5011066125578" cy="-332.0410930221418" r="4" fill-opacity="0" stroke-width="2" stroke="#76b7b2" />
<circle cx="679.3309063140672" cy="-280.1236453151654" r="4" fill-opacity="0" stroke-width="2" stroke="#59a14f" />
<circle cx="471.45414941911713" cy="-339.72773938616797" r="4" fill-opacity="0" stroke-width="2" stroke="#edc948" />
<circle cx="786.9391486080065" cy="-166.06143627680103" r="4" fill-opacity="0" stroke-width="2" stroke="#b07aa1" />
<circle cx="37.1525149645658" cy="-347.25614200227324" r="4" fill-opacity="0" stroke-width="2" stroke="#ff9da7" />
<circle cx="185.6159385704209" cy="-311.8285892556496" r="4" fill-opacity="0" stroke-width="2" stroke="#9c755f" />
<circle cx="810.6530706500563" cy="-343.41122229047687" r="4" fill-opacity="0" stroke-width="2" stroke="#e15759" />
<circle cx="819.0046663273796" cy="-330.9840693479247" r="4" fill-opacity="0" stroke-width="2" stroke="#bab0ac" />
<circle cx="684.026219793998" cy="-328.7124226050272" r="4" fill-opacity="0" stroke-width="2" stroke="#4e79a7" />
<circle cx="1000.0" cy="-63.07425683955398" r="4" fill-opacity="0" stroke-width="2" stroke="#f28e2b" />
<circle cx="567.8975155919748" cy="-332.0418225689493" r="4" fill-opacity="0" stroke-width="2" stroke="#76b7b2" />
<circle cx="677.1081451366802" cy="-279.551208002987" r="4" fill-opacity="0" stroke-width="2" stroke="#59a14f" />
<circle cx="467.74083472049205" cy="-339.6800644378801" r="4" fill-opacity="0" stroke-width="2" stroke="#edc948" />
<circle cx="785.5140915749898" cy="-165.10997577343562" r="4" fill-opacity="0" stroke-width="2" stroke="#b07aa1" />
<circle cx="35.6702183564304" cy="-347.1477815852629" r="4" fill-opacity="0" stroke-width="2" stroke="#ff9da7" />
<circle cx="181.3776222137064" cy="-311.33851963264317" r="4" fill-opacity="0" stroke-width="2" stroke="#9c755f" />
<circle cx="810.2935597925214" cy="-343.4580212099489" r="4" fill-opacity="0" stroke-width="2" stroke="#e15759" />
<circle cx="818.7195342091671" cy="-330.91367968559575" r="4" fill-opacity="0" stroke-width="2" stroke="#bab0ac" />
<circle cx="684.2390864725177" cy="-328.83689021801604" r="4" fill-opacity="0" stroke-width="2" stroke="#4e79a7" />
<circle cx="1000.0" cy="-63.72792308456417" r="4" fill-opacity="0" stroke-width="2" stroke="#f28e2b" />
<circle cx="571.315689525251" cy="-332.0130649898201" r="4" fill-opacity="0" stroke-width="2" stroke="#76b7b2" />
<circle cx="680.0920429441376" cy="-280.1823242796231" r="4" fill-opacity="0" stroke-width="2" stroke="#59a14f" />
<circle cx="472.39603898932376" cy="-339.75395533589005" r="4" fill-opacity="0" stroke-width="2" stroke="#edc948" />
<circle cx="787.425869103486" cy="-166.3275877706268" r="4" fill-opacity="0" stroke-width="2" stroke="#b07aa1" />
<circle cx="37.49418020233343" cy="-347.19900781294973" r="4" fill-opacity="0" stroke-width="2" stroke="#ff9da7" />
<circle cx="186.48900873062837" cy="-312.2171720141213" r="4" fill-opacity="0" stroke-width="2" stroke="#9c755f" />
<circle cx="810.8711940421615" cy="-343.40755458380625" r="4" fill-opacity="0" stroke-width="2" stroke="#e15759" />
<circle cx="819.1557213355874" cy="-331.0005953787836" r="4" fill-opacity="0" stroke-width="2" stroke="#bab0ac" />
</svg>