<?xml version="1.0" encoding="UTF-8"?>
<svg xmlns="http://www.w3.org/2000/svg" xmlns:xlink="http://www.w3.org/1999/xlink"
     width="1000" height="700" viewBox="0 -700 1000 700" viewport-fill="white">
<defs>
</defs>
<rect x="0" y="-700" width="1000" height="700" fill="white" />
<circle cx="462.6519186125905" cy="-458.90251021599505" r="4" fill-opacity="0" stroke-width="2" stroke="#59a14f" />
<circle cx="432.43789133508386" cy="-596.4996982498492" r="4" fill-opacity="0" stroke-width="2" stroke="#edc948" />
<circle cx="394.3671439134233" cy="-610.2564102564106" r="4" fill-opacity="0" stroke-width="2" stroke="#f28e2b" />
<circle cx="461.1259137801462" cy="-452.52008765522265" r="4" fill-opacity="0" stroke-width="2" stroke="#59a14f" />
<circle cx="431.12459956162536" cy="-578.5089043163298" r="4" fill-opacity="0" stroke-width="2" stroke="#edc948" />
<circle cx="390.7895179466479" cy="-600.1254311696456" r="4" fill-opacity="0" stroke-width="2" stroke="#f28e2b" />
<circle cx="462.99530805849514" cy="-427.7097902097905" r="4" fill-opacity="0" stroke-width="2" stroke="#59a14f" />
<circle cx="431.12864077669906" cy="-581.6603773584903" r="4" fill-opacity="0" stroke-width="2" stroke="#edc948" />
<circle cx="390.99008236678424" cy="-606.6959385290886" r="4" fill-opacity="0" stroke-width="2" stroke="#f28e2b" />
<circle cx="462.28286144166316" cy="-442.66958424507686" r="4" fill-opacity="0" stroke-width="2" stroke="#59a14f" />
<circle cx="432.0787805207068" cy="-577.5633293124243" r="4" fill-opacity="0" stroke-width="2" stroke="#edc948" />
<circle cx="391.7532707765783" cy="-602.3969920100269" r="4" fill-opacity="0" stroke-width="2" stroke="#f28e2b" />
<circle cx="463.31452026680336" cy="-439.8717575051002" r="4" fill-opacity="0" stroke-width="2" stroke="#59a14f" />
<circle cx="432.8609986504722" cy="-573.455860198855" r="4" fill-opacity="0" stroke-width="2" stroke="#edc948" />
<circle cx="392.4557507234672" cy="-597.0104867741428" r="4" fill-opacity="0" stroke-width="2" stroke="#f28e2b" />
<circle cx="424.8266531371555" cy="-546.1888164873468" r="4" fill-opacity="0" stroke-width="2" stroke="#59a14f" />
<circle cx="401.11233959861954" cy="-644.43579766537" r="4" fill-opacity="0" stroke-width="2" stroke="#edc948" />
<circle cx="365.77282313949985" cy="-651.5375945902433" r="4" fill-opacity="0" stroke-width="2" stroke="#f28e2b" />
<circle cx="422.4522939504669" cy="-542.6966292134828" r="4" fill-opacity="0" stroke-width="2" stroke="#59a14f" />
<circle cx="399.25598230444393" cy="-641.0756040530009" r="4" fill-opacity="0" stroke-width="2" stroke="#edc948" />
<circle cx="362.5678119349006" cy="-648.0058130146938" r="4" fill-opacity="0" stroke-width="2" stroke="#f28e2b" />
<circle cx="423.0183700395818" cy="-543.8306268022462" r="4" fill-opacity="0" stroke-width="2" stroke="#59a14f" />
<circle cx="399.47036739072126" cy="-638.9122642979584" r="4" fill-opacity="0" stroke-width="2" stroke="#edc948" />
<circle cx="362.79926335174946" cy="-649.1443332257024" r="4" fill-opacity="0" stroke-width="2" stroke="#f28e2b" />
<circle cx="422.28986977845426" cy="-545.8383961117863" r="4" fill-opacity="0" stroke-width="2" stroke="#59a14f" />
<circle cx="399.8524777040165" cy="-636.7601246105917" r="4" fill-opacity="0" stroke-width="2" stroke="#edc948" />
<circle cx="362.5678119349006" cy="-648.0058130146938" r="4" fill-opacity="0" stroke-width="2" stroke="#f28e2b" />
<circle cx="422.3484848484849" cy="-546.9015795868771" r="4" fill-opacity="0" stroke-width="2" stroke="#59a14f" />
<circle cx="399.8524777040165" cy="-636.7601246105917" r="4" fill-opacity="0" stroke-width="2" stroke="#edc948" />
<circle cx="362.73524881119806" cy="-648.0142072973849" r="4" fill-opacity="0" stroke-width="2" stroke="#f28e2b" />
<circle cx="380.923674603972" cy="-647.8026336665083" r="4" fill-opacity="0" stroke-width="2" stroke="#59a14f" />
<circle cx="373.68156705173277" cy="-649.6724716408373" r="4" fill-opacity="0" stroke-width="2" stroke="#edc948" />
<circle cx="339.8246670681924" cy="-656.0621076973905" r="4" fill-opacity="0" stroke-width="2" stroke="#f28e2b" />
<circle cx="377.46969392539" cy="-648.7424387137855" r="4" fill-opacity="0" stroke-width="2" stroke="#59a14f" />
<circle cx="370.06160439266097" cy="-650.6172839506172" r="4" fill-opacity="0" stroke-width="2" stroke="#edc948" />
<circle cx="335.6421066720204" cy="-655.8799137502075" r="4" fill-opacity="0" stroke-width="2" stroke="#f28e2b" />
<circle cx="377.63713080168776" cy="-648.7505968486392" r="4" fill-opacity="0" stroke-width="2" stroke="#59a14f" />
<circle cx="370.06160439266097" cy="-650.6172839506172" r="4" fill-opacity="0" stroke-width="2" stroke="#edc948" />
<circle cx="335.80940908786715" cy="-655.887230514096" r="4" fill-opacity="0" stroke-width="2" stroke="#f28e2b" />
<circle cx="377.46969392539" cy="-648.7424387137855" r="4" fill-opacity="0" stroke-width="2" stroke="#59a14f" />
<circle cx="370.06160439266097" cy="-650.6172839506172" r="4" fill-opacity="0" stroke-width="2" stroke="#edc948" />
<circle cx="335.80940908786715" cy="-655.887230514096" r="4" fill-opacity="0" stroke-width="2" stroke="#f28e2b" />
<circle cx="377.4071469238755" cy="-647.6281439032158" r="4" fill-opacity="0" stroke-width="2" stroke="#59a14f" />
<circle cx="369.89420115173425" cy="-650.6093649775494" r="4" fill-opacity="0" stroke-width="2" stroke="#edc948" />
<circle cx="335.97671150371417" cy="-655.8945448515999" r="4" fill-opacity="0" stroke-width="2" stroke="#f28e2b" />
<circle cx="338.08281490400697" cy="-660.6090698444222" r="4" fill-opacity="0" stroke-width="2" stroke="#59a14f" />
<circle cx="332.22958057395135" cy="-660.3795571832865" r="4" fill-opacity="0" stroke-width="2" stroke="#edc948" />
<circle cx="308.5515534597505" cy="-660.6138107416876" r="4" fill-opacity="0" stroke-width="2" stroke="#f28e2b" />
<circle cx="333.9019332396816" cy="-660.4454046867205" r="4" fill-opacity="0" stroke-width="2" stroke="#59a14f" />
<circle cx="328.048698909626" cy="-660.213975259111" r="4" fill-opacity="0" stroke-width="2" stroke="#edc948" />
<circle cx="303.86943580482256" cy="-660.4248757923591" r="4" fill-opacity="0" stroke-width="2" stroke="#f28e2b" />
<circle cx="334.0691685062545" cy="-660.4519774011303" r="4" fill-opacity="0" stroke-width="2" stroke="#59a14f" />
<circle cx="328.3831694427721" cy="-660.2272727272724" r="4" fill-opacity="0" stroke-width="2" stroke="#edc948" />
<circle cx="304.20387278017455" cy="-660.4384312382257" r="4" fill-opacity="0" stroke-width="2" stroke="#f28e2b" />
<circle cx="334.0691685062545" cy="-660.4519774011303" r="4" fill-opacity="0" stroke-width="2" stroke="#59a14f" />
<circle cx="328.5504047093452" cy="-660.2339181286548" r="4" fill-opacity="0" stroke-width="2" stroke="#edc948" />
<circle cx="304.0366542924985" cy="-660.4316546762591" r="4" fill-opacity="0" stroke-width="2" stroke="#f28e2b" />
<circle cx="333.96876358650206" cy="-661.6087751371117" r="4" fill-opacity="0" stroke-width="2" stroke="#59a14f" />
<circle cx="328.4505534931942" cy="-661.3970588235296" r="4" fill-opacity="0" stroke-width="2" stroke="#edc948" />
<circle cx="303.93927233814867" cy="-661.6241219804692" r="4" fill-opacity="0" stroke-width="2" stroke="#f28e2b" />
<circle cx="294.8589383607435" cy="-666.0958311710773" r="4" fill-opacity="0" stroke-width="2" stroke="#59a14f" />
<circle cx="292.0176494183715" cy="-665.9958362248441" r="4" fill-opacity="0" stroke-width="2" stroke="#edc948" />
<circle cx="272.1286268217676" cy="-665.2790079716563" r="4" fill-opacity="0" stroke-width="2" stroke="#f28e2b" />
<circle cx="291.3491108436957" cy="-665.9722222222223" r="4" fill-opacity="0" stroke-width="2" stroke="#59a14f" />
<circle cx="288.8420911886615" cy="-665.8833768494345" r="4" fill-opacity="0" stroke-width="2" stroke="#edc948" />
<circle cx="267.9502607300442" cy="-665.1245551601426" r="4" fill-opacity="0" stroke-width="2" stroke="#f28e2b" />
<circle cx="291.01484155635774" cy="-665.96040291768" r="4" fill-opacity="0" stroke-width="2" stroke="#59a14f" />
<circle cx="288.5078219013237" cy="-665.8714957339373" r="4" fill-opacity="0" stroke-width="2" stroke="#edc948" />
<circle cx="267.7831260863752" cy="-665.1183484605798" r="4" fill-opacity="0" stroke-width="2" stroke="#f28e2b" />
<circle cx="291.01484155635774" cy="-665.96040291768" r="4" fill-opacity="0" stroke-width="2" stroke="#59a14f" />
<circle cx="288.5078219013237" cy="-665.8714957339373" r="4" fill-opacity="0" stroke-width="2" stroke="#edc948" />
<circle cx="267.9502607300442" cy="-665.1245551601426" r="4" fill-opacity="0" stroke-width="2" stroke="#f28e2b" />
<circle cx="290.8477069126888" cy="-665.9544901858608" r="4" fill-opacity="0" stroke-width="2" stroke="#59a14f" />
<circle cx="288.3406872576548" cy="-665.8655520724486" r="4" fill-opacity="0" stroke-width="2" stroke="#edc948" />
<circle cx="267.7831260863752" cy="-665.1183484605798" r="4" fill-opacity="0" stroke-width="2" stroke="#f28e2b" />
<circle cx="452.56095899741183" cy="-481.28224023581413" r="4" fill-opacity="0" stroke-width="2" stroke="#59a14f" />
<circle cx="424.0529730093107" cy="-611.6080937167196" r="4" fill-opacity="0" stroke-width="2" stroke="#edc948" />
<circle cx="385.9914082427172" cy="-624.9329758713136" r="4" fill-opacity="0" stroke-width="2" stroke="#f28e2b" />
<circle cx="450.3546099290781" cy="-468.595041322314" r="4" fill-opacity="0" stroke-width="2" stroke="#59a14f" />
<circle cx="421.56961684663764" cy="-602.9111415942696" r="4" fill-opacity="0" stroke-width="2" stroke="#edc948" />
<circle cx="382.703610411419" cy="-616.9829222011386" r="4" fill-opacity="0" stroke-width="2" stroke="#f28e2b" />
<circle cx="451.89355168884333" cy="-462.781788713717" r="4" fill-opacity="0" stroke-width="2" stroke="#59a14f" />
<circle cx="421.95753844083305" cy="-600.8226691042046" r="4" fill-opacity="0" stroke-width="2" stroke="#edc948" />
<circle cx="382.87153652392936" cy="-616.9960474308297" r="4" fill-opacity="0" stroke-width="2" stroke="#f28e2b" />
<circle cx="451.5545544520665" cy="-459.6522251694667" r="4" fill-opacity="0" stroke-width="2" stroke="#59a14f" />
<circle cx="423.0056908105195" cy="-592.4387646432377" r="4" fill-opacity="0" stroke-width="2" stroke="#edc948" />
<circle cx="383.5064018550257" cy="-610.4406886747752" r="4" fill-opacity="0" stroke-width="2" stroke="#f28e2b" />
<circle cx="451.49622956972746" cy="-461.6801768607224" r="4" fill-opacity="0" stroke-width="2" stroke="#59a14f" />
<circle cx="422.72727272727275" cy="-593.4713133465226" r="4" fill-opacity="0" stroke-width="2" stroke="#edc948" />
<circle cx="383.5064018550257" cy="-610.4406886747752" r="4" fill-opacity="0" stroke-width="2" stroke="#f28e2b" />
<circle cx="423.9226033421284" cy="-545.010615711253" r="4" fill-opacity="0" stroke-width="2" stroke="#59a14f" />
<circle cx="400.60977652695414" cy="-644.4098411709749" r="4" fill-opacity="0" stroke-width="2" stroke="#edc948" />
<circle cx="365.10327742626623" cy="-651.506363782826" r="4" fill-opacity="0" stroke-width="2" stroke="#f28e2b" />
<circle cx="421.66514428769585" cy="-543.6407840753684" r="4" fill-opacity="0" stroke-width="2" stroke="#59a14f" />
<circle cx="398.5856960922313" cy="-641.0388394946189" r="4" fill-opacity="0" stroke-width="2" stroke="#edc948" />
<circle cx="361.7947430102125" cy="-649.0950226244346" r="4" fill-opacity="0" stroke-width="2" stroke="#f28e2b" />
<circle cx="421.8929707056355" cy="-544.7280461865694" r="4" fill-opacity="0" stroke-width="2" stroke="#59a14f" />
<circle cx="398.6928104575162" cy="-639.956331877729" r="4" fill-opacity="0" stroke-width="2" stroke="#edc948" />
<circle cx="361.96216306713546" cy="-649.1032476975282" r="4" fill-opacity="0" stroke-width="2" stroke="#f28e2b" />
<circle cx="421.50297619047615" cy="-546.7852257181942" r="4" fill-opacity="0" stroke-width="2" stroke="#59a14f" />
<circle cx="399.07472593784576" cy="-637.80202650039" r="4" fill-opacity="0" stroke-width="2" stroke="#edc948" />
<circle cx="361.8980644297101" cy="-647.9722087574727" r="4" fill-opacity="0" stroke-width="2" stroke="#f28e2b" />
<circle cx="421.62034219246635" cy="-548.9132086943305" r="4" fill-opacity="0" stroke-width="2" stroke="#59a14f" />
<circle cx="398.73948171242756" cy="-637.7826290347731" r="4" fill-opacity="0" stroke-width="2" stroke="#edc948" />
<circle cx="361.7306275534123" cy="-647.9638009049775" r="4" fill-opacity="0" stroke-width="2" stroke="#f28e2b" />
<circle cx="380.923674603972" cy="-647.8026336665083" r="4" fill-opacity="0" stroke-width="2" stroke="#59a14f" />
<circle cx="373.68156705173277" cy="-649.6724716408373" r="4" fill-opacity="0" stroke-width="2" stroke="#edc948" />
<circle cx="339.8246670681924" cy="-656.0621076973905" r="4" fill-opacity="0" stroke-width="2" stroke="#f28e2b" />
<circle cx="377.46969392539" cy="-648.7424387137855" r="4" fill-opacity="0" stroke-width="2" stroke="#59a14f" />
<circle cx="370.06160439266097" cy="-650.6172839506172" r="4" fill-opacity="0" stroke-width="2" stroke="#edc948" />
<circle cx="335.6421066720204" cy="-655.8799137502075" r="4" fill-opacity="0" stroke-width="2" stroke="#f28e2b" />
<circle cx="377.63713080168776" cy="-648.7505968486392" r="4" fill-opacity="0" stroke-width="2" stroke="#59a14f" />
<circle cx="370.06160439266097" cy="-650.6172839506172" r="4" fill-opacity="0" stroke-width="2" stroke="#edc948" />
<circle cx="335.80940908786715" cy="-655.887230514096" r="4" fill-opacity="0" stroke-width="2" stroke="#f28e2b" />
<circle cx="377.46969392539" cy="-648.7424387137855" r="4" fill-opacity="0" stroke-width="2" stroke="#59a14f" />
<circle cx="370.06160439266097" cy="-650.6172839506172" r="4" fill-opacity="0" stroke-width="2" stroke="#edc948" />
<circle cx="335.80940908786715" cy="-655.887230514096" r="4" fill-opacity="0" stroke-width="2" stroke="#f28e2b" />
<circle cx="377.4071469238755" cy="-647.6281439032158" r="4" fill-opacity="0" stroke-width="2" stroke="#59a14f" />
<circle cx="369.89420115173425" cy="-650.6093649775494" r="4" fill-opacity="0" stroke-width="2" stroke="#edc948" />
<circle cx="335.97671150371417" cy="-655.8945448515999" r="4" fill-opacity="0" stroke-width="2" stroke="#f28e2b" />
<circle cx="338.08281490400697" cy="-660.6090698444222" r="4" fill-opacity="0" stroke-width="2" stroke="#59a14f" />
<circle cx="332.22958057395135" cy="-660.3795571832865" r="4" fill-opacity="0" stroke-width="2" stroke="#edc948" />
<circle cx="308.5515534597505" cy="-660.6138107416876" r="4" fill-opacity="0" stroke-width="2" stroke="#f28e2b" />
<circle cx="333.9019332396816" cy="-660.4454046867205" r="4" fill-opacity="0" stroke-width="2" stroke="#59a14f" />
<circle cx="328.048698909626" cy="-660.213975259111" r="4" fill-opacity="0" stroke-width="2" stroke="#edc948" />
<circle cx="303.86943580482256" cy="-660.4248757923591" r="4" fill-opacity="0" stroke-width="2" stroke="#f28e2b" />
<circle cx="334.0691685062545" cy="-660.4519774011303" r="4" fill-opacity="0" stroke-width="2" stroke="#59a14f" />
<circle cx="328.3831694427721" cy="-660.2272727272724" r="4" fill-opacity="0" stroke-width="2" stroke="#edc948" />
<circle cx="304.20387278017455" cy="-660.4384312382257" r="4" fill-opacity="0" stroke-width="2" stroke="#f28e2b" />
<circle cx="334.0691685062545" cy="-660.4519774011303" r="4" fill-opacity="0" stroke-width="2" stroke="#59a14f" />
<circle cx="328.5504047093452" cy="-660.2339181286548" r="4" fill-opacity="0" stroke-width="2" stroke="#edc948" />
<circle cx="304.0366542924985" cy="-660.4316546762591" r="4" fill-opacity="0" stroke-width="2" stroke="#f28e2b" />
<circle cx="333.96876358650206" cy="-661.6087751371117" r="4" fill-opacity="0" stroke-width="2" stroke="#59a14f" />
<circle cx="328.4505534931942" cy="-661.3970588235296" r="4" fill-opacity="0" stroke-width="2" stroke="#edc948" />
<circle cx="303.93927233814867" cy="-661.6241219804692" r="4" fill-opacity="0" stroke-width="2" stroke="#f28e2b" />
<circle cx="294.8589383607435" cy="-666.0958311710773" r="4" fill-opacity="0" stroke-width="2" stroke="#59a14f" />
<circle cx="292.0176494183715" cy="-665.9958362248441" r="4" fill-opacity="0" stroke-width="2" stroke="#edc948" />
<circle cx="272.1286268217676" cy="-665.2790079716563" r="4" fill-opacity="0" stroke-width="2" stroke="#f28e2b" />
<circle cx="291.3491108436957" cy="-665.9722222222223" r="4" fill-opacity="0" stroke-width="2" stroke="#59a14f" />
<circle cx="288.8420911886615" cy="-665.8833768494345" r="4" fill-opacity="0" stroke-width="2" stroke="#edc948" />
<circle cx="267.9502607300442" cy="-665.1245551601426" r="4" fill-opacity="0" stroke-width="2" stroke="#f28e2b" />
<circle cx="291.01484155635774" cy="-665.96040291768" r="4" fill-opacity="0" stroke-width="2" stroke="#59a14f" />
<circle cx="288.5078219013237" cy="-665.8714957339373" r="4" fill-opacity="0" stroke-width="2" stroke="#edc948" />
<circle cx="267.7831260863752" cy="-665.1183484605798" r="4" fill-opacity="0" stroke-width="2" stroke="#f28e2b" />
<circle cx="291.01484155635774" cy="-665.96040291768" r="4" fill-opacity="0" stroke-width="2" stroke="#59a14f" />
<circle cx="288.5078219013237" cy="-665.8714957339373" r="4" fill-opacity="0" stroke-width="2" stroke="#edc948" />
<circle cx="267.9502607300442" cy="-665.1245551601426" r="4" fill-opacity="0" stroke-width="2" stroke="#f28e2b" />
<circle cx="290.8477069126888" cy="-665.9544901858608" r="4" fill-opacity="0" stroke-width="2" stroke="#59a14f" />
<circle cx="288.3406872576548" cy="-665.8655520724486" r="4" fill-opacity="0" stroke-width="2" stroke="#edc948" />
<circle cx="267.7831260863752" cy="-665.1183484605798" r="4" fill-opacity="0" stroke-width="2" stroke="#f28e2b" />
<circle cx="426.75483214649034" cy="-520.2145339175098" r="4" fill-opacity="0" stroke-width="2" stroke="#59a14f" />
<circle cx="404.89376699224647" cy="-625.1626898047718" r="4" fill-opacity="0" stroke-width="2" stroke="#edc948" />
<circle cx="370.95530295409577" cy="-633.8988476312419" r="4" fill-opacity="0" stroke-width="2" stroke="#f28e2b" />
<circle cx="421.7410457117684" cy="-526.7800212539851" r="4" fill-opacity="0" stroke-width="2" stroke="#59a14f" />
<circle cx="400.69815057228215" cy="-624.8716752216519" r="4" fill-opacity="0" stroke-width="2" stroke="#edc948" />
<circle cx="365.79803467820363" cy="-631.3284014152457" r="4" fill-opacity="0" stroke-width="2" stroke="#f28e2b" />
<circle cx="420.56960953638793" cy="-532.9279416235936" r="4" fill-opacity="0" stroke-width="2" stroke="#59a14f" />
<circle cx="400.08726003490403" cy="-625.9143968871595" r="4" fill-opacity="0" stroke-width="2" stroke="#edc948" />
<circle cx="365.19114688128775" cy="-632.4106855487612" r="4" fill-opacity="0" stroke-width="2" stroke="#f28e2b" />
<circle cx="419.899790100887" cy="-535.9957401490947" r="4" fill-opacity="0" stroke-width="2" stroke="#59a14f" />
<circle cx="400.913150031893" cy="-622.7180842792725" r="4" fill-opacity="0" stroke-width="2" stroke="#edc948" />
<circle cx="365.438808373591" cy="-627.9395206691333" r="4" fill-opacity="0" stroke-width="2" stroke="#f28e2b" />
<circle cx="418.78172588832496" cy="-540.06092916984" r="4" fill-opacity="0" stroke-width="2" stroke="#59a14f" />
<circle cx="400.07385772316775" cy="-622.6579520697168" r="4" fill-opacity="0" stroke-width="2" stroke="#edc948" />
<circle cx="365.1033279656468" cy="-627.9163314561548" r="4" fill-opacity="0" stroke-width="2" stroke="#f28e2b" />
<circle cx="421.16477272727275" cy="-546.738634635852" r="4" fill-opacity="0" stroke-width="2" stroke="#59a14f" />
<circle cx="398.2179345459417" cy="-646.464804120493" r="4" fill-opacity="0" stroke-width="2" stroke="#edc948" />
<circle cx="363.15859945102767" cy="-652.5423728813558" r="4" fill-opacity="0" stroke-width="2" stroke="#f28e2b" />
<circle cx="418.7973484848484" cy="-546.4117019655646" r="4" fill-opacity="0" stroke-width="2" stroke="#59a14f" />
<circle cx="396.1935397399813" cy="-643.0894308943085" r="4" fill-opacity="0" stroke-width="2" stroke="#edc948" />
<circle cx="359.8500066961297" cy="-650.1295336787563" r="4" fill-opacity="0" stroke-width="2" stroke="#f28e2b" />
<circle cx="419.1944810794359" cy="-547.5247524752473" r="4" fill-opacity="0" stroke-width="2" stroke="#59a14f" />
<circle cx="396.1328373714018" cy="-641.9949968730454" r="4" fill-opacity="0" stroke-width="2" stroke="#edc948" />
<circle cx="359.8500066961297" cy="-650.1295336787563" r="4" fill-opacity="0" stroke-width="2" stroke="#f28e2b" />
<circle cx="418.91526340704667" cy="-548.5448727715981" r="4" fill-opacity="0" stroke-width="2" stroke="#59a14f" />
<circle cx="396.51416122004343" cy="-639.8343491170494" r="4" fill-opacity="0" stroke-width="2" stroke="#edc948" />
<circle cx="359.7857023271387" cy="-648.9961139896371" r="4" fill-opacity="0" stroke-width="2" stroke="#f28e2b" />
<circle cx="418.97420292795067" cy="-549.6114581746156" r="4" fill-opacity="0" stroke-width="2" stroke="#59a14f" />
<circle cx="396.17898441427843" cy="-639.8155385336875" r="4" fill-opacity="0" stroke-width="2" stroke="#edc948" />
<circle cx="359.618282270216" cy="-648.9878542510122" r="4" fill-opacity="0" stroke-width="2" stroke="#f28e2b" />
<circle cx="379.91895240965874" cy="-647.7528982054946" r="4" fill-opacity="0" stroke-width="2" stroke="#59a14f" />
<circle cx="372.6770467101959" cy="-649.624180393411" r="4" fill-opacity="0" stroke-width="2" stroke="#edc948" />
<circle cx="338.98815498895806" cy="-656.0257893866758" r="4" fill-opacity="0" stroke-width="2" stroke="#f28e2b" />
<circle cx="376.46507266760426" cy="-648.6934353091139" r="4" fill-opacity="0" stroke-width="2" stroke="#59a14f" />
<circle cx="369.05718494710044" cy="-650.5697319852351" r="4" fill-opacity="0" stroke-width="2" stroke="#edc948" />
<circle cx="334.80559459278584" cy="-655.8432934926959" r="4" fill-opacity="0" stroke-width="2" stroke="#f28e2b" />
<circle cx="376.632509543902" cy="-648.7016090489087" r="4" fill-opacity="0" stroke-width="2" stroke="#59a14f" />
<circle cx="369.05718494710044" cy="-650.5697319852351" r="4" fill-opacity="0" stroke-width="2" stroke="#edc948" />
<circle cx="334.9728970086328" cy="-655.8506224066393" r="4" fill-opacity="0" stroke-width="2" stroke="#f28e2b" />
<circle cx="376.46507266760426" cy="-648.6934353091139" r="4" fill-opacity="0" stroke-width="2" stroke="#59a14f" />
<circle cx="369.05718494710044" cy="-650.5697319852351" r="4" fill-opacity="0" stroke-width="2" stroke="#edc948" />
<circle cx="334.9728970086328" cy="-655.8506224066393" r="4" fill-opacity="0" stroke-width="2" stroke="#f28e2b" />
<circle cx="376.40242472956226" cy="-647.578075207138" r="4" fill-opacity="0" stroke-width="2" stroke="#59a14f" />
<circle cx="368.8897817061737" cy="-650.5617977528094" r="4" fill-opacity="0" stroke-width="2" stroke="#edc948" />
<circle cx="335.1401994244796" cy="-655.8579488881518" r="4" fill-opacity="0" stroke-width="2" stroke="#f28e2b" />
<circle cx="337.7483443708609" cy="-660.5960264900663" r="4" fill-opacity="0" stroke-width="2" stroke="#59a14f" />
<circle cx="331.8951100408054" cy="-660.3663613655287" r="4" fill-opacity="0" stroke-width="2" stroke="#edc948" />
<circle cx="308.2171164843985" cy="-660.6003752345213" r="4" fill-opacity="0" stroke-width="2" stroke="#f28e2b" />
<circle cx="333.56746270653554" cy="-660.4322527015797" r="4" fill-opacity="0" stroke-width="2" stroke="#59a14f" />
<circle cx="327.71422837648" cy="-660.200668896321" r="4" fill-opacity="0" stroke-width="2" stroke="#edc948" />
<circle cx="303.53499882947057" cy="-660.4113110539848" r="4" fill-opacity="0" stroke-width="2" stroke="#f28e2b" />
<circle cx="333.73469797310855" cy="-660.4388297872338" r="4" fill-opacity="0" stroke-width="2" stroke="#59a14f" />
<circle cx="328.048698909626" cy="-660.213975259111" r="4" fill-opacity="0" stroke-width="2" stroke="#edc948" />
<circle cx="303.86943580482256" cy="-660.4248757923591" r="4" fill-opacity="0" stroke-width="2" stroke="#f28e2b" />
<circle cx="333.73469797310855" cy="-660.4388297872338" r="4" fill-opacity="0" stroke-width="2" stroke="#59a14f" />
<circle cx="328.215934176199" cy="-660.2206251044623" r="4" fill-opacity="0" stroke-width="2" stroke="#edc948" />
<circle cx="303.7022173171467" cy="-660.4180945853328" r="4" fill-opacity="0" stroke-width="2" stroke="#f28e2b" />
<circle cx="333.6343266111501" cy="-661.5960099750627" r="4" fill-opacity="0" stroke-width="2" stroke="#59a14f" />
<circle cx="328.1161165178422" cy="-661.3841524573718" r="4" fill-opacity="0" stroke-width="2" stroke="#edc948" />
<circle cx="303.6048689138576" cy="-661.6109682947732" r="4" fill-opacity="0" stroke-width="2" stroke="#f28e2b" />
<circle cx="294.69180371707444" cy="-666.0899653979242" r="4" fill-opacity="0" stroke-width="2" stroke="#59a14f" />
<circle cx="291.8505147747025" cy="-665.9899357973273" r="4" fill-opacity="0" stroke-width="2" stroke="#edc948" />
<circle cx="271.9614921780987" cy="-665.2728561304037" r="4" fill-opacity="0" stroke-width="2" stroke="#f28e2b" />
<circle cx="291.1819762000267" cy="-665.9663135961104" r="4" fill-opacity="0" stroke-width="2" stroke="#59a14f" />
<circle cx="288.67495654499254" cy="-665.877437325905" r="4" fill-opacity="0" stroke-width="2" stroke="#edc948" />
<circle cx="267.7831260863752" cy="-665.1183484605798" r="4" fill-opacity="0" stroke-width="2" stroke="#f28e2b" />
<circle cx="290.8477069126888" cy="-665.9544901858608" r="4" fill-opacity="0" stroke-width="2" stroke="#59a14f" />
<circle cx="288.3406872576548" cy="-665.8655520724486" r="4" fill-opacity="0" stroke-width="2" stroke="#edc948" />
<circle cx="267.6159914427062" cy="-665.1121395514418" r="4" fill-opacity="0" stroke-width="2" stroke="#f28e2b" />
<circle cx="290.8477069126888" cy="-665.9544901858608" r="4" fill-opacity="0" stroke-width="2" stroke="#59a14f" />
<circle cx="288.3406872576548" cy="-665.8655520724486" r="4" fill-opacity="0" stroke-width="2" stroke="#edc948" />
<circle cx="267.7831260863752" cy="-665.1183484605798" r="4" fill-opacity="0" stroke-width="2" stroke="#f28e2b" />
<circle cx="290.68057226901993" cy="-665.9485753995829" r="4" fill-opacity="0" stroke-width="2" stroke="#59a14f" />
<circle cx="288.17355261398575" cy="-665.8596063403588" r="4" fill-opacity="0" stroke-width="2" stroke="#edc948" />
<circle cx="267.6159914427062" cy="-665.1121395514418" r="4" fill-opacity="0" stroke-width="2" stroke="#f28e2b" />
<circle cx="365.5216671733036" cy="-553.1154893480694" r="4" fill-opacity="0" stroke-width="2" stroke="#59a14f" />
<circle cx="353.2588641776526" cy="-628.22265625" r="4" fill-opacity="0" stroke-width="2" stroke="#edc948" />
<circle cx="327.16483958563805" cy="-633.3444704310056" r="4" fill-opacity="0" stroke-width="2" stroke="#f28e2b" />
<circle cx="353.28413035419396" cy="-576.1765660499838" r="4" fill-opacity="0" stroke-width="2" stroke="#59a14f" />
<circle cx="342.99225274172454" cy="-629.7928313054915" r="4" fill-opacity="0" stroke-width="2" stroke="#edc948" />
<circle cx="316.8711862133709" cy="-631.4767932489448" r="4" fill-opacity="0" stroke-width="2" stroke="#f28e2b" />
<circle cx="349.260868101155" cy="-584.7595762021193" r="4" fill-opacity="0" stroke-width="2" stroke="#59a14f" />
<circle cx="339.80615085354" cy="-629.5728187365992" r="4" fill-opacity="0" stroke-width="2" stroke="#edc948" />
<circle cx="314.42555901974595" cy="-632.4873096446701" r="4" fill-opacity="0" stroke-width="2" stroke="#f28e2b" />
<circle cx="346.8309266552224" cy="-589.0341559078281" r="4" fill-opacity="0" stroke-width="2" stroke="#59a14f" />
<circle cx="338.3980680217347" cy="-628.3236994219654" r="4" fill-opacity="0" stroke-width="2" stroke="#edc948" />
<circle cx="313.3802816901408" cy="-628.8738357324303" r="4" fill-opacity="0" stroke-width="2" stroke="#f28e2b" />
<circle cx="343.69428465704567" cy="-595.5395211544767" r="4" fill-opacity="0" stroke-width="2" stroke="#59a14f" />
<circle cx="335.61391152698127" cy="-629.2812189466712" r="4" fill-opacity="0" stroke-width="2" stroke="#edc948" />
<circle cx="311.43748113871845" cy="-629.916850500594" r="4" fill-opacity="0" stroke-width="2" stroke="#f28e2b" />
<circle cx="417.62996011627126" cy="-552.6090936832468" r="4" fill-opacity="0" stroke-width="2" stroke="#59a14f" />
<circle cx="396.26875669882105" cy="-647.4589523064896" r="4" fill-opacity="0" stroke-width="2" stroke="#edc948" />
<circle cx="361.65227287942696" cy="-652.4733268671195" r="4" fill-opacity="0" stroke-width="2" stroke="#f28e2b" />
<circle cx="415.1542803068709" cy="-553.3414895243922" r="4" fill-opacity="0" stroke-width="2" stroke="#59a14f" />
<circle cx="393.7414145475256" cy="-644.0526563234603" r="4" fill-opacity="0" stroke-width="2" stroke="#edc948" />
<circle cx="358.0085710459354" cy="-650.0405515004057" r="4" fill-opacity="0" stroke-width="2" stroke="#f28e2b" />
<circle cx="415.6019739065773" cy="-552.3387343320081" r="4" fill-opacity="0" stroke-width="2" stroke="#59a14f" />
<circle cx="393.5129339230666" cy="-642.9467084639499" r="4" fill-opacity="0" stroke-width="2" stroke="#edc948" />
<circle cx="357.84116780500864" cy="-650.0324464633355" r="4" fill-opacity="0" stroke-width="2" stroke="#f28e2b" />
<circle cx="415.38253582049197" cy="-554.4342507645257" r="4" fill-opacity="0" stroke-width="2" stroke="#59a14f" />
<circle cx="393.72612105368984" cy="-640.7709182074582" r="4" fill-opacity="0" stroke-width="2" stroke="#edc948" />
<circle cx="357.6092415871422" cy="-648.8885283141327" r="4" fill-opacity="0" stroke-width="2" stroke="#f28e2b" />
<circle cx="415.2224587007196" cy="-557.6017130620982" r="4" fill-opacity="0" stroke-width="2" stroke="#59a14f" />
<circle cx="393.3909779475836" cy="-640.7523510971789" r="4" fill-opacity="0" stroke-width="2" stroke="#edc948" />
<circle cx="357.1715548413016" cy="-650.0000000000001" r="4" fill-opacity="0" stroke-width="2" stroke="#f28e2b" />
<circle cx="379.03900887326296" cy="-649.928469241774" r="4" fill-opacity="0" stroke-width="2" stroke="#59a14f" />
<circle cx="371.79873455860195" cy="-651.8168720986077" r="4" fill-opacity="0" stroke-width="2" stroke="#edc948" />
<circle cx="338.6535501572643" cy="-656.0112452455761" r="4" fill-opacity="0" stroke-width="2" stroke="#f28e2b" />
<circle cx="375.5859113432436" cy="-650.877192982456" r="4" fill-opacity="0" stroke-width="2" stroke="#59a14f" />
<circle cx="368.17968802303" cy="-652.771084337349" r="4" fill-opacity="0" stroke-width="2" stroke="#edc948" />
<circle cx="334.47098976109226" cy="-655.8286283626704" r="4" fill-opacity="0" stroke-width="2" stroke="#f28e2b" />
<circle cx="375.75331458417037" cy="-650.8850263115932" r="4" fill-opacity="0" stroke-width="2" stroke="#59a14f" />
<circle cx="368.17968802303" cy="-652.771084337349" r="4" fill-opacity="0" stroke-width="2" stroke="#edc948" />
<circle cx="334.638292176939" cy="-655.8359621451107" r="4" fill-opacity="0" stroke-width="2" stroke="#f28e2b" />
<circle cx="375.5859113432436" cy="-650.877192982456" r="4" fill-opacity="0" stroke-width="2" stroke="#59a14f" />
<circle cx="368.17968802303" cy="-652.771084337349" r="4" fill-opacity="0" stroke-width="2" stroke="#edc948" />
<circle cx="334.638292176939" cy="-655.8359621451107" r="4" fill-opacity="0" stroke-width="2" stroke="#f28e2b" />
<circle cx="375.5231876778838" cy="-649.7607655502394" r="4" fill-opacity="0" stroke-width="2" stroke="#59a14f" />
<circle cx="368.0123184039634" cy="-652.7634961439586" r="4" fill-opacity="0" stroke-width="2" stroke="#edc948" />
<circle cx="334.53778982234263" cy="-656.9910328794417" r="4" fill-opacity="0" stroke-width="2" stroke="#f28e2b" />
<circle cx="337.4138738377149" cy="-660.5829744948659" r="4" fill-opacity="0" stroke-width="2" stroke="#59a14f" />
<circle cx="331.5606395076594" cy="-660.353156754956" r="4" fill-opacity="0" stroke-width="2" stroke="#edc948" />
<circle cx="307.8826795090465" cy="-660.5869305579254" r="4" fill-opacity="0" stroke-width="2" stroke="#f28e2b" />
<circle cx="333.2329921733895" cy="-660.4190919674043" r="4" fill-opacity="0" stroke-width="2" stroke="#59a14f" />
<circle cx="327.3797578433339" cy="-660.1873536299764" r="4" fill-opacity="0" stroke-width="2" stroke="#edc948" />
<circle cx="303.2005618541186" cy="-660.3977370135436" r="4" fill-opacity="0" stroke-width="2" stroke="#f28e2b" />
<circle cx="333.4002274399624" cy="-660.4256734286663" r="4" fill-opacity="0" stroke-width="2" stroke="#59a14f" />
<circle cx="327.71422837648" cy="-660.200668896321" r="4" fill-opacity="0" stroke-width="2" stroke="#edc948" />
<circle cx="303.53499882947057" cy="-660.4113110539848" r="4" fill-opacity="0" stroke-width="2" stroke="#f28e2b" />
<circle cx="333.4002274399624" cy="-660.4256734286663" r="4" fill-opacity="0" stroke-width="2" stroke="#59a14f" />
<circle cx="327.88146364305305" cy="-660.2073231901022" r="4" fill-opacity="0" stroke-width="2" stroke="#edc948" />
<circle cx="303.3677803417947" cy="-660.4045251971207" r="4" fill-opacity="0" stroke-width="2" stroke="#f28e2b" />
<circle cx="333.299889635798" cy="-661.5832363213036" r="4" fill-opacity="0" stroke-width="2" stroke="#59a14f" />
<circle cx="327.7816795424902" cy="-661.3712374581941" r="4" fill-opacity="0" stroke-width="2" stroke="#edc948" />
<circle cx="303.2704654895667" cy="-661.5978055888904" r="4" fill-opacity="0" stroke-width="2" stroke="#f28e2b" />
<circle cx="294.52466907340545" cy="-666.0840975947398" r="4" fill-opacity="0" stroke-width="2" stroke="#59a14f" />
<circle cx="291.68338013103346" cy="-665.9840333217635" r="4" fill-opacity="0" stroke-width="2" stroke="#edc948" />
<circle cx="271.7943575344297" cy="-665.2667021088071" r="4" fill-opacity="0" stroke-width="2" stroke="#f28e2b" />
<circle cx="291.1819762000267" cy="-665.9663135961104" r="4" fill-opacity="0" stroke-width="2" stroke="#59a14f" />
<circle cx="288.67495654499254" cy="-665.877437325905" r="4" fill-opacity="0" stroke-width="2" stroke="#edc948" />
<circle cx="267.7831260863752" cy="-665.1183484605798" r="4" fill-opacity="0" stroke-width="2" stroke="#f28e2b" />
<circle cx="290.8477069126888" cy="-665.9544901858608" r="4" fill-opacity="0" stroke-width="2" stroke="#59a14f" />
<circle cx="288.3406872576548" cy="-665.8655520724486" r="4" fill-opacity="0" stroke-width="2" stroke="#edc948" />
<circle cx="267.6159914427062" cy="-665.1121395514418" r="4" fill-opacity="0" stroke-width="2" stroke="#f28e2b" />
<circle cx="290.8477069126888" cy="-665.9544901858608" r="4" fill-opacity="0" stroke-width="2" stroke="#59a14f" />
<circle cx="288.3406872576548" cy="-665.8655520724486" r="4" fill-opacity="0" stroke-width="2" stroke="#edc948" />
<circle cx="267.7831260863752" cy="-665.1183484605798" r="4" fill-opacity="0" stroke-width="2" stroke="#f28e2b" />
<circle cx="290.68057226901993" cy="-665.9485753995829" r="4" fill-opacity="0" stroke-width="2" stroke="#59a14f" />
<circle cx="288.17355261398575" cy="-665.8596063403588" r="4" fill-opacity="0" stroke-width="2" stroke="#edc948" />
<circle cx="267.6159914427062" cy="-665.1121395514418" r="4" fill-opacity="0" stroke-width="2" stroke="#f28e2b" />
<circle cx="235.7805907172996" cy="-540.0950292397662" r="4" fill-opacity="0" stroke-width="2" stroke="#59a14f" />
<circle cx="227.51961375980682" cy="-624.7032640949554" r="4" fill-opacity="0" stroke-width="2" stroke="#edc948" />
<circle cx="206.1258000737241" cy="-629.494488787533" r="4" fill-opacity="0" stroke-width="2" stroke="#f28e2b" />
<circle cx="215.91406539381074" cy="-567.6773348306194" r="4" fill-opacity="0" stroke-width="2" stroke="#59a14f" />
<circle cx="208.9827383945031" cy="-627.0833333333336" r="4" fill-opacity="0" stroke-width="2" stroke="#edc948" />
<circle cx="187.35967293321258" cy="-627.9611650485435" r="4" fill-opacity="0" stroke-width="2" stroke="#f28e2b" />
<circle cx="205.10749974765318" cy="-576.5876777251182" r="4" fill-opacity="0" stroke-width="2" stroke="#59a14f" />
<circle cx="198.75339298280892" cy="-628.8999616711382" r="4" fill-opacity="0" stroke-width="2" stroke="#edc948" />
<circle cx="177.5544388609714" cy="-631.237721021611" r="4" fill-opacity="0" stroke-width="2" stroke="#f28e2b" />
<circle cx="198.8634453075087" cy="-583.6676217765043" r="4" fill-opacity="0" stroke-width="2" stroke="#59a14f" />
<circle cx="193.310543602118" cy="-627.1114539143852" r="4" fill-opacity="0" stroke-width="2" stroke="#edc948" />
<circle cx="172.36295402761024" cy="-628.063241106719" r="4" fill-opacity="0" stroke-width="2" stroke="#f28e2b" />
<circle cx="193.97116644823058" cy="-591.0244089948108" r="4" fill-opacity="0" stroke-width="2" stroke="#59a14f" />
<circle cx="188.45096856357657" cy="-626.7015706806282" r="4" fill-opacity="0" stroke-width="2" stroke="#edc948" />
<circle cx="168.17450743868108" cy="-627.7060575968223" r="4" fill-opacity="0" stroke-width="2" stroke="#f28e2b" />
<circle cx="413.5739876968836" cy="-552.0673813169986" r="4" fill-opacity="0" stroke-width="2" stroke="#59a14f" />
<circle cx="395.0964630225081" cy="-647.4013775829677" r="4" fill-opacity="0" stroke-width="2" stroke="#edc948" />
<circle cx="360.98279440315997" cy="-652.442575218376" r="4" fill-opacity="0" stroke-width="2" stroke="#f28e2b" />
<circle cx="411.43668255094803" cy="-552.8464017185819" r="4" fill-opacity="0" stroke-width="2" stroke="#59a14f" />
<circle cx="391.8986832847523" cy="-643.9560439560438" r="4" fill-opacity="0" stroke-width="2" stroke="#edc948" />
<circle cx="356.6693451185214" cy="-649.9756374857885" r="4" fill-opacity="0" stroke-width="2" stroke="#f28e2b" />
<circle cx="411.7150003379977" cy="-551.8177634606533" r="4" fill-opacity="0" stroke-width="2" stroke="#59a14f" />
<circle cx="391.33494169682353" cy="-642.8302183131774" r="4" fill-opacity="0" stroke-width="2" stroke="#edc948" />
<circle cx="355.9997321548146" cy="-649.9431171786123" r="4" fill-opacity="0" stroke-width="2" stroke="#f28e2b" />
<circle cx="411.49635036496346" cy="-553.9205155746511" r="4" fill-opacity="0" stroke-width="2" stroke="#59a14f" />
<circle cx="391.3801193109458" cy="-640.6407035175881" r="4" fill-opacity="0" stroke-width="2" stroke="#edc948" />
<circle cx="355.6002009040682" cy="-648.7888148268576" r="4" fill-opacity="0" stroke-width="2" stroke="#f28e2b" />
<circle cx="411.3374548157156" cy="-557.0990023023791" r="4" fill-opacity="0" stroke-width="2" stroke="#59a14f" />
<circle cx="390.54226154567993" cy="-640.5940594059409" r="4" fill-opacity="0" stroke-width="2" stroke="#edc948" />
<circle cx="354.6605062274005" cy="-649.8779495524819" r="4" fill-opacity="0" stroke-width="2" stroke="#f28e2b" />
<circle cx="378.70416875941726" cy="-649.9125457147402" r="4" fill-opacity="0" stroke-width="2" stroke="#59a14f" />
<circle cx="371.4639617019851" cy="-651.801441152922" r="4" fill-opacity="0" stroke-width="2" stroke="#edc948" />
<circle cx="338.6535501572643" cy="-656.0112452455761" r="4" fill-opacity="0" stroke-width="2" stroke="#f28e2b" />
<circle cx="375.2511048613901" cy="-650.8615188257813" r="4" fill-opacity="0" stroke-width="2" stroke="#59a14f" />
<circle cx="367.84494878489653" cy="-652.7559055118109" r="4" fill-opacity="0" stroke-width="2" stroke="#edc948" />
<circle cx="334.47098976109226" cy="-655.8286283626704" r="4" fill-opacity="0" stroke-width="2" stroke="#f28e2b" />
<circle cx="375.4185081023169" cy="-650.8693571542512" r="4" fill-opacity="0" stroke-width="2" stroke="#59a14f" />
<circle cx="367.84494878489653" cy="-652.7559055118109" r="4" fill-opacity="0" stroke-width="2" stroke="#edc948" />
<circle cx="334.47098976109226" cy="-655.8286283626704" r="4" fill-opacity="0" stroke-width="2" stroke="#f28e2b" />
<circle cx="375.2511048613901" cy="-650.8615188257813" r="4" fill-opacity="0" stroke-width="2" stroke="#59a14f" />
<circle cx="367.84494878489653" cy="-652.7559055118109" r="4" fill-opacity="0" stroke-width="2" stroke="#edc948" />
<circle cx="334.30368734524524" cy="-655.8212921441622" r="4" fill-opacity="0" stroke-width="2" stroke="#f28e2b" />
<circle cx="375.1883475640381" cy="-649.744735162731" r="4" fill-opacity="0" stroke-width="2" stroke="#59a14f" />
<circle cx="367.67757916582974" cy="-652.7483124397304" r="4" fill-opacity="0" stroke-width="2" stroke="#edc948" />
<circle cx="334.20321857539557" cy="-656.9767441860465" r="4" fill-opacity="0" stroke-width="2" stroke="#f28e2b" />
<circle cx="337.4138738377149" cy="-660.5829744948659" r="4" fill-opacity="0" stroke-width="2" stroke="#59a14f" />
<circle cx="331.5606395076594" cy="-660.353156754956" r="4" fill-opacity="0" stroke-width="2" stroke="#edc948" />
<circle cx="307.8826795090465" cy="-660.5869305579254" r="4" fill-opacity="0" stroke-width="2" stroke="#f28e2b" />
<circle cx="333.2329921733895" cy="-660.4190919674043" r="4" fill-opacity="0" stroke-width="2" stroke="#59a14f" />
<circle cx="327.3797578433339" cy="-660.1873536299764" r="4" fill-opacity="0" stroke-width="2" stroke="#edc948" />
<circle cx="303.2005618541186" cy="-660.3977370135436" r="4" fill-opacity="0" stroke-width="2" stroke="#f28e2b" />
<circle cx="333.4002274399624" cy="-660.4256734286663" r="4" fill-opacity="0" stroke-width="2" stroke="#59a14f" />
<circle cx="327.71422837648" cy="-660.200668896321" r="4" fill-opacity="0" stroke-width="2" stroke="#edc948" />
<circle cx="303.53499882947057" cy="-660.4113110539848" r="4" fill-opacity="0" stroke-width="2" stroke="#f28e2b" />
<circle cx="333.4002274399624" cy="-660.4256734286663" r="4" fill-opacity="0" stroke-width="2" stroke="#59a14f" />
<circle cx="327.88146364305305" cy="-660.2073231901022" r="4" fill-opacity="0" stroke-width="2" stroke="#edc948" />
<circle cx="303.3677803417947" cy="-660.4045251971207" r="4" fill-opacity="0" stroke-width="2" stroke="#f28e2b" />
<circle cx="333.299889635798" cy="-661.5832363213036" r="4" fill-opacity="0" stroke-width="2" stroke="#59a14f" />
<circle cx="327.7816795424902" cy="-661.3712374581941" r="4" fill-opacity="0" stroke-width="2" stroke="#edc948" />
<circle cx="303.2704654895667" cy="-661.5978055888904" r="4" fill-opacity="0" stroke-width="2" stroke="#f28e2b" />
<circle cx="294.52466907340545" cy="-666.0840975947398" r="4" fill-opacity="0" stroke-width="2" stroke="#59a14f" />
<circle cx="291.68338013103346" cy="-665.9840333217635" r="4" fill-opacity="0" stroke-width="2" stroke="#edc948" />
<circle cx="271.7943575344297" cy="-665.2667021088071" r="4" fill-opacity="0" stroke-width="2" stroke="#f28e2b" />
<circle cx="291.1819762000267" cy="-665.9663135961104" r="4" fill-opacity="0" stroke-width="2" stroke="#59a14f" />
<circle cx="288.67495654499254" cy="-665.877437325905" r="4" fill-opacity="0" stroke-width="2" stroke="#edc948" />
<circle cx="267.7831260863752" cy="-665.1183484605798" r="4" fill-opacity="0" stroke-width="2" stroke="#f28e2b" />
<circle cx="290.8477069126888" cy="-665.9544901858608" r="4" fill-opacity="0" stroke-width="2" stroke="#59a14f" />
<circle cx="288.3406872576548" cy="-665.8655520724486" r="4" fill-opacity="0" stroke-width="2" stroke="#edc948" />
<circle cx="267.6159914427062" cy="-665.1121395514418" r="4" fill-opacity="0" stroke-width="2" stroke="#f28e2b" />
<circle cx="290.8477069126888" cy="-665.9544901858608" r="4" fill-opacity="0" stroke-width="2" stroke="#59a14f" />
<circle cx="288.3406872576548" cy="-665.8655520724486" r="4" fill-opacity="0" stroke-width="2" stroke="#edc948" />
<circle cx="267.7831260863752" cy="-665.1183484605798" r="4" fill-opacity="0" stroke-width="2" stroke="#f28e2b" />
<circle cx="290.68057226901993" cy="-665.9485753995829" r="4" fill-opacity="0" stroke-width="2" stroke="#59a14f" />
<circle cx="288.17355261398575" cy="-665.8596063403588" r="4" fill-opacity="0" stroke-width="2" stroke="#edc948" />
<circle cx="267.6159914427062" cy="-665.1121395514418" r="4" fill-opacity="0" stroke-width="2" stroke="#f28e2b" />
</svg>