<?xml version="1.0" encoding="UTF-8"?>
<svg xmlns="http://www.w3.org/2000/svg" xmlns:xlink="http://www.w3.org/1999/xlink"
     width="1000" height="700" viewBox="0 -700 1000 700" viewport-fill="white">
<defs>
</defs>
<rect x="0" y="-700" width="1000" height="700" fill="white" />
<circle cx="582.6129908619412" cy="-528.9938926390226" r="4" fill-opacity="0" stroke-width="2" stroke="#4e79a7" />
<circle cx="554.8894869912731" cy="-612.3125103016321" r="4" fill-opacity="0" stroke-width="2" stroke="#4e79a7" />
<circle cx="512.9301567908776" cy="-622.3284397405259" r="4" fill-opacity="0" stroke-width="2" stroke="#4e79a7" />
<circle cx="583.2303255047383" cy="-520.1381082383169" r="4" fill-opacity="0" stroke-width="2" stroke="#4e79a7" />
<circle cx="555.0795593635252" cy="-607.7277970011531" r="4" fill-opacity="0" stroke-width="2" stroke="#4e79a7" />
<circle cx="513.0742913000978" cy="-621.1469534050182" r="4" fill-opacity="0" stroke-width="2" stroke="#4e79a7" />
<circle cx="584.5697329376856" cy="-518.094321462945" r="4" fill-opacity="0" stroke-width="2" stroke="#4e79a7" />
<circle cx="556.5355874065907" cy="-599.8025666337612" r="4" fill-opacity="0" stroke-width="2" stroke="#4e79a7" />
<circle cx="513.3879447365204" cy="-615.2166496076426" r="4" fill-opacity="0" stroke-width="2" stroke="#4e79a7" />
<circle cx="583.9515331355095" cy="-518.0067404910928" r="4" fill-opacity="0" stroke-width="2" stroke="#4e79a7" />
<circle cx="556.9568589037183" cy="-604.4250699128147" r="4" fill-opacity="0" stroke-width="2" stroke="#4e79a7" />
<circle cx="514.0247879973906" cy="-611.6945107398568" r="4" fill-opacity="0" stroke-width="2" stroke="#4e79a7" />
<circle cx="584.1061786406166" cy="-516.9127086007705" r="4" fill-opacity="0" stroke-width="2" stroke="#4e79a7" />
<circle cx="557.05245968565" cy="-602.1381578947371" r="4" fill-opacity="0" stroke-width="2" stroke="#4e79a7" />
<circle cx="513.3031821700688" cy="-617.5908548029344" r="4" fill-opacity="0" stroke-width="2" stroke="#4e79a7" />
<circle cx="540.392253203947" cy="-572.939217318901" r="4" fill-opacity="0" stroke-width="2" stroke="#b07aa1" />
<circle cx="515.5723393023917" cy="-651.0572987721689" r="4" fill-opacity="0" stroke-width="2" stroke="#b07aa1" />
<circle cx="477.3151529908287" cy="-655.5868875572785" r="4" fill-opacity="0" stroke-width="2" stroke="#b07aa1" />
<circle cx="540.039302382707" cy="-574.0629685157419" r="4" fill-opacity="0" stroke-width="2" stroke="#b07aa1" />
<circle cx="515.860444336136" cy="-648.6873508353221" r="4" fill-opacity="0" stroke-width="2" stroke="#b07aa1" />
<circle cx="477.4544421445676" cy="-654.3612334801766" r="4" fill-opacity="0" stroke-width="2" stroke="#b07aa1" />
<circle cx="540.1522593320235" cy="-576.395135765451" r="4" fill-opacity="0" stroke-width="2" stroke="#b07aa1" />
<circle cx="516.2928652689745" cy="-645.1354574884987" r="4" fill-opacity="0" stroke-width="2" stroke="#b07aa1" />
<circle cx="477.7209642074507" cy="-655.6025369978861" r="4" fill-opacity="0" stroke-width="2" stroke="#b07aa1" />
<circle cx="539.7429600523903" cy="-576.3539410098316" r="4" fill-opacity="0" stroke-width="2" stroke="#b07aa1" />
<circle cx="517.0466089642001" cy="-643.9809296781884" r="4" fill-opacity="0" stroke-width="2" stroke="#b07aa1" />
<circle cx="478.1390817196444" cy="-651.9281563655574" r="4" fill-opacity="0" stroke-width="2" stroke="#b07aa1" />
<circle cx="539.5948434622469" cy="-577.5000000000002" r="4" fill-opacity="0" stroke-width="2" stroke="#b07aa1" />
<circle cx="516.784524099813" cy="-642.7792915531335" r="4" fill-opacity="0" stroke-width="2" stroke="#b07aa1" />
<circle cx="477.7209642074507" cy="-655.6025369978861" r="4" fill-opacity="0" stroke-width="2" stroke="#b07aa1" />
<circle cx="482.0587757752881" cy="-653.316953316953" r="4" fill-opacity="0" stroke-width="2" stroke="#e15759" />
<circle cx="474.95534989446327" cy="-653.0284301606923" r="4" fill-opacity="0" stroke-width="2" stroke="#e15759" />
<circle cx="439.51007827391805" cy="-660.4447685016405" r="4" fill-opacity="0" stroke-width="2" stroke="#e15759" />
<circle cx="481.9189090466335" cy="-654.5374758644904" r="4" fill-opacity="0" stroke-width="2" stroke="#e15759" />
<circle cx="474.95534989446327" cy="-653.0284301606923" r="4" fill-opacity="0" stroke-width="2" stroke="#e15759" />
<circle cx="439.44187555771884" cy="-659.1687932920161" r="4" fill-opacity="0" stroke-width="2" stroke="#e15759" />
<circle cx="482.38779319860384" cy="-655.7817160905421" r="4" fill-opacity="0" stroke-width="2" stroke="#e15759" />
<circle cx="475.0192783798043" cy="-654.264524103832" r="4" fill-opacity="0" stroke-width="2" stroke="#e15759" />
<circle cx="439.78102189781026" cy="-661.7277200656092" r="4" fill-opacity="0" stroke-width="2" stroke="#e15759" />
<circle cx="481.9189090466335" cy="-654.5374758644904" r="4" fill-opacity="0" stroke-width="2" stroke="#e15759" />
<circle cx="475.2222086935347" cy="-654.2725988700566" r="4" fill-opacity="0" stroke-width="2" stroke="#e15759" />
<circle cx="439.64468240447786" cy="-659.1762347366506" r="4" fill-opacity="0" stroke-width="2" stroke="#e15759" />
<circle cx="481.9189090466335" cy="-654.5374758644904" r="4" fill-opacity="0" stroke-width="2" stroke="#e15759" />
<circle cx="475.2222086935347" cy="-654.2725988700566" r="4" fill-opacity="0" stroke-width="2" stroke="#e15759" />
<circle cx="439.37550689375513" cy="-661.7137648131265" r="4" fill-opacity="0" stroke-width="2" stroke="#e15759" />
<circle cx="439.2428664072632" cy="-666.8064927959147" r="4" fill-opacity="0" stroke-width="2" stroke="#76b7b2" />
<circle cx="433.56841763942924" cy="-666.6361136571952" r="4" fill-opacity="0" stroke-width="2" stroke="#76b7b2" />
<circle cx="409.726443768997" cy="-667.2100430953718" r="4" fill-opacity="0" stroke-width="2" stroke="#76b7b2" />
<circle cx="438.8375486381322" cy="-666.7943805874839" r="4" fill-opacity="0" stroke-width="2" stroke="#76b7b2" />
<circle cx="433.36575875486375" cy="-666.6299963329664" r="4" fill-opacity="0" stroke-width="2" stroke="#76b7b2" />
<circle cx="409.726443768997" cy="-667.2100430953718" r="4" fill-opacity="0" stroke-width="2" stroke="#76b7b2" />
<circle cx="439.1084093211752" cy="-668.0773440350238" r="4" fill-opacity="0" stroke-width="2" stroke="#76b7b2" />
<circle cx="433.43465045592706" cy="-667.913458012468" r="4" fill-opacity="0" stroke-width="2" stroke="#76b7b2" />
<circle cx="409.92907801418437" cy="-667.2161858373921" r="4" fill-opacity="0" stroke-width="2" stroke="#76b7b2" />
<circle cx="438.4322308690012" cy="-666.7822595364115" r="4" fill-opacity="0" stroke-width="2" stroke="#76b7b2" />
<circle cx="433.02938196555215" cy="-667.9016874541455" r="4" fill-opacity="0" stroke-width="2" stroke="#76b7b2" />
<circle cx="409.726443768997" cy="-667.2100430953718" r="4" fill-opacity="0" stroke-width="2" stroke="#76b7b2" />
<circle cx="438.02925327174745" cy="-670.5989773557341" r="4" fill-opacity="0" stroke-width="2" stroke="#76b7b2" />
<circle cx="432.55945869292157" cy="-670.4532941824187" r="4" fill-opacity="0" stroke-width="2" stroke="#76b7b2" />
<circle cx="409.7391022524712" cy="-671.1394302848576" r="4" fill-opacity="0" stroke-width="2" stroke="#76b7b2" />
<circle cx="387.8832057668165" cy="-674.5551941840445" r="4" fill-opacity="0" stroke-width="2" stroke="#59a14f" />
<circle cx="383.6309885392621" cy="-674.4525547445253" r="4" fill-opacity="0" stroke-width="2" stroke="#59a14f" />
<circle cx="364.5972542825902" cy="-673.9827856025038" r="4" fill-opacity="0" stroke-width="2" stroke="#59a14f" />
<circle cx="387.07325962823467" cy="-674.5357074478271" r="4" fill-opacity="0" stroke-width="2" stroke="#59a14f" />
<circle cx="383.0235289353259" cy="-674.437824332116" r="4" fill-opacity="0" stroke-width="2" stroke="#59a14f" />
<circle cx="363.98979467865377" cy="-673.9675083186529" r="4" fill-opacity="0" stroke-width="2" stroke="#59a14f" />
<circle cx="386.5403304178815" cy="-675.8620689655172" r="4" fill-opacity="0" stroke-width="2" stroke="#59a14f" />
<circle cx="382.693553611921" cy="-675.7738896366084" r="4" fill-opacity="0" stroke-width="2" stroke="#59a14f" />
<circle cx="363.66213151927434" cy="-675.3279812022714" r="4" fill-opacity="0" stroke-width="2" stroke="#59a14f" />
<circle cx="386.5403304178815" cy="-675.8620689655172" r="4" fill-opacity="0" stroke-width="2" stroke="#59a14f" />
<circle cx="382.8960155490768" cy="-675.7785467128024" r="4" fill-opacity="0" stroke-width="2" stroke="#59a14f" />
<circle cx="364.067055393586" cy="-675.3376394597766" r="4" fill-opacity="0" stroke-width="2" stroke="#59a14f" />
<circle cx="386.1354065435698" cy="-675.8528171713301" r="4" fill-opacity="0" stroke-width="2" stroke="#59a14f" />
<circle cx="382.4910916747652" cy="-675.7692307692304" r="4" fill-opacity="0" stroke-width="2" stroke="#59a14f" />
<circle cx="363.86459345643016" cy="-675.3328112764294" r="4" fill-opacity="0" stroke-width="2" stroke="#59a14f" />
<circle cx="577.6326061054275" cy="-545.1727478204716" r="4" fill-opacity="0" stroke-width="2" stroke="#4e79a7" />
<circle cx="550.6555908461601" cy="-625.8646367698165" r="4" fill-opacity="0" stroke-width="2" stroke="#4e79a7" />
<circle cx="509.6603620093552" cy="-634.0640520637091" r="4" fill-opacity="0" stroke-width="2" stroke="#4e79a7" />
<circle cx="578.1943759250122" cy="-539.6256857050657" r="4" fill-opacity="0" stroke-width="2" stroke="#4e79a7" />
<circle cx="550.9530791788857" cy="-623.5732009925556" r="4" fill-opacity="0" stroke-width="2" stroke="#4e79a7" />
<circle cx="509.6005207062079" cy="-632.8652166466858" r="4" fill-opacity="0" stroke-width="2" stroke="#4e79a7" />
<circle cx="578.2438823771333" cy="-536.263913534441" r="4" fill-opacity="0" stroke-width="2" stroke="#4e79a7" />
<circle cx="551.1958603267734" cy="-620.1256821564409" r="4" fill-opacity="0" stroke-width="2" stroke="#4e79a7" />
<circle cx="509.6842447916667" cy="-630.4794520547943" r="4" fill-opacity="0" stroke-width="2" stroke="#4e79a7" />
<circle cx="576.4488286066585" cy="-541.654548392309" r="4" fill-opacity="0" stroke-width="2" stroke="#4e79a7" />
<circle cx="550.2871807405596" cy="-622.3766964581266" r="4" fill-opacity="0" stroke-width="2" stroke="#4e79a7" />
<circle cx="509.13381341795827" cy="-631.6429672777113" r="4" fill-opacity="0" stroke-width="2" stroke="#4e79a7" />
<circle cx="576.9088442087086" cy="-538.339793281654" r="4" fill-opacity="0" stroke-width="2" stroke="#4e79a7" />
<circle cx="550.678567061988" cy="-617.78329197684" r="4" fill-opacity="0" stroke-width="2" stroke="#4e79a7" />
<circle cx="508.8104830505025" cy="-629.2323509252917" r="4" fill-opacity="0" stroke-width="2" stroke="#4e79a7" />
<circle cx="539.8559620263522" cy="-578.6868855190802" r="4" fill-opacity="0" stroke-width="2" stroke="#b07aa1" />
<circle cx="515.0223304912708" cy="-652.2265824944553" r="4" fill-opacity="0" stroke-width="2" stroke="#b07aa1" />
<circle cx="476.9730168391155" cy="-656.8053596614949" r="4" fill-opacity="0" stroke-width="2" stroke="#b07aa1" />
<circle cx="539.4467632375809" cy="-578.646441073512" r="4" fill-opacity="0" stroke-width="2" stroke="#b07aa1" />
<circle cx="515.3693101067934" cy="-651.048951048951" r="4" fill-opacity="0" stroke-width="2" stroke="#b07aa1" />
<circle cx="477.1122473825175" cy="-655.579058699101" r="4" fill-opacity="0" stroke-width="2" stroke="#b07aa1" />
<circle cx="539.5032936459228" cy="-579.8133022170364" r="4" fill-opacity="0" stroke-width="2" stroke="#b07aa1" />
<circle cx="515.860444336136" cy="-648.6873508353221" r="4" fill-opacity="0" stroke-width="2" stroke="#b07aa1" />
<circle cx="477.1758977480219" cy="-656.8129737352372" r="4" fill-opacity="0" stroke-width="2" stroke="#b07aa1" />
<circle cx="539.1507118311242" cy="-580.9404702351175" r="4" fill-opacity="0" stroke-width="2" stroke="#b07aa1" />
<circle cx="516.6138597773986" cy="-647.5298126064733" r="4" fill-opacity="0" stroke-width="2" stroke="#b07aa1" />
<circle cx="477.7209642074507" cy="-655.6025369978861" r="4" fill-opacity="0" stroke-width="2" stroke="#b07aa1" />
<circle cx="539.0027406225714" cy="-582.0880587058042" r="4" fill-opacity="0" stroke-width="2" stroke="#b07aa1" />
<circle cx="516.2076529368755" cy="-647.511929107021" r="4" fill-opacity="0" stroke-width="2" stroke="#b07aa1" />
<circle cx="476.9730168391155" cy="-656.8053596614949" r="4" fill-opacity="0" stroke-width="2" stroke="#b07aa1" />
<circle cx="481.77907637367093" cy="-655.7584269662924" r="4" fill-opacity="0" stroke-width="2" stroke="#e15759" />
<circle cx="474.8163480660741" cy="-654.2564464853409" r="4" fill-opacity="0" stroke-width="2" stroke="#e15759" />
<circle cx="439.51007827391805" cy="-660.4447685016405" r="4" fill-opacity="0" stroke-width="2" stroke="#e15759" />
<circle cx="481.57617076535985" cy="-655.7506584723445" r="4" fill-opacity="0" stroke-width="2" stroke="#e15759" />
<circle cx="474.88028569109645" cy="-655.492758742494" r="4" fill-opacity="0" stroke-width="2" stroke="#e15759" />
<circle cx="439.51007827391805" cy="-660.4447685016405" r="4" fill-opacity="0" stroke-width="2" stroke="#e15759" />
<circle cx="482.0450395617772" cy="-656.9949096015444" r="4" fill-opacity="0" stroke-width="2" stroke="#e15759" />
<circle cx="474.88028569109645" cy="-655.492758742494" r="4" fill-opacity="0" stroke-width="2" stroke="#e15759" />
<circle cx="439.57826439578264" cy="-661.7207437112647" r="4" fill-opacity="0" stroke-width="2" stroke="#e15759" />
<circle cx="481.63927774396427" cy="-656.9798068481123" r="4" fill-opacity="0" stroke-width="2" stroke="#e15759" />
<circle cx="475.08319129940753" cy="-655.5006180469716" r="4" fill-opacity="0" stroke-width="2" stroke="#e15759" />
<circle cx="439.57826439578264" cy="-661.7207437112647" r="4" fill-opacity="0" stroke-width="2" stroke="#e15759" />
<circle cx="481.57617076535985" cy="-655.7506584723445" r="4" fill-opacity="0" stroke-width="2" stroke="#e15759" />
<circle cx="475.0192783798043" cy="-654.264524103832" r="4" fill-opacity="0" stroke-width="2" stroke="#e15759" />
<circle cx="439.2409682520375" cy="-662.9832239241432" r="4" fill-opacity="0" stroke-width="2" stroke="#e15759" />
<circle cx="439.2428664072632" cy="-666.8064927959147" r="4" fill-opacity="0" stroke-width="2" stroke="#76b7b2" />
<circle cx="433.56841763942924" cy="-666.6361136571952" r="4" fill-opacity="0" stroke-width="2" stroke="#76b7b2" />
<circle cx="409.726443768997" cy="-667.2100430953718" r="4" fill-opacity="0" stroke-width="2" stroke="#76b7b2" />
<circle cx="438.8375486381322" cy="-666.7943805874839" r="4" fill-opacity="0" stroke-width="2" stroke="#76b7b2" />
<circle cx="433.36575875486375" cy="-666.6299963329664" r="4" fill-opacity="0" stroke-width="2" stroke="#76b7b2" />
<circle cx="409.726443768997" cy="-667.2100430953718" r="4" fill-opacity="0" stroke-width="2" stroke="#76b7b2" />
<circle cx="439.1084093211752" cy="-668.0773440350238" r="4" fill-opacity="0" stroke-width="2" stroke="#76b7b2" />
<circle cx="433.43465045592706" cy="-667.913458012468" r="4" fill-opacity="0" stroke-width="2" stroke="#76b7b2" />
<circle cx="409.92907801418437" cy="-667.2161858373921" r="4" fill-opacity="0" stroke-width="2" stroke="#76b7b2" />
<circle cx="438.4322308690012" cy="-666.7822595364115" r="4" fill-opacity="0" stroke-width="2" stroke="#76b7b2" />
<circle cx="433.02938196555215" cy="-667.9016874541455" r="4" fill-opacity="0" stroke-width="2" stroke="#76b7b2" />
<circle cx="409.726443768997" cy="-667.2100430953718" r="4" fill-opacity="0" stroke-width="2" stroke="#76b7b2" />
<circle cx="437.96093686684486" cy="-669.3206720233751" r="4" fill-opacity="0" stroke-width="2" stroke="#76b7b2" />
<circle cx="432.55945869292157" cy="-670.4532941824187" r="4" fill-opacity="0" stroke-width="2" stroke="#76b7b2" />
<circle cx="409.6673554556135" cy="-669.8275862068966" r="4" fill-opacity="0" stroke-width="2" stroke="#76b7b2" />
<circle cx="387.8832057668165" cy="-674.5551941840445" r="4" fill-opacity="0" stroke-width="2" stroke="#59a14f" />
<circle cx="383.6309885392621" cy="-674.4525547445253" r="4" fill-opacity="0" stroke-width="2" stroke="#59a14f" />
<circle cx="364.5972542825902" cy="-673.9827856025038" r="4" fill-opacity="0" stroke-width="2" stroke="#59a14f" />
<circle cx="387.07325962823467" cy="-674.5357074478271" r="4" fill-opacity="0" stroke-width="2" stroke="#59a14f" />
<circle cx="383.0235289353259" cy="-674.437824332116" r="4" fill-opacity="0" stroke-width="2" stroke="#59a14f" />
<circle cx="363.98979467865377" cy="-673.9675083186529" r="4" fill-opacity="0" stroke-width="2" stroke="#59a14f" />
<circle cx="386.5403304178815" cy="-675.8620689655172" r="4" fill-opacity="0" stroke-width="2" stroke="#59a14f" />
<circle cx="382.693553611921" cy="-675.7738896366084" r="4" fill-opacity="0" stroke-width="2" stroke="#59a14f" />
<circle cx="363.66213151927434" cy="-675.3279812022714" r="4" fill-opacity="0" stroke-width="2" stroke="#59a14f" />
<circle cx="386.5403304178815" cy="-675.8620689655172" r="4" fill-opacity="0" stroke-width="2" stroke="#59a14f" />
<circle cx="382.8960155490768" cy="-675.7785467128024" r="4" fill-opacity="0" stroke-width="2" stroke="#59a14f" />
<circle cx="364.067055393586" cy="-675.3376394597766" r="4" fill-opacity="0" stroke-width="2" stroke="#59a14f" />
<circle cx="386.1354065435698" cy="-675.8528171713301" r="4" fill-opacity="0" stroke-width="2" stroke="#59a14f" />
<circle cx="382.4910916747652" cy="-675.7692307692304" r="4" fill-opacity="0" stroke-width="2" stroke="#59a14f" />
<circle cx="363.86459345643016" cy="-675.3328112764294" r="4" fill-opacity="0" stroke-width="2" stroke="#59a14f" />
<circle cx="562.5460801179651" cy="-571.7697088649004" r="4" fill-opacity="0" stroke-width="2" stroke="#4e79a7" />
<circle cx="540.8329266308768" cy="-636.9158878504674" r="4" fill-opacity="0" stroke-width="2" stroke="#4e79a7" />
<circle cx="503.1484866951045" cy="-645.7270847691244" r="4" fill-opacity="0" stroke-width="2" stroke="#4e79a7" />
<circle cx="560.2932743507823" cy="-571.5385875798787" r="4" fill-opacity="0" stroke-width="2" stroke="#4e79a7" />
<circle cx="538.5960631202212" cy="-636.799866243103" r="4" fill-opacity="0" stroke-width="2" stroke="#4e79a7" />
<circle cx="501.4627011214042" cy="-644.4444444444446" r="4" fill-opacity="0" stroke-width="2" stroke="#4e79a7" />
<circle cx="558.2033329238832" cy="-574.7537754432044" r="4" fill-opacity="0" stroke-width="2" stroke="#4e79a7" />
<circle cx="537.87324058254" cy="-634.4262295081966" r="4" fill-opacity="0" stroke-width="2" stroke="#4e79a7" />
<circle cx="501.1987484253727" cy="-643.2269197584121" r="4" fill-opacity="0" stroke-width="2" stroke="#4e79a7" />
<circle cx="556.469769536207" cy="-576.8699654775603" r="4" fill-opacity="0" stroke-width="2" stroke="#4e79a7" />
<circle cx="536.5059995932479" cy="-635.5216881594375" r="4" fill-opacity="0" stroke-width="2" stroke="#4e79a7" />
<circle cx="499.4311717861205" cy="-644.3484272381608" r="4" fill-opacity="0" stroke-width="2" stroke="#4e79a7" />
<circle cx="556.2517917844126" cy="-572.2669735327963" r="4" fill-opacity="0" stroke-width="2" stroke="#4e79a7" />
<circle cx="535.6924954240391" cy="-635.4784648902296" r="4" fill-opacity="0" stroke-width="2" stroke="#4e79a7" />
<circle cx="498.0702823481616" cy="-645.4922997058319" r="4" fill-opacity="0" stroke-width="2" stroke="#4e79a7" />
<circle cx="537.571072115188" cy="-581.9502421105362" r="4" fill-opacity="0" stroke-width="2" stroke="#b07aa1" />
<circle cx="513.5760379885548" cy="-655.7491884503678" r="4" fill-opacity="0" stroke-width="2" stroke="#b07aa1" />
<circle cx="475.74430112760604" cy="-660.4589585172106" r="4" fill-opacity="0" stroke-width="2" stroke="#b07aa1" />
<circle cx="537.2755899071689" cy="-584.2492066143308" r="4" fill-opacity="0" stroke-width="2" stroke="#b07aa1" />
<circle cx="513.7197597012502" cy="-654.5609839426032" r="4" fill-opacity="0" stroke-width="2" stroke="#b07aa1" />
<circle cx="475.68049977688526" cy="-659.2233009708735" r="4" fill-opacity="0" stroke-width="2" stroke="#b07aa1" />
<circle cx="537.4800637958532" cy="-584.268537074148" r="4" fill-opacity="0" stroke-width="2" stroke="#b07aa1" />
<circle cx="514.4133170929761" cy="-652.2021167634003" r="4" fill-opacity="0" stroke-width="2" stroke="#b07aa1" />
<circle cx="475.94710797436505" cy="-660.465937169079" r="4" fill-opacity="0" stroke-width="2" stroke="#b07aa1" />
<circle cx="537.2755899071689" cy="-584.2492066143308" r="4" fill-opacity="0" stroke-width="2" stroke="#b07aa1" />
<circle cx="515.1072124756334" cy="-649.8464687819854" r="4" fill-opacity="0" stroke-width="2" stroke="#b07aa1" />
<circle cx="476.22525154170717" cy="-658.0098800282287" r="4" fill-opacity="0" stroke-width="2" stroke="#b07aa1" />
<circle cx="537.0711160184844" cy="-584.229869695957" r="4" fill-opacity="0" stroke-width="2" stroke="#b07aa1" />
<circle cx="514.7602225199984" cy="-651.0238907849831" r="4" fill-opacity="0" stroke-width="2" stroke="#b07aa1" />
<circle cx="475.68049977688526" cy="-659.2233009708735" r="4" fill-opacity="0" stroke-width="2" stroke="#b07aa1" />
<circle cx="481.4363968350579" cy="-656.9722514927992" r="4" fill-opacity="0" stroke-width="2" stroke="#e15759" />
<circle cx="474.3355650233313" cy="-656.7061318254105" r="4" fill-opacity="0" stroke-width="2" stroke="#e15759" />
<circle cx="439.1727493917275" cy="-661.7067833698029" r="4" fill-opacity="0" stroke-width="2" stroke="#e15759" />
<circle cx="481.2335159261513" cy="-656.9646934832251" r="4" fill-opacity="0" stroke-width="2" stroke="#e15759" />
<circle cx="474.3355650233313" cy="-656.7061318254105" r="4" fill-opacity="0" stroke-width="2" stroke="#e15759" />
<circle cx="439.1727493917275" cy="-661.7067833698029" r="4" fill-opacity="0" stroke-width="2" stroke="#e15759" />
<circle cx="481.63927774396427" cy="-656.9798068481123" r="4" fill-opacity="0" stroke-width="2" stroke="#e15759" />
<circle cx="474.3355650233313" cy="-656.7061318254105" r="4" fill-opacity="0" stroke-width="2" stroke="#e15759" />
<circle cx="439.2409682520375" cy="-662.9832239241432" r="4" fill-opacity="0" stroke-width="2" stroke="#e15759" />
<circle cx="481.2335159261513" cy="-656.9646934832251" r="4" fill-opacity="0" stroke-width="2" stroke="#e15759" />
<circle cx="474.5384459322377" cy="-656.7137809187276" r="4" fill-opacity="0" stroke-width="2" stroke="#e15759" />
<circle cx="439.03823541337226" cy="-662.9764727339046" r="4" fill-opacity="0" stroke-width="2" stroke="#e15759" />
<circle cx="481.2335159261513" cy="-656.9646934832251" r="4" fill-opacity="0" stroke-width="2" stroke="#e15759" />
<circle cx="474.5384459322377" cy="-656.7137809187276" r="4" fill-opacity="0" stroke-width="2" stroke="#e15759" />
<circle cx="438.7693056062264" cy="-665.5172413793103" r="4" fill-opacity="0" stroke-width="2" stroke="#e15759" />
<circle cx="439.1084093211752" cy="-668.0773440350238" r="4" fill-opacity="0" stroke-width="2" stroke="#76b7b2" />
<circle cx="433.43465045592706" cy="-667.913458012468" r="4" fill-opacity="0" stroke-width="2" stroke="#76b7b2" />
<circle cx="409.5955912148473" cy="-668.5157421289358" r="4" fill-opacity="0" stroke-width="2" stroke="#76b7b2" />
<circle cx="438.70314083080046" cy="-668.065693430657" r="4" fill-opacity="0" stroke-width="2" stroke="#76b7b2" />
<circle cx="433.23201621073963" cy="-667.9075738125805" r="4" fill-opacity="0" stroke-width="2" stroke="#76b7b2" />
<circle cx="409.5955912148473" cy="-668.5157421289358" r="4" fill-opacity="0" stroke-width="2" stroke="#76b7b2" />
<circle cx="438.9057750759879" cy="-668.0715197956574" r="4" fill-opacity="0" stroke-width="2" stroke="#76b7b2" />
<circle cx="433.23201621073963" cy="-667.9075738125805" r="4" fill-opacity="0" stroke-width="2" stroke="#76b7b2" />
<circle cx="409.79820082664725" cy="-668.5216413715568" r="4" fill-opacity="0" stroke-width="2" stroke="#76b7b2" />
<circle cx="438.29787234042556" cy="-668.0540343190949" r="4" fill-opacity="0" stroke-width="2" stroke="#76b7b2" />
<circle cx="432.8267477203647" cy="-667.8957989359751" r="4" fill-opacity="0" stroke-width="2" stroke="#76b7b2" />
<circle cx="409.5955912148473" cy="-668.5157421289358" r="4" fill-opacity="0" stroke-width="2" stroke="#76b7b2" />
<circle cx="437.8266682873465" cy="-670.5936073059363" r="4" fill-opacity="0" stroke-width="2" stroke="#76b7b2" />
<circle cx="432.35687370852077" cy="-670.4478707782673" r="4" fill-opacity="0" stroke-width="2" stroke="#76b7b2" />
<circle cx="409.5365418894831" cy="-671.1340206185569" r="4" fill-opacity="0" stroke-width="2" stroke="#76b7b2" />
<circle cx="387.8832057668165" cy="-674.5551941840445" r="4" fill-opacity="0" stroke-width="2" stroke="#59a14f" />
<circle cx="383.6309885392621" cy="-674.4525547445253" r="4" fill-opacity="0" stroke-width="2" stroke="#59a14f" />
<circle cx="364.5972542825902" cy="-673.9827856025038" r="4" fill-opacity="0" stroke-width="2" stroke="#59a14f" />
<circle cx="387.07325962823467" cy="-674.5357074478271" r="4" fill-opacity="0" stroke-width="2" stroke="#59a14f" />
<circle cx="383.0235289353259" cy="-674.437824332116" r="4" fill-opacity="0" stroke-width="2" stroke="#59a14f" />
<circle cx="363.98979467865377" cy="-673.9675083186529" r="4" fill-opacity="0" stroke-width="2" stroke="#59a14f" />
<circle cx="386.5403304178815" cy="-675.8620689655172" r="4" fill-opacity="0" stroke-width="2" stroke="#59a14f" />
<circle cx="382.693553611921" cy="-675.7738896366084" r="4" fill-opacity="0" stroke-width="2" stroke="#59a14f" />
<circle cx="363.66213151927434" cy="-675.3279812022714" r="4" fill-opacity="0" stroke-width="2" stroke="#59a14f" />
<circle cx="386.5403304178815" cy="-675.8620689655172" r="4" fill-opacity="0" stroke-width="2" stroke="#59a14f" />
<circle cx="382.8960155490768" cy="-675.7785467128024" r="4" fill-opacity="0" stroke-width="2" stroke="#59a14f" />
<circle cx="364.067055393586" cy="-675.3376394597766" r="4" fill-opacity="0" stroke-width="2" stroke="#59a14f" />
<circle cx="386.1354065435698" cy="-675.8528171713301" r="4" fill-opacity="0" stroke-width="2" stroke="#59a14f" />
<circle cx="382.4910916747652" cy="-675.7692307692304" r="4" fill-opacity="0" stroke-width="2" stroke="#59a14f" />
<circle cx="363.86459345643016" cy="-675.3328112764294" r="4" fill-opacity="0" stroke-width="2" stroke="#59a14f" />
<circle cx="547.4410815668015" cy="-596.7517401392108" r="4" fill-opacity="0" stroke-width="2" stroke="#4e79a7" />
<circle cx="533.2764158230679" cy="-640.040309035942" r="4" fill-opacity="0" stroke-width="2" stroke="#4e79a7" />
<circle cx="498.53765537411647" cy="-646.7220204116933" r="4" fill-opacity="0" stroke-width="2" stroke="#4e79a7" />
<circle cx="540.335414371404" cy="-605.4527263631813" r="4" fill-opacity="0" stroke-width="2" stroke="#4e79a7" />
<circle cx="527.2357723577236" cy="-640.9182984469951" r="4" fill-opacity="0" stroke-width="2" stroke="#4e79a7" />
<circle cx="493.80459069672963" cy="-645.2935046891282" r="4" fill-opacity="0" stroke-width="2" stroke="#4e79a7" />
<circle cx="535.7230242231465" cy="-610.9325297170603" r="4" fill-opacity="0" stroke-width="2" stroke="#4e79a7" />
<circle cx="524.3322356384925" cy="-639.5939086294413" r="4" fill-opacity="0" stroke-width="2" stroke="#4e79a7" />
<circle cx="492.11766617909956" cy="-643.9999999999999" r="4" fill-opacity="0" stroke-width="2" stroke="#4e79a7" />
<circle cx="532.485530284503" cy="-615.3794492948284" r="4" fill-opacity="0" stroke-width="2" stroke="#4e79a7" />
<circle cx="521.80628378653" cy="-641.8348312701372" r="4" fill-opacity="0" stroke-width="2" stroke="#4e79a7" />
<circle cx="488.99179462182144" cy="-646.2853156609697" r="4" fill-opacity="0" stroke-width="2" stroke="#4e79a7" />
<circle cx="529.1671762259998" cy="-613.9730639730643" r="4" fill-opacity="0" stroke-width="2" stroke="#4e79a7" />
<circle cx="518.1481933097589" cy="-641.6567443442763" r="4" fill-opacity="0" stroke-width="2" stroke="#4e79a7" />
<circle cx="485.1955647617888" cy="-647.3315835520561" r="4" fill-opacity="0" stroke-width="2" stroke="#4e79a7" />
<circle cx="534.3467778186424" cy="-590.9730363423212" r="4" fill-opacity="0" stroke-width="2" stroke="#b07aa1" />
<circle cx="512.967247047364" cy="-655.7264957264961" r="4" fill-opacity="0" stroke-width="2" stroke="#b07aa1" />
<circle cx="475.54149428084685" cy="-660.4519774011303" r="4" fill-opacity="0" stroke-width="2" stroke="#b07aa1" />
<circle cx="534.1995587153714" cy="-592.1273031825798" r="4" fill-opacity="0" stroke-width="2" stroke="#b07aa1" />
<circle cx="512.9079396005844" cy="-654.5299145299145" r="4" fill-opacity="0" stroke-width="2" stroke="#b07aa1" />
<circle cx="475.27483672061976" cy="-659.2088998763903" r="4" fill-opacity="0" stroke-width="2" stroke="#b07aa1" />
<circle cx="534.4038571545314" cy="-592.1453692848771" r="4" fill-opacity="0" stroke-width="2" stroke="#b07aa1" />
<circle cx="513.1952902963866" cy="-652.1531100478468" r="4" fill-opacity="0" stroke-width="2" stroke="#b07aa1" />
<circle cx="475.33868743408783" cy="-660.44499381953" r="4" fill-opacity="0" stroke-width="2" stroke="#b07aa1" />
<circle cx="534.6081555936912" cy="-592.1634293369052" r="4" fill-opacity="0" stroke-width="2" stroke="#b07aa1" />
<circle cx="513.5420473464085" cy="-650.9736932012298" r="4" fill-opacity="0" stroke-width="2" stroke="#b07aa1" />
<circle cx="475.27483672061976" cy="-659.2088998763903" r="4" fill-opacity="0" stroke-width="2" stroke="#b07aa1" />
<circle cx="534.6081555936912" cy="-592.1634293369052" r="4" fill-opacity="0" stroke-width="2" stroke="#b07aa1" />
<circle cx="513.1952902963866" cy="-652.1531100478468" r="4" fill-opacity="0" stroke-width="2" stroke="#b07aa1" />
<circle cx="474.73026689381027" cy="-660.4240282685511" r="4" fill-opacity="0" stroke-width="2" stroke="#b07aa1" />
<circle cx="481.2335159261513" cy="-656.9646934832251" r="4" fill-opacity="0" stroke-width="2" stroke="#e15759" />
<circle cx="474.1326841144248" cy="-656.6984800282788" r="4" fill-opacity="0" stroke-width="2" stroke="#e15759" />
<circle cx="438.9699918896998" cy="-661.6997993799018" r="4" fill-opacity="0" stroke-width="2" stroke="#e15759" />
<circle cx="481.0306350172448" cy="-656.9571328179904" r="4" fill-opacity="0" stroke-width="2" stroke="#e15759" />
<circle cx="474.1326841144248" cy="-656.6984800282788" r="4" fill-opacity="0" stroke-width="2" stroke="#e15759" />
<circle cx="438.9699918896998" cy="-661.6997993799018" r="4" fill-opacity="0" stroke-width="2" stroke="#e15759" />
<circle cx="481.4363968350579" cy="-656.9722514927992" r="4" fill-opacity="0" stroke-width="2" stroke="#e15759" />
<circle cx="474.1326841144248" cy="-656.6984800282788" r="4" fill-opacity="0" stroke-width="2" stroke="#e15759" />
<circle cx="439.03823541337226" cy="-662.9764727339046" r="4" fill-opacity="0" stroke-width="2" stroke="#e15759" />
<circle cx="481.0306350172448" cy="-656.9571328179904" r="4" fill-opacity="0" stroke-width="2" stroke="#e15759" />
<circle cx="474.3355650233313" cy="-656.7061318254105" r="4" fill-opacity="0" stroke-width="2" stroke="#e15759" />
<circle cx="438.8355025747071" cy="-662.9697190806274" r="4" fill-opacity="0" stroke-width="2" stroke="#e15759" />
<circle cx="481.0306350172448" cy="-656.9571328179904" r="4" fill-opacity="0" stroke-width="2" stroke="#e15759" />
<circle cx="474.3355650233313" cy="-656.7061318254105" r="4" fill-opacity="0" stroke-width="2" stroke="#e15759" />
<circle cx="438.56662207629" cy="-665.5109489051094" r="4" fill-opacity="0" stroke-width="2" stroke="#e15759" />
<circle cx="438.9057750759879" cy="-668.0715197956574" r="4" fill-opacity="0" stroke-width="2" stroke="#76b7b2" />
<circle cx="433.23201621073963" cy="-667.9075738125805" r="4" fill-opacity="0" stroke-width="2" stroke="#76b7b2" />
<circle cx="409.39298160304725" cy="-668.509840674789" r="4" fill-opacity="0" stroke-width="2" stroke="#76b7b2" />
<circle cx="438.50050658561287" cy="-668.0598649388571" r="4" fill-opacity="0" stroke-width="2" stroke="#76b7b2" />
<circle cx="433.02938196555215" cy="-667.9016874541455" r="4" fill-opacity="0" stroke-width="2" stroke="#76b7b2" />
<circle cx="409.39298160304725" cy="-668.509840674789" r="4" fill-opacity="0" stroke-width="2" stroke="#76b7b2" />
<circle cx="438.70314083080046" cy="-668.065693430657" r="4" fill-opacity="0" stroke-width="2" stroke="#76b7b2" />
<circle cx="433.02938196555215" cy="-667.9016874541455" r="4" fill-opacity="0" stroke-width="2" stroke="#76b7b2" />
<circle cx="409.5955912148473" cy="-668.5157421289358" r="4" fill-opacity="0" stroke-width="2" stroke="#76b7b2" />
<circle cx="438.09523809523796" cy="-668.0482015702023" r="4" fill-opacity="0" stroke-width="2" stroke="#76b7b2" />
<circle cx="432.62411347517724" cy="-667.8899082568809" r="4" fill-opacity="0" stroke-width="2" stroke="#76b7b2" />
<circle cx="409.39298160304725" cy="-668.509840674789" r="4" fill-opacity="0" stroke-width="2" stroke="#76b7b2" />
<circle cx="437.6240833029456" cy="-670.5882352941177" r="4" fill-opacity="0" stroke-width="2" stroke="#76b7b2" />
<circle cx="432.15428872411974" cy="-670.4424453827799" r="4" fill-opacity="0" stroke-width="2" stroke="#76b7b2" />
<circle cx="409.3339815264948" cy="-671.1286089238848" r="4" fill-opacity="0" stroke-width="2" stroke="#76b7b2" />
<circle cx="387.68071923217116" cy="-674.5503252965938" r="4" fill-opacity="0" stroke-width="2" stroke="#59a14f" />
<circle cx="383.4285020046167" cy="-674.4476464937559" r="4" fill-opacity="0" stroke-width="2" stroke="#59a14f" />
<circle cx="364.3947677479448" cy="-673.9776951672861" r="4" fill-opacity="0" stroke-width="2" stroke="#59a14f" />
<circle cx="386.8707730935892" cy="-674.5308310991959" r="4" fill-opacity="0" stroke-width="2" stroke="#59a14f" />
<circle cx="382.82104240068026" cy="-674.4329104190696" r="4" fill-opacity="0" stroke-width="2" stroke="#59a14f" />
<circle cx="363.7873081440083" cy="-673.9624119028973" r="4" fill-opacity="0" stroke-width="2" stroke="#59a14f" />
<circle cx="386.3378684807256" cy="-675.8574439547807" r="4" fill-opacity="0" stroke-width="2" stroke="#59a14f" />
<circle cx="382.4910916747652" cy="-675.7692307692304" r="4" fill-opacity="0" stroke-width="2" stroke="#59a14f" />
<circle cx="363.4596695821185" cy="-675.3231492361929" r="4" fill-opacity="0" stroke-width="2" stroke="#59a14f" />
<circle cx="386.3378684807256" cy="-675.8574439547807" r="4" fill-opacity="0" stroke-width="2" stroke="#59a14f" />
<circle cx="382.693553611921" cy="-675.7738896366084" r="4" fill-opacity="0" stroke-width="2" stroke="#59a14f" />
<circle cx="363.86459345643016" cy="-675.3328112764294" r="4" fill-opacity="0" stroke-width="2" stroke="#59a14f" />
<circle cx="385.93294460641397" cy="-675.8481886141458" r="4" fill-opacity="0" stroke-width="2" stroke="#59a14f" />
<circle cx="382.28862973760937" cy="-675.7645701096363" r="4" fill-opacity="0" stroke-width="2" stroke="#59a14f" />
<circle cx="363.66213151927434" cy="-675.3279812022714" r="4" fill-opacity="0" stroke-width="2" stroke="#59a14f" />
<circle cx="531.4796668299851" cy="-598.9084802686821" r="4" fill-opacity="0" stroke-width="2" stroke="#4e79a7" />
<circle cx="518.7578750558874" cy="-641.6865011900715" r="4" fill-opacity="0" stroke-width="2" stroke="#4e79a7" />
<circle cx="485.80480077982213" cy="-647.3592165092687" r="4" fill-opacity="0" stroke-width="2" stroke="#4e79a7" />
<circle cx="513.8464048289082" cy="-608.1145584725538" r="4" fill-opacity="0" stroke-width="2" stroke="#4e79a7" />
<circle cx="502.6209923198829" cy="-643.2954153740086" r="4" fill-opacity="0" stroke-width="2" stroke="#4e79a7" />
<circle cx="471.11869363880083" cy="-645.4481048529935" r="4" fill-opacity="0" stroke-width="2" stroke="#4e79a7" />
<circle cx="503.9536969104101" cy="-613.3425034387898" r="4" fill-opacity="0" stroke-width="2" stroke="#4e79a7" />
<circle cx="494.5738324594562" cy="-640.4823876453233" r="4" fill-opacity="0" stroke-width="2" stroke="#4e79a7" />
<circle cx="464.48886721924265" cy="-642.643391521197" r="4" fill-opacity="0" stroke-width="2" stroke="#4e79a7" />
<circle cx="498.1465640148275" cy="-618.9422744555826" r="4" fill-opacity="0" stroke-width="2" stroke="#4e79a7" />
<circle cx="489.6798309767594" cy="-643.8828860230044" r="4" fill-opacity="0" stroke-width="2" stroke="#4e79a7" />
<circle cx="458.99841598635305" cy="-646.1152882205516" r="4" fill-opacity="0" stroke-width="2" stroke="#4e79a7" />
<circle cx="493.6038458404627" cy="-617.4184594031924" r="4" fill-opacity="0" stroke-width="2" stroke="#4e79a7" />
<circle cx="484.60100763855024" cy="-643.6373183966396" r="4" fill-opacity="0" stroke-width="2" stroke="#4e79a7" />
<circle cx="455.00324886289803" cy="-647.1793029105278" r="4" fill-opacity="0" stroke-width="2" stroke="#4e79a7" />
<circle cx="532.5078664541703" cy="-590.8084535390806" r="4" fill-opacity="0" stroke-width="2" stroke="#b07aa1" />
<circle cx="512.7643167336337" cy="-655.7189263121902" r="4" fill-opacity="0" stroke-width="2" stroke="#b07aa1" />
<circle cx="475.33868743408783" cy="-660.44499381953" r="4" fill-opacity="0" stroke-width="2" stroke="#b07aa1" />
<circle cx="532.360872762932" cy="-591.9644354973998" r="4" fill-opacity="0" stroke-width="2" stroke="#b07aa1" />
<circle cx="512.2990745250852" cy="-654.5065845732854" r="4" fill-opacity="0" stroke-width="2" stroke="#b07aa1" />
<circle cx="474.66634213622166" cy="-659.1872791519438" r="4" fill-opacity="0" stroke-width="2" stroke="#b07aa1" />
<circle cx="532.769469641252" cy="-592.000670803287" r="4" fill-opacity="0" stroke-width="2" stroke="#b07aa1" />
<circle cx="512.3832724319934" cy="-652.1203830369358" r="4" fill-opacity="0" stroke-width="2" stroke="#b07aa1" />
<circle cx="474.5274600470512" cy="-660.4170348118043" r="4" fill-opacity="0" stroke-width="2" stroke="#b07aa1" />
<circle cx="532.9737680804118" cy="-592.0187793427233" r="4" fill-opacity="0" stroke-width="2" stroke="#b07aa1" />
<circle cx="512.729930564015" cy="-650.9401709401708" r="4" fill-opacity="0" stroke-width="2" stroke="#b07aa1" />
<circle cx="474.46351060808894" cy="-659.1800671496729" r="4" fill-opacity="0" stroke-width="2" stroke="#b07aa1" />
<circle cx="532.9737680804118" cy="-592.0187793427233" r="4" fill-opacity="0" stroke-width="2" stroke="#b07aa1" />
<circle cx="512.1802679658953" cy="-652.1121942876691" r="4" fill-opacity="0" stroke-width="2" stroke="#b07aa1" />
<circle cx="473.7162326600145" cy="-660.3890362511053" r="4" fill-opacity="0" stroke-width="2" stroke="#b07aa1" />
<circle cx="481.2335159261513" cy="-656.9646934832251" r="4" fill-opacity="0" stroke-width="2" stroke="#e15759" />
<circle cx="474.1326841144248" cy="-656.6984800282788" r="4" fill-opacity="0" stroke-width="2" stroke="#e15759" />
<circle cx="438.9699918896998" cy="-661.6997993799018" r="4" fill-opacity="0" stroke-width="2" stroke="#e15759" />
<circle cx="481.0306350172448" cy="-656.9571328179904" r="4" fill-opacity="0" stroke-width="2" stroke="#e15759" />
<circle cx="474.1326841144248" cy="-656.6984800282788" r="4" fill-opacity="0" stroke-width="2" stroke="#e15759" />
<circle cx="438.9699918896998" cy="-661.6997993799018" r="4" fill-opacity="0" stroke-width="2" stroke="#e15759" />
<circle cx="481.4363968350579" cy="-656.9722514927992" r="4" fill-opacity="0" stroke-width="2" stroke="#e15759" />
<circle cx="474.1326841144248" cy="-656.6984800282788" r="4" fill-opacity="0" stroke-width="2" stroke="#e15759" />
<circle cx="439.03823541337226" cy="-662.9764727339046" r="4" fill-opacity="0" stroke-width="2" stroke="#e15759" />
<circle cx="481.0306350172448" cy="-656.9571328179904" r="4" fill-opacity="0" stroke-width="2" stroke="#e15759" />
<circle cx="474.3355650233313" cy="-656.7061318254105" r="4" fill-opacity="0" stroke-width="2" stroke="#e15759" />
<circle cx="438.8355025747071" cy="-662.9697190806274" r="4" fill-opacity="0" stroke-width="2" stroke="#e15759" />
<circle cx="481.0306350172448" cy="-656.9571328179904" r="4" fill-opacity="0" stroke-width="2" stroke="#e15759" />
<circle cx="474.3355650233313" cy="-656.7061318254105" r="4" fill-opacity="0" stroke-width="2" stroke="#e15759" />
<circle cx="438.56662207629" cy="-665.5109489051094" r="4" fill-opacity="0" stroke-width="2" stroke="#e15759" />
<circle cx="438.9057750759879" cy="-668.0715197956574" r="4" fill-opacity="0" stroke-width="2" stroke="#76b7b2" />
<circle cx="433.23201621073963" cy="-667.9075738125805" r="4" fill-opacity="0" stroke-width="2" stroke="#76b7b2" />
<circle cx="409.39298160304725" cy="-668.509840674789" r="4" fill-opacity="0" stroke-width="2" stroke="#76b7b2" />
<circle cx="438.50050658561287" cy="-668.0598649388571" r="4" fill-opacity="0" stroke-width="2" stroke="#76b7b2" />
<circle cx="433.02938196555215" cy="-667.9016874541455" r="4" fill-opacity="0" stroke-width="2" stroke="#76b7b2" />
<circle cx="409.39298160304725" cy="-668.509840674789" r="4" fill-opacity="0" stroke-width="2" stroke="#76b7b2" />
<circle cx="438.70314083080046" cy="-668.065693430657" r="4" fill-opacity="0" stroke-width="2" stroke="#76b7b2" />
<circle cx="433.02938196555215" cy="-667.9016874541455" r="4" fill-opacity="0" stroke-width="2" stroke="#76b7b2" />
<circle cx="409.5955912148473" cy="-668.5157421289358" r="4" fill-opacity="0" stroke-width="2" stroke="#76b7b2" />
<circle cx="438.09523809523796" cy="-668.0482015702023" r="4" fill-opacity="0" stroke-width="2" stroke="#76b7b2" />
<circle cx="432.62411347517724" cy="-667.8899082568809" r="4" fill-opacity="0" stroke-width="2" stroke="#76b7b2" />
<circle cx="409.39298160304725" cy="-668.509840674789" r="4" fill-opacity="0" stroke-width="2" stroke="#76b7b2" />
<circle cx="437.6240833029456" cy="-670.5882352941177" r="4" fill-opacity="0" stroke-width="2" stroke="#76b7b2" />
<circle cx="432.15428872411974" cy="-670.4424453827799" r="4" fill-opacity="0" stroke-width="2" stroke="#76b7b2" />
<circle cx="409.3339815264948" cy="-671.1286089238848" r="4" fill-opacity="0" stroke-width="2" stroke="#76b7b2" />
<circle cx="387.68071923217116" cy="-674.5503252965938" r="4" fill-opacity="0" stroke-width="2" stroke="#59a14f" />
<circle cx="383.4285020046167" cy="-674.4476464937559" r="4" fill-opacity="0" stroke-width="2" stroke="#59a14f" />
<circle cx="364.3947677479448" cy="-673.9776951672861" r="4" fill-opacity="0" stroke-width="2" stroke="#59a14f" />
<circle cx="386.8707730935892" cy="-674.5308310991959" r="4" fill-opacity="0" stroke-width="2" stroke="#59a14f" />
<circle cx="382.82104240068026" cy="-674.4329104190696" r="4" fill-opacity="0" stroke-width="2" stroke="#59a14f" />
<circle cx="363.7873081440083" cy="-673.9624119028973" r="4" fill-opacity="0" stroke-width="2" stroke="#59a14f" />
<circle cx="386.3378684807256" cy="-675.8574439547807" r="4" fill-opacity="0" stroke-width="2" stroke="#59a14f" />
<circle cx="382.4910916747652" cy="-675.7692307692304" r="4" fill-opacity="0" stroke-width="2" stroke="#59a14f" />
<circle cx="363.4596695821185" cy="-675.3231492361929" r="4" fill-opacity="0" stroke-width="2" stroke="#59a14f" />
<circle cx="386.3378684807256" cy="-675.8574439547807" r="4" fill-opacity="0" stroke-width="2" stroke="#59a14f" />
<circle cx="382.693553611921" cy="-675.7738896366084" r="4" fill-opacity="0" stroke-width="2" stroke="#59a14f" />
<circle cx="363.86459345643016" cy="-675.3328112764294" r="4" fill-opacity="0" stroke-width="2" stroke="#59a14f" />
<circle cx="385.93294460641397" cy="-675.8481886141458" r="4" fill-opacity="0" stroke-width="2" stroke="#59a14f" />
<circle cx="382.28862973760937" cy="-675.7645701096363" r="4" fill-opacity="0" stroke-width="2" stroke="#59a14f" />
<circle cx="363.66213151927434" cy="-675.3279812022714" r="4" fill-opacity="0" stroke-width="2" stroke="#59a14f" />
</svg>