<?xml version="1.0" encoding="UTF-8"?>
<svg xmlns="http://www.w3.org/2000/svg" xmlns:xlink="http://www.w3.org/1999/xlink"
     width="1000" height="700" viewBox="0 -700 1000 700" viewport-fill="white">
<defs>
</defs>
<rect x="0" y="-700" width="1000" height="700" fill="white" />
<circle cx="736.4642431883449" cy="-302.82519128899327" r="4" fill-opacity="0" stroke-width="2" stroke="#59a14f" />
<circle cx="676.1777686544185" cy="-478.09300604415927" r="4" fill-opacity="0" stroke-width="2" stroke="#edc948" />
<circle cx="606.1719574019257" cy="-515.0943396226415" r="4" fill-opacity="0" stroke-width="2" stroke="#f28e2b" />
<circle cx="739.6491228070175" cy="-289.0089243776418" r="4" fill-opacity="0" stroke-width="2" stroke="#59a14f" />
<circle cx="679.9423690439436" cy="-456.45438898450965" r="4" fill-opacity="0" stroke-width="2" stroke="#edc948" />
<circle cx="609.7402819016417" cy="-488.5388305458316" r="4" fill-opacity="0" stroke-width="2" stroke="#f28e2b" />
<circle cx="739.9999999999999" cy="-289.1054238084057" r="4" fill-opacity="0" stroke-width="2" stroke="#59a14f" />
<circle cx="680.7415036045313" cy="-450.61425061425064" r="4" fill-opacity="0" stroke-width="2" stroke="#edc948" />
<circle cx="610.3940449361469" cy="-484.1409691629955" r="4" fill-opacity="0" stroke-width="2" stroke="#f28e2b" />
<circle cx="742.5759971885434" cy="-277.6215582893965" r="4" fill-opacity="0" stroke-width="2" stroke="#59a14f" />
<circle cx="681.615120274914" cy="-442.23640603903243" r="4" fill-opacity="0" stroke-width="2" stroke="#edc948" />
<circle cx="611.6239316239316" cy="-473.5507246376811" r="4" fill-opacity="0" stroke-width="2" stroke="#f28e2b" />
<circle cx="741.6306600625285" cy="-280.6073396646735" r="4" fill-opacity="0" stroke-width="2" stroke="#59a14f" />
<circle cx="680.5040516412581" cy="-448.86349674407165" r="4" fill-opacity="0" stroke-width="2" stroke="#edc948" />
<circle cx="610.1833828501178" cy="-483.2059090320076" r="4" fill-opacity="0" stroke-width="2" stroke="#f28e2b" />
<circle cx="682.8839995868195" cy="-426.2809512135325" r="4" fill-opacity="0" stroke-width="2" stroke="#59a14f" />
<circle cx="629.854778790949" cy="-583.4528688524591" r="4" fill-opacity="0" stroke-width="2" stroke="#edc948" />
<circle cx="565.9564441751659" cy="-608.5028971836682" r="4" fill-opacity="0" stroke-width="2" stroke="#f28e2b" />
<circle cx="681.5899869334984" cy="-437.11340206185577" r="4" fill-opacity="0" stroke-width="2" stroke="#59a14f" />
<circle cx="630.8123817247905" cy="-578.1829814459376" r="4" fill-opacity="0" stroke-width="2" stroke="#edc948" />
<circle cx="566.1177896757249" cy="-604.7554896941939" r="4" fill-opacity="0" stroke-width="2" stroke="#f28e2b" />
<circle cx="682.0560490256833" cy="-426.9716668710904" r="4" fill-opacity="0" stroke-width="2" stroke="#59a14f" />
<circle cx="630.7941981945431" cy="-573.720573183214" r="4" fill-opacity="0" stroke-width="2" stroke="#edc948" />
<circle cx="566.4915117219078" cy="-601.9660651764075" r="4" fill-opacity="0" stroke-width="2" stroke="#f28e2b" />
<circle cx="681.761914586342" cy="-437.14566204442275" r="4" fill-opacity="0" stroke-width="2" stroke="#59a14f" />
<circle cx="631.0574549389604" cy="-571.9621386543877" r="4" fill-opacity="0" stroke-width="2" stroke="#edc948" />
<circle cx="565.8617089353676" cy="-602.8563729452976" r="4" fill-opacity="0" stroke-width="2" stroke="#f28e2b" />
<circle cx="680.6243124312432" cy="-438.63915499877163" r="4" fill-opacity="0" stroke-width="2" stroke="#59a14f" />
<circle cx="630.3811166345406" cy="-571.8965958535957" r="4" fill-opacity="0" stroke-width="2" stroke="#edc948" />
<circle cx="565.9862570735651" cy="-601.9264448336255" r="4" fill-opacity="0" stroke-width="2" stroke="#f28e2b" />
<circle cx="612.4932578209277" cy="-598.1950396052458" r="4" fill-opacity="0" stroke-width="2" stroke="#59a14f" />
<circle cx="598.4971020353147" cy="-600.7483261126426" r="4" fill-opacity="0" stroke-width="2" stroke="#edc948" />
<circle cx="536.981056025796" cy="-626.5497721938427" r="4" fill-opacity="0" stroke-width="2" stroke="#f28e2b" />
<circle cx="611.9090970395847" cy="-596.3367108339826" r="4" fill-opacity="0" stroke-width="2" stroke="#59a14f" />
<circle cx="597.904453877771" cy="-602.5351372652042" r="4" fill-opacity="0" stroke-width="2" stroke="#edc948" />
<circle cx="536.6918555835432" cy="-627.4962021820187" r="4" fill-opacity="0" stroke-width="2" stroke="#f28e2b" />
<circle cx="611.8305679212194" cy="-594.5180566380881" r="4" fill-opacity="0" stroke-width="2" stroke="#59a14f" />
<circle cx="597.9509992248846" cy="-599.7898607827685" r="4" fill-opacity="0" stroke-width="2" stroke="#edc948" />
<circle cx="536.3560033585222" cy="-627.4761707418155" r="4" fill-opacity="0" stroke-width="2" stroke="#f28e2b" />
<circle cx="611.6226516914568" cy="-593.5949071066649" r="4" fill-opacity="0" stroke-width="2" stroke="#59a14f" />
<circle cx="597.7011494252872" cy="-597.9377380796008" r="4" fill-opacity="0" stroke-width="2" stroke="#edc948" />
<circle cx="536.3560033585222" cy="-627.4761707418155" r="4" fill-opacity="0" stroke-width="2" stroke="#f28e2b" />
<circle cx="611.8698364525375" cy="-595.4273837360354" r="4" fill-opacity="0" stroke-width="2" stroke="#59a14f" />
<circle cx="597.997572815534" cy="-597.0453053184505" r="4" fill-opacity="0" stroke-width="2" stroke="#edc948" />
<circle cx="536.64516995835" cy="-626.5294848777795" r="4" fill-opacity="0" stroke-width="2" stroke="#f28e2b" />
<circle cx="554.0545081829486" cy="-622.8151374897905" r="4" fill-opacity="0" stroke-width="2" stroke="#59a14f" />
<circle cx="544.9506147954041" cy="-625.1131532025781" r="4" fill-opacity="0" stroke-width="2" stroke="#edc948" />
<circle cx="507.7894171367177" cy="-628.6926994906622" r="4" fill-opacity="0" stroke-width="2" stroke="#f28e2b" />
<circle cx="553.4274193548387" cy="-623.7265050394991" r="4" fill-opacity="0" stroke-width="2" stroke="#59a14f" />
<circle cx="544.7064355770522" cy="-627.013307723968" r="4" fill-opacity="0" stroke-width="2" stroke="#edc948" />
<circle cx="507.1675563165138" cy="-629.643261608154" r="4" fill-opacity="0" stroke-width="2" stroke="#f28e2b" />
<circle cx="553.304438396667" cy="-624.6696635335782" r="4" fill-opacity="0" stroke-width="2" stroke="#59a14f" />
<circle cx="544.7826379090237" cy="-625.1028806584359" r="4" fill-opacity="0" stroke-width="2" stroke="#edc948" />
<circle cx="506.7136623027861" cy="-630.604730208186" r="4" fill-opacity="0" stroke-width="2" stroke="#f28e2b" />
<circle cx="553.013505341665" cy="-625.6029431802697" r="4" fill-opacity="0" stroke-width="2" stroke="#59a14f" />
<circle cx="544.2026064758834" cy="-626.9832555586057" r="4" fill-opacity="0" stroke-width="2" stroke="#edc948" />
<circle cx="506.42768435538557" cy="-631.5767105822356" r="4" fill-opacity="0" stroke-width="2" stroke="#f28e2b" />
<circle cx="553.013505341665" cy="-625.6029431802697" r="4" fill-opacity="0" stroke-width="2" stroke="#59a14f" />
<circle cx="544.6605529241829" cy="-626.0529565098092" r="4" fill-opacity="0" stroke-width="2" stroke="#edc948" />
<circle cx="506.5955090121841" cy="-631.5864022662886" r="4" fill-opacity="0" stroke-width="2" stroke="#f28e2b" />
<circle cx="493.86194405312943" cy="-637.8401604124896" r="4" fill-opacity="0" stroke-width="2" stroke="#59a14f" />
<circle cx="487.59221998658626" cy="-639.5161290322582" r="4" fill-opacity="0" stroke-width="2" stroke="#edc948" />
<circle cx="458.3584791792397" cy="-640.0206825232682" r="4" fill-opacity="0" stroke-width="2" stroke="#f28e2b" />
<circle cx="493.358824713222" cy="-637.8134403209631" r="4" fill-opacity="0" stroke-width="2" stroke="#59a14f" />
<circle cx="487.6437648794554" cy="-640.5241935483872" r="4" fill-opacity="0" stroke-width="2" stroke="#edc948" />
<circle cx="458.4129538368702" cy="-641.05480868666" r="4" fill-opacity="0" stroke-width="2" stroke="#f28e2b" />
<circle cx="492.7390414864004" cy="-638.7813620071685" r="4" fill-opacity="0" stroke-width="2" stroke="#59a14f" />
<circle cx="487.4245472837023" cy="-639.5074175428489" r="4" fill-opacity="0" stroke-width="2" stroke="#edc948" />
<circle cx="457.91008749874277" cy="-641.0286727756433" r="4" fill-opacity="0" stroke-width="2" stroke="#f28e2b" />
<circle cx="492.520292480043" cy="-637.7688557499284" r="4" fill-opacity="0" stroke-width="2" stroke="#59a14f" />
<circle cx="487.2052855753429" cy="-638.4903486027083" r="4" fill-opacity="0" stroke-width="2" stroke="#edc948" />
<circle cx="457.6879232884061" cy="-639.9852180339986" r="4" fill-opacity="0" stroke-width="2" stroke="#f28e2b" />
<circle cx="492.520292480043" cy="-637.7688557499284" r="4" fill-opacity="0" stroke-width="2" stroke="#59a14f" />
<circle cx="487.54066472146746" cy="-638.5080645161291" r="4" fill-opacity="0" stroke-width="2" stroke="#edc948" />
<circle cx="457.74246538603364" cy="-641.0199556541021" r="4" fill-opacity="0" stroke-width="2" stroke="#f28e2b" />
<circle cx="701.892799058791" cy="-389.6218436631629" r="4" fill-opacity="0" stroke-width="2" stroke="#59a14f" />
<circle cx="649.2031197015938" cy="-549.9558693733449" r="4" fill-opacity="0" stroke-width="2" stroke="#edc948" />
<circle cx="587.3884833738848" cy="-574.0407515215666" r="4" fill-opacity="0" stroke-width="2" stroke="#f28e2b" />
<circle cx="702.0406749125178" cy="-379.5893719806761" r="4" fill-opacity="0" stroke-width="2" stroke="#59a14f" />
<circle cx="652.7990211073721" cy="-530.2123916048764" r="4" fill-opacity="0" stroke-width="2" stroke="#edc948" />
<circle cx="590.147282884713" cy="-556.8412719356112" r="4" fill-opacity="0" stroke-width="2" stroke="#f28e2b" />
<circle cx="705.2496443565456" cy="-368.59414528370104" r="4" fill-opacity="0" stroke-width="2" stroke="#59a14f" />
<circle cx="654.1105213012115" cy="-520.7606376302249" r="4" fill-opacity="0" stroke-width="2" stroke="#edc948" />
<circle cx="588.1974757215849" cy="-562.1464446206711" r="4" fill-opacity="0" stroke-width="2" stroke="#f28e2b" />
<circle cx="706.7111992485126" cy="-347.22155400529226" r="4" fill-opacity="0" stroke-width="2" stroke="#59a14f" />
<circle cx="655.830436856812" cy="-508.77192982456114" r="4" fill-opacity="0" stroke-width="2" stroke="#edc948" />
<circle cx="589.8973472913914" cy="-551.2996437524737" r="4" fill-opacity="0" stroke-width="2" stroke="#f28e2b" />
<circle cx="706.4956730267959" cy="-355.51678498375617" r="4" fill-opacity="0" stroke-width="2" stroke="#59a14f" />
<circle cx="655.3955119692172" cy="-514.819458375125" r="4" fill-opacity="0" stroke-width="2" stroke="#edc948" />
<circle cx="589.683668631037" cy="-554.0319387620431" r="4" fill-opacity="0" stroke-width="2" stroke="#f28e2b" />
<circle cx="661.2842401179335" cy="-458.3499501495515" r="4" fill-opacity="0" stroke-width="2" stroke="#59a14f" />
<circle cx="622.3997842284481" cy="-598.0670103092787" r="4" fill-opacity="0" stroke-width="2" stroke="#edc948" />
<circle cx="561.8548034567401" cy="-617.6359210170408" r="4" fill-opacity="0" stroke-width="2" stroke="#f28e2b" />
<circle cx="659.7136594053981" cy="-465.88044427804823" r="4" fill-opacity="0" stroke-width="2" stroke="#59a14f" />
<circle cx="621.442061243761" cy="-595.2933591231466" r="4" fill-opacity="0" stroke-width="2" stroke="#edc948" />
<circle cx="561.6779358832038" cy="-613.8490668109275" r="4" fill-opacity="0" stroke-width="2" stroke="#f28e2b" />
<circle cx="658.0362341176068" cy="-466.46257653379996" r="4" fill-opacity="0" stroke-width="2" stroke="#59a14f" />
<circle cx="621.3117518125106" cy="-596.1826154242974" r="4" fill-opacity="0" stroke-width="2" stroke="#edc948" />
<circle cx="560.7574075942555" cy="-615.6740660530589" r="4" fill-opacity="0" stroke-width="2" stroke="#f28e2b" />
<circle cx="659.8185242253039" cy="-468.50118557344314" r="4" fill-opacity="0" stroke-width="2" stroke="#59a14f" />
<circle cx="620.0930797248078" cy="-595.1852329934164" r="4" fill-opacity="0" stroke-width="2" stroke="#edc948" />
<circle cx="560.0403632694247" cy="-614.6803900325024" r="4" fill-opacity="0" stroke-width="2" stroke="#f28e2b" />
<circle cx="657.9748827977962" cy="-473.40332458442714" r="4" fill-opacity="0" stroke-width="2" stroke="#59a14f" />
<circle cx="620.652430590696" cy="-592.5299961295316" r="4" fill-opacity="0" stroke-width="2" stroke="#edc948" />
<circle cx="559.6246973365617" cy="-616.5424739195231" r="4" fill-opacity="0" stroke-width="2" stroke="#f28e2b" />
<circle cx="607.040592892033" cy="-604.1346028433547" r="4" fill-opacity="0" stroke-width="2" stroke="#59a14f" />
<circle cx="595.5003199622781" cy="-605.1066070018423" r="4" fill-opacity="0" stroke-width="2" stroke="#edc948" />
<circle cx="536.1136294953159" cy="-629.3906314771314" r="4" fill-opacity="0" stroke-width="2" stroke="#f28e2b" />
<circle cx="606.6639714304965" cy="-603.1963470319631" r="4" fill-opacity="0" stroke-width="2" stroke="#59a14f" />
<circle cx="594.4034750984948" cy="-606.8633908575945" r="4" fill-opacity="0" stroke-width="2" stroke="#edc948" />
<circle cx="535.6099526543769" cy="-629.3613491844072" r="4" fill-opacity="0" stroke-width="2" stroke="#f28e2b" />
<circle cx="607.7638495754145" cy="-601.4598540145982" r="4" fill-opacity="0" stroke-width="2" stroke="#59a14f" />
<circle cx="594.6127946127946" cy="-607.7976817702848" r="4" fill-opacity="0" stroke-width="2" stroke="#edc948" />
<circle cx="534.9852269674993" cy="-630.2904564315355" r="4" fill-opacity="0" stroke-width="2" stroke="#f28e2b" />
<circle cx="606.4955191698672" cy="-603.1837160751566" r="4" fill-opacity="0" stroke-width="2" stroke="#59a14f" />
<circle cx="594.1941132888799" cy="-605.9288537549405" r="4" fill-opacity="0" stroke-width="2" stroke="#edc948" />
<circle cx="534.5284855809581" cy="-631.230109312301" r="4" fill-opacity="0" stroke-width="2" stroke="#f28e2b" />
<circle cx="606.4557431180295" cy="-602.2703549060539" r="4" fill-opacity="0" stroke-width="2" stroke="#59a14f" />
<circle cx="594.4034750984948" cy="-606.8633908575945" r="4" fill-opacity="0" stroke-width="2" stroke="#edc948" />
<circle cx="534.6963440427031" cy="-631.239623685667" r="4" fill-opacity="0" stroke-width="2" stroke="#f28e2b" />
<circle cx="552.2638720945855" cy="-627.4611398963727" r="4" fill-opacity="0" stroke-width="2" stroke="#59a14f" />
<circle cx="543.7447523089842" cy="-627.9143210215573" r="4" fill-opacity="0" stroke-width="2" stroke="#edc948" />
<circle cx="507.3850285330648" cy="-630.644019815994" r="4" fill-opacity="0" stroke-width="2" stroke="#f28e2b" />
<circle cx="551.9731318219984" cy="-628.3960720130929" r="4" fill-opacity="0" stroke-width="2" stroke="#59a14f" />
<circle cx="543.5008898290857" cy="-629.8173327839582" r="4" fill-opacity="0" stroke-width="2" stroke="#edc948" />
<circle cx="506.5955090121841" cy="-631.5864022662886" r="4" fill-opacity="0" stroke-width="2" stroke="#f28e2b" />
<circle cx="551.8503593256767" cy="-629.3411540035466" r="4" fill-opacity="0" stroke-width="2" stroke="#59a14f" />
<circle cx="543.4548995903016" cy="-628.8559263837382" r="4" fill-opacity="0" stroke-width="2" stroke="#edc948" />
<circle cx="506.1417639951671" cy="-632.5492418874878" r="4" fill-opacity="0" stroke-width="2" stroke="#f28e2b" />
<circle cx="551.7276115644203" cy="-630.2864938608458" r="4" fill-opacity="0" stroke-width="2" stroke="#59a14f" />
<circle cx="543.0432446951384" cy="-630.7502061005774" r="4" fill-opacity="0" stroke-width="2" stroke="#edc948" />
<circle cx="506.0236920702036" cy="-633.5317460317464" r="4" fill-opacity="0" stroke-width="2" stroke="#f28e2b" />
<circle cx="551.7276115644203" cy="-630.2864938608458" r="4" fill-opacity="0" stroke-width="2" stroke="#59a14f" />
<circle cx="543.5008898290857" cy="-629.8173327839582" r="4" fill-opacity="0" stroke-width="2" stroke="#edc948" />
<circle cx="506.0734178914167" cy="-634.5238095238096" r="4" fill-opacity="0" stroke-width="2" stroke="#f28e2b" />
<circle cx="493.358824713222" cy="-637.8134403209631" r="4" fill-opacity="0" stroke-width="2" stroke="#59a14f" />
<circle cx="487.4245472837023" cy="-639.5074175428489" r="4" fill-opacity="0" stroke-width="2" stroke="#edc948" />
<circle cx="458.3584791792397" cy="-640.0206825232682" r="4" fill-opacity="0" stroke-width="2" stroke="#f28e2b" />
<circle cx="492.9067310594628" cy="-638.790137614679" r="4" fill-opacity="0" stroke-width="2" stroke="#59a14f" />
<circle cx="487.47610904335585" cy="-640.5156272504678" r="4" fill-opacity="0" stroke-width="2" stroke="#edc948" />
<circle cx="458.3584791792397" cy="-640.0206825232682" r="4" fill-opacity="0" stroke-width="2" stroke="#f28e2b" />
<circle cx="492.520292480043" cy="-637.7688557499284" r="4" fill-opacity="0" stroke-width="2" stroke="#59a14f" />
<circle cx="487.2568745808181" cy="-639.4987035436474" r="4" fill-opacity="0" stroke-width="2" stroke="#edc948" />
<circle cx="457.8555622611145" cy="-639.9940880874962" r="4" fill-opacity="0" stroke-width="2" stroke="#f28e2b" />
<circle cx="492.06828319415104" cy="-638.7462343996553" r="4" fill-opacity="0" stroke-width="2" stroke="#59a14f" />
<circle cx="486.92152917505024" cy="-639.481268011527" r="4" fill-opacity="0" stroke-width="2" stroke="#edc948" />
<circle cx="457.52028431569767" cy="-639.9763453577765" r="4" fill-opacity="0" stroke-width="2" stroke="#f28e2b" />
<circle cx="492.06828319415104" cy="-638.7462343996553" r="4" fill-opacity="0" stroke-width="2" stroke="#59a14f" />
<circle cx="487.3729751484052" cy="-638.4992078352301" r="4" fill-opacity="0" stroke-width="2" stroke="#edc948" />
<circle cx="457.5748432733246" cy="-641.0112359550565" r="4" fill-opacity="0" stroke-width="2" stroke="#f28e2b" />
<circle cx="555.0782448603866" cy="-488.76860622462783" r="4" fill-opacity="0" stroke-width="2" stroke="#59a14f" />
<circle cx="566.3600525624178" cy="-599.1381632103419" r="4" fill-opacity="0" stroke-width="2" stroke="#edc948" />
<circle cx="537.2521294145372" cy="-604.4269755895739" r="4" fill-opacity="0" stroke-width="2" stroke="#f28e2b" />
<circle cx="548.2850142915476" cy="-505.58202859087817" r="4" fill-opacity="0" stroke-width="2" stroke="#59a14f" />
<circle cx="564.1985299076133" cy="-592.3803101820632" r="4" fill-opacity="0" stroke-width="2" stroke="#edc948" />
<circle cx="536.4383377113221" cy="-601.4764730233198" r="4" fill-opacity="0" stroke-width="2" stroke="#f28e2b" />
<circle cx="545.53185699221" cy="-507.99672489082985" r="4" fill-opacity="0" stroke-width="2" stroke="#59a14f" />
<circle cx="563.1869984489852" cy="-592.293156971251" r="4" fill-opacity="0" stroke-width="2" stroke="#edc948" />
<circle cx="534.4844996465717" cy="-606.1376831628423" r="4" fill-opacity="0" stroke-width="2" stroke="#f28e2b" />
<circle cx="545.5782312925169" cy="-508.9519650655019" r="4" fill-opacity="0" stroke-width="2" stroke="#59a14f" />
<circle cx="563.0986105490355" cy="-590.4035632339044" r="4" fill-opacity="0" stroke-width="2" stroke="#edc948" />
<circle cx="534.2419653373717" cy="-608.0475663716815" r="4" fill-opacity="0" stroke-width="2" stroke="#f28e2b" />
<circle cx="543.0600870038064" cy="-516.1674189577349" r="4" fill-opacity="0" stroke-width="2" stroke="#59a14f" />
<circle cx="560.7470334412081" cy="-593.9680822288337" r="4" fill-opacity="0" stroke-width="2" stroke="#edc948" />
<circle cx="533.7571904329398" cy="-611.870503597122" r="4" fill-opacity="0" stroke-width="2" stroke="#f28e2b" />
<circle cx="575.5651164378883" cy="-478.2805429864253" r="4" fill-opacity="0" stroke-width="2" stroke="#59a14f" />
<circle cx="594.0257291035226" cy="-605.9164580313612" r="4" fill-opacity="0" stroke-width="2" stroke="#edc948" />
<circle cx="547.0886671370494" cy="-624.2880613362543" r="4" fill-opacity="0" stroke-width="2" stroke="#f28e2b" />
<circle cx="569.3861534786912" cy="-483.7078651685392" r="4" fill-opacity="0" stroke-width="2" stroke="#59a14f" />
<circle cx="587.7955142453021" cy="-605.4555084745762" r="4" fill-opacity="0" stroke-width="2" stroke="#edc948" />
<circle cx="543.5907777105599" cy="-621.1971444261395" r="4" fill-opacity="0" stroke-width="2" stroke="#f28e2b" />
<circle cx="569.7714090754009" cy="-484.70179192297377" r="4" fill-opacity="0" stroke-width="2" stroke="#59a14f" />
<circle cx="585.3962480212858" cy="-604.3512868134787" r="4" fill-opacity="0" stroke-width="2" stroke="#edc948" />
<circle cx="541.2381528533979" cy="-621.0453920220081" r="4" fill-opacity="0" stroke-width="2" stroke="#f28e2b" />
<circle cx="569.3420693420694" cy="-482.7715355805241" r="4" fill-opacity="0" stroke-width="2" stroke="#59a14f" />
<circle cx="583.6280949974735" cy="-602.3645058448459" r="4" fill-opacity="0" stroke-width="2" stroke="#edc948" />
<circle cx="540.5659743227801" cy="-621.0019267822735" r="4" fill-opacity="0" stroke-width="2" stroke="#f28e2b" />
<circle cx="568.3306055646482" cy="-490.0374933047668" r="4" fill-opacity="0" stroke-width="2" stroke="#59a14f" />
<circle cx="583.0806549423893" cy="-601.3953488372097" r="4" fill-opacity="0" stroke-width="2" stroke="#edc948" />
<circle cx="539.4360990691266" cy="-621.8900675024107" r="4" fill-opacity="0" stroke-width="2" stroke="#f28e2b" />
<circle cx="585.731112232879" cy="-611.780313080393" r="4" fill-opacity="0" stroke-width="2" stroke="#59a14f" />
<circle cx="584.0484603735488" cy="-611.6631243358132" r="4" fill-opacity="0" stroke-width="2" stroke="#edc948" />
<circle cx="531.1451201503558" cy="-633.9439356092146" r="4" fill-opacity="0" stroke-width="2" stroke="#f28e2b" />
<circle cx="582.9967689822295" cy="-610.6620579633079" r="4" fill-opacity="0" stroke-width="2" stroke="#59a14f" />
<circle cx="581.5667272360184" cy="-612.4184746439508" r="4" fill-opacity="0" stroke-width="2" stroke="#edc948" />
<circle cx="529.9704658343402" cy="-633.8797055146549" r="4" fill-opacity="0" stroke-width="2" stroke="#f28e2b" />
<circle cx="582.6180618667745" cy="-609.7074468085107" r="4" fill-opacity="0" stroke-width="2" stroke="#59a14f" />
<circle cx="580.5160291990447" cy="-615.1345590194513" r="4" fill-opacity="0" stroke-width="2" stroke="#edc948" />
<circle cx="529.2992347966169" cy="-633.8429464906184" r="4" fill-opacity="0" stroke-width="2" stroke="#f28e2b" />
<circle cx="580.4301726749469" cy="-609.55108565339" r="4" fill-opacity="0" stroke-width="2" stroke="#59a14f" />
<circle cx="579.1279773920064" cy="-614.1104294478524" r="4" fill-opacity="0" stroke-width="2" stroke="#edc948" />
<circle cx="528.1720863116211" cy="-634.7523650528656" r="4" fill-opacity="0" stroke-width="2" stroke="#f28e2b" />
<circle cx="580.0511681141858" cy="-608.5942704863421" r="4" fill-opacity="0" stroke-width="2" stroke="#59a14f" />
<circle cx="578.9597631543534" cy="-614.0989729225025" r="4" fill-opacity="0" stroke-width="2" stroke="#edc948" />
<circle cx="528.3398771770865" cy="-634.7614410905552" r="4" fill-opacity="0" stroke-width="2" stroke="#f28e2b" />
<circle cx="542.0821163594857" cy="-631.6556655665568" r="4" fill-opacity="0" stroke-width="2" stroke="#59a14f" />
<circle cx="538.1000335683116" cy="-632.3951434878585" r="4" fill-opacity="0" stroke-width="2" stroke="#edc948" />
<circle cx="504.8990000671096" cy="-634.4587884806353" r="4" fill-opacity="0" stroke-width="2" stroke="#f28e2b" />
<circle cx="540.2819738167169" cy="-632.5161823440301" r="4" fill-opacity="0" stroke-width="2" stroke="#59a14f" />
<circle cx="536.9717718927265" cy="-633.2965060074573" r="4" fill-opacity="0" stroke-width="2" stroke="#edc948" />
<circle cx="503.7745344740815" cy="-635.3876739562627" r="4" fill-opacity="0" stroke-width="2" stroke="#f28e2b" />
<circle cx="539.9462907015777" cy="-632.4975891996146" r="4" fill-opacity="0" stroke-width="2" stroke="#59a14f" />
<circle cx="536.6361225791293" cy="-633.2780770824702" r="4" fill-opacity="0" stroke-width="2" stroke="#edc948" />
<circle cx="503.27126321087064" cy="-635.3601363830087" r="4" fill-opacity="0" stroke-width="2" stroke="#f28e2b" />
<circle cx="539.8247910583023" cy="-633.4527418021493" r="4" fill-opacity="0" stroke-width="2" stroke="#59a14f" />
<circle cx="536.3471606927105" cy="-634.2268895951363" r="4" fill-opacity="0" stroke-width="2" stroke="#edc948" />
<circle cx="503.03579215725745" cy="-637.3312491118373" r="4" fill-opacity="0" stroke-width="2" stroke="#f28e2b" />
<circle cx="539.5355081218956" cy="-634.3991179713338" r="4" fill-opacity="0" stroke-width="2" stroke="#59a14f" />
<circle cx="536.6827762115721" cy="-634.2450614725793" r="4" fill-opacity="0" stroke-width="2" stroke="#edc948" />
<circle cx="503.08579861809886" cy="-638.3259911894276" r="4" fill-opacity="0" stroke-width="2" stroke="#f28e2b" />
<circle cx="489.10127431254193" cy="-639.5944196749605" r="4" fill-opacity="0" stroke-width="2" stroke="#59a14f" />
<circle cx="485.1289273379606" cy="-640.3954394573533" r="4" fill-opacity="0" stroke-width="2" stroke="#edc948" />
<circle cx="456.90435482248813" cy="-640.9763313609467" r="4" fill-opacity="0" stroke-width="2" stroke="#f28e2b" />
<circle cx="487.7598926894701" cy="-639.5248380129586" r="4" fill-opacity="0" stroke-width="2" stroke="#59a14f" />
<circle cx="484.17488097632935" cy="-641.3549039433775" r="4" fill-opacity="0" stroke-width="2" stroke="#edc948" />
<circle cx="456.2885492089032" cy="-641.977501480166" r="4" fill-opacity="0" stroke-width="2" stroke="#f28e2b" />
<circle cx="486.7538564721664" cy="-639.4725464764377" r="4" fill-opacity="0" stroke-width="2" stroke="#59a14f" />
<circle cx="483.7876806491633" cy="-640.3265424071664" r="4" fill-opacity="0" stroke-width="2" stroke="#edc948" />
<circle cx="455.8986221462336" cy="-640.9238969499555" r="4" fill-opacity="0" stroke-width="2" stroke="#f28e2b" />
<circle cx="486.2508383635145" cy="-639.4463667820067" r="4" fill-opacity="0" stroke-width="2" stroke="#59a14f" />
<circle cx="483.5680751173708" cy="-639.3063583815031" r="4" fill-opacity="0" stroke-width="2" stroke="#edc948" />
<circle cx="455.7310000335245" cy="-640.9151488227451" r="4" fill-opacity="0" stroke-width="2" stroke="#f28e2b" />
<circle cx="486.2508383635145" cy="-639.4463667820067" r="4" fill-opacity="0" stroke-width="2" stroke="#59a14f" />
<circle cx="484.01918368715826" cy="-638.3215369059658" r="4" fill-opacity="0" stroke-width="2" stroke="#edc948" />
<circle cx="455.8986221462336" cy="-640.9238969499555" r="4" fill-opacity="0" stroke-width="2" stroke="#f28e2b" />
<circle cx="233.8505222594056" cy="-522.0230473751603" r="4" fill-opacity="0" stroke-width="2" stroke="#59a14f" />
<circle cx="413.3965499848684" cy="-606.4659806481335" r="4" fill-opacity="0" stroke-width="2" stroke="#edc948" />
<circle cx="439.79286458858735" cy="-608.6682663467305" r="4" fill-opacity="0" stroke-width="2" stroke="#f28e2b" />
<circle cx="205.3616590794133" cy="-547.73973898241" r="4" fill-opacity="0" stroke-width="2" stroke="#59a14f" />
<circle cx="384.39802200020176" cy="-599.5268138801264" r="4" fill-opacity="0" stroke-width="2" stroke="#edc948" />
<circle cx="421.1305020343657" cy="-607.1221595241727" r="4" fill-opacity="0" stroke-width="2" stroke="#f28e2b" />
<circle cx="189.23470762597685" cy="-559.6220593906675" r="4" fill-opacity="0" stroke-width="2" stroke="#59a14f" />
<circle cx="374.76877543470215" cy="-600.8277618592806" r="4" fill-opacity="0" stroke-width="2" stroke="#edc948" />
<circle cx="412.63440860215053" cy="-613.8991389913896" r="4" fill-opacity="0" stroke-width="2" stroke="#f28e2b" />
<circle cx="184.34700612918428" cy="-561.5205585725367" r="4" fill-opacity="0" stroke-width="2" stroke="#59a14f" />
<circle cx="368.987554658594" cy="-599.1677336747762" r="4" fill-opacity="0" stroke-width="2" stroke="#edc948" />
<circle cx="409.8377179719787" cy="-614.7525820872515" r="4" fill-opacity="0" stroke-width="2" stroke="#f28e2b" />
<circle cx="180.4658050619279" cy="-569.0058479532162" r="4" fill-opacity="0" stroke-width="2" stroke="#59a14f" />
<circle cx="364.430996806186" cy="-604.3254542530952" r="4" fill-opacity="0" stroke-width="2" stroke="#edc948" />
<circle cx="407.83286309283886" cy="-617.8251467408095" r="4" fill-opacity="0" stroke-width="2" stroke="#f28e2b" />
<circle cx="407.99319727891157" cy="-485.2431354502222" r="4" fill-opacity="0" stroke-width="2" stroke="#59a14f" />
<circle cx="559.8182735991923" cy="-609.9404117009751" r="4" fill-opacity="0" stroke-width="2" stroke="#edc948" />
<circle cx="529.0877334408169" cy="-626.0700389105061" r="4" fill-opacity="0" stroke-width="2" stroke="#f28e2b" />
<circle cx="398.1575905907947" cy="-489.75073540795825" r="4" fill-opacity="0" stroke-width="2" stroke="#59a14f" />
<circle cx="547.7031802120142" cy="-609.0536105032825" r="4" fill-opacity="0" stroke-width="2" stroke="#edc948" />
<circle cx="521.2176191916136" cy="-622.6573426573423" r="4" fill-opacity="0" stroke-width="2" stroke="#f28e2b" />
<circle cx="395.37650858405567" cy="-488.14216979667844" r="4" fill-opacity="0" stroke-width="2" stroke="#59a14f" />
<circle cx="541.6919038966283" cy="-609.5656954370536" r="4" fill-opacity="0" stroke-width="2" stroke="#edc948" />
<circle cx="516.8984747698717" cy="-623.3576642335763" r="4" fill-opacity="0" stroke-width="2" stroke="#f28e2b" />
<circle cx="393.24429945288347" cy="-492.03608648312314" r="4" fill-opacity="0" stroke-width="2" stroke="#59a14f" />
<circle cx="537.3922994076468" cy="-607.3231278444356" r="4" fill-opacity="0" stroke-width="2" stroke="#edc948" />
<circle cx="513.538937042263" cy="-623.141891891892" r="4" fill-opacity="0" stroke-width="2" stroke="#f28e2b" />
<circle cx="393.1519413023539" cy="-496.3279912867587" r="4" fill-opacity="0" stroke-width="2" stroke="#59a14f" />
<circle cx="535.6625938267865" cy="-606.2284214887444" r="4" fill-opacity="0" stroke-width="2" stroke="#edc948" />
<circle cx="512.2442809634184" cy="-624.0417136414884" r="4" fill-opacity="0" stroke-width="2" stroke="#f28e2b" />
<circle cx="551.7090566545552" cy="-612.2017723244714" r="4" fill-opacity="0" stroke-width="2" stroke="#59a14f" />
<circle cx="565.8828674269182" cy="-614.139371883003" r="4" fill-opacity="0" stroke-width="2" stroke="#edc948" />
<circle cx="523.354137306221" cy="-635.4658471853608" r="4" fill-opacity="0" stroke-width="2" stroke="#f28e2b" />
<circle cx="547.2129713728259" cy="-612.8352490421456" r="4" fill-opacity="0" stroke-width="2" stroke="#59a14f" />
<circle cx="562.8994281870165" cy="-614.8763680583705" r="4" fill-opacity="0" stroke-width="2" stroke="#edc948" />
<circle cx="521.6763975572109" cy="-635.3755770037765" r="4" fill-opacity="0" stroke-width="2" stroke="#f28e2b" />
<circle cx="544.475844435473" cy="-611.6840373011521" r="4" fill-opacity="0" stroke-width="2" stroke="#59a14f" />
<circle cx="562.1468926553673" cy="-616.7117360735531" r="4" fill-opacity="0" stroke-width="2" stroke="#edc948" />
<circle cx="521.0053016576068" cy="-635.3393981805459" r="4" fill-opacity="0" stroke-width="2" stroke="#f28e2b" />
<circle cx="541.9988562586201" cy="-612.4639274426273" r="4" fill-opacity="0" stroke-width="2" stroke="#59a14f" />
<circle cx="560.9255709144721" cy="-615.6854784138585" r="4" fill-opacity="0" stroke-width="2" stroke="#edc948" />
<circle cx="520.2147290723033" cy="-636.2745098039218" r="4" fill-opacity="0" stroke-width="2" stroke="#f28e2b" />
<circle cx="541.662461735123" cy="-612.4398625429551" r="4" fill-opacity="0" stroke-width="2" stroke="#59a14f" />
<circle cx="561.0937342346887" cy="-615.6968876860625" r="4" fill-opacity="0" stroke-width="2" stroke="#edc948" />
<circle cx="520.0469719845663" cy="-636.2655834150441" r="4" fill-opacity="0" stroke-width="2" stroke="#f28e2b" />
<circle cx="529.0840130231934" cy="-632.8607172643866" r="4" fill-opacity="0" stroke-width="2" stroke="#59a14f" />
<circle cx="531.3129279097865" cy="-633.953101151658" r="4" fill-opacity="0" stroke-width="2" stroke="#edc948" />
<circle cx="500.6374127750939" cy="-636.2095970383025" r="4" fill-opacity="0" stroke-width="2" stroke="#f28e2b" />
<circle cx="526.4465028862934" cy="-633.6862635831709" r="4" fill-opacity="0" stroke-width="2" stroke="#59a14f" />
<circle cx="530.8567401590657" cy="-634.8972792892837" r="4" fill-opacity="0" stroke-width="2" stroke="#edc948" />
<circle cx="499.5136023615444" cy="-637.1436716077535" r="4" fill-opacity="0" stroke-width="2" stroke="#f28e2b" />
<circle cx="525.4396563297087" cy="-633.630786391523" r="4" fill-opacity="0" stroke-width="2" stroke="#59a14f" />
<circle cx="530.1855766972045" cy="-634.861111111111" r="4" fill-opacity="0" stroke-width="2" stroke="#edc948" />
<circle cx="498.8427090671229" cy="-637.1078151739871" r="4" fill-opacity="0" stroke-width="2" stroke="#f28e2b" />
<circle cx="524.6484781368503" cy="-634.5611832007818" r="4" fill-opacity="0" stroke-width="2" stroke="#59a14f" />
<circle cx="529.7295483524595" cy="-635.806586077532" r="4" fill-opacity="0" stroke-width="2" stroke="#edc948" />
<circle cx="498.60817654358254" cy="-639.0870185449355" r="4" fill-opacity="0" stroke-width="2" stroke="#f28e2b" />
<circle cx="524.3607811556271" cy="-635.519888346127" r="4" fill-opacity="0" stroke-width="2" stroke="#59a14f" />
<circle cx="529.5617743775584" cy="-635.7976653696501" r="4" fill-opacity="0" stroke-width="2" stroke="#edc948" />
<circle cx="498.4909456740442" cy="-640.0770438008273" r="4" fill-opacity="0" stroke-width="2" stroke="#f28e2b" />
<circle cx="483.89151496865463" cy="-642.3493714781101" r="4" fill-opacity="0" stroke-width="2" stroke="#59a14f" />
<circle cx="482.3194234958941" cy="-644.2917088699177" r="4" fill-opacity="0" stroke-width="2" stroke="#edc948" />
<circle cx="454.9445393921115" cy="-645.0125981917886" r="4" fill-opacity="0" stroke-width="2" stroke="#f28e2b" />
<circle cx="481.88004961614536" cy="-642.2492401215804" r="4" fill-opacity="0" stroke-width="2" stroke="#59a14f" />
<circle cx="481.649069884364" cy="-644.2594469378889" r="4" fill-opacity="0" stroke-width="2" stroke="#edc948" />
<circle cx="454.4418752722764" cy="-644.988137603796" r="4" fill-opacity="0" stroke-width="2" stroke="#f28e2b" />
<circle cx="480.8743169398906" cy="-642.1990438939591" r="4" fill-opacity="0" stroke-width="2" stroke="#59a14f" />
<circle cx="481.2617323679271" cy="-643.2295438088341" r="4" fill-opacity="0" stroke-width="2" stroke="#edc948" />
<circle cx="453.7716564458296" cy="-644.9554896142432" r="4" fill-opacity="0" stroke-width="2" stroke="#f28e2b" />
<circle cx="480.5390727144724" cy="-642.1822924213881" r="4" fill-opacity="0" stroke-width="2" stroke="#59a14f" />
<circle cx="480.9265218557254" cy="-643.2130957554685" r="4" fill-opacity="0" stroke-width="2" stroke="#edc948" />
<circle cx="453.4365470326061" cy="-644.9391510834072" r="4" fill-opacity="0" stroke-width="2" stroke="#f28e2b" />
<circle cx="480.2038284890542" cy="-642.1655312364111" r="4" fill-opacity="0" stroke-width="2" stroke="#59a14f" />
<circle cx="481.37718327801804" cy="-642.2241529105128" r="4" fill-opacity="0" stroke-width="2" stroke="#edc948" />
<circle cx="453.60410173921787" cy="-644.9473215610622" r="4" fill-opacity="0" stroke-width="2" stroke="#f28e2b" />
<path d="M8,-475.90797546012277 L0,-479.90797546012277 L8,-483.90797546012277" fill-opacity="0" stroke-width="1" stroke="#59a14f" />
<circle cx="318.3497950681985" cy="-608.1117468865704" r="4" fill-opacity="0" stroke-width="2" stroke="#edc948" />
<circle cx="380.14584803575633" cy="-610.1568689589603" r="4" fill-opacity="0" stroke-width="2" stroke="#f28e2b" />
<path d="M8,-509.8398914518316 L0,-513.8398914518316 L8,-517.8398914518316" fill-opacity="0" stroke-width="1" stroke="#59a14f" />
<circle cx="275.82266142314535" cy="-597.9089790897906" r="4" fill-opacity="0" stroke-width="2" stroke="#edc948" />
<circle cx="348.9950930967265" cy="-606.3010120796607" r="4" fill-opacity="0" stroke-width="2" stroke="#f28e2b" />
<path d="M8,-529.2409972299166 L0,-533.2409972299166 L8,-537.2409972299166" fill-opacity="0" stroke-width="1" stroke="#59a14f" />
<circle cx="256.7385897694428" cy="-597.0772816926661" r="4" fill-opacity="0" stroke-width="2" stroke="#edc948" />
<circle cx="330.4785894206548" cy="-612.689173457509" r="4" fill-opacity="0" stroke-width="2" stroke="#f28e2b" />
<path d="M8,-530.2618384401115 L0,-534.2618384401115 L8,-538.2618384401115" fill-opacity="0" stroke-width="1" stroke="#59a14f" />
<circle cx="249.420304466176" cy="-597.5239472257367" r="4" fill-opacity="0" stroke-width="2" stroke="#edc948" />
<circle cx="323.4938545234737" cy="-613.247362250879" r="4" fill-opacity="0" stroke-width="2" stroke="#f28e2b" />
<path d="M8,-545.1885842193618 L0,-549.1885842193618 L8,-553.1885842193618" fill-opacity="0" stroke-width="1" stroke="#59a14f" />
<circle cx="243.7525191455059" cy="-603.2199381480809" r="4" fill-opacity="0" stroke-width="2" stroke="#edc948" />
<circle cx="318.2275931520645" cy="-617.4806332098348" r="4" fill-opacity="0" stroke-width="2" stroke="#f28e2b" />
<circle cx="236.91095029388782" cy="-459.80392156862746" r="4" fill-opacity="0" stroke-width="2" stroke="#59a14f" />
<circle cx="542.1504290762242" cy="-608.6412968814394" r="4" fill-opacity="0" stroke-width="2" stroke="#edc948" />
<circle cx="524.72121456402" cy="-625.8019525801953" r="4" fill-opacity="0" stroke-width="2" stroke="#f28e2b" />
<circle cx="234.3214152320803" cy="-466.6666666666667" r="4" fill-opacity="0" stroke-width="2" stroke="#59a14f" />
<circle cx="530.2036008749789" cy="-607.7413984461706" r="4" fill-opacity="0" stroke-width="2" stroke="#edc948" />
<circle cx="515.5546596788281" cy="-623.2715008431701" r="4" fill-opacity="0" stroke-width="2" stroke="#f28e2b" />
<circle cx="236.96006519967395" cy="-466.0733745005448" r="4" fill-opacity="0" stroke-width="2" stroke="#59a14f" />
<circle cx="523.6893465239923" cy="-608.2159296973082" r="4" fill-opacity="0" stroke-width="2" stroke="#edc948" />
<circle cx="510.68332997379565" cy="-622.9575278679274" r="4" fill-opacity="0" stroke-width="2" stroke="#f28e2b" />
<circle cx="238.81306443946482" cy="-469.03553299492347" r="4" fill-opacity="0" stroke-width="2" stroke="#59a14f" />
<circle cx="518.929833417466" cy="-606.8757877048031" r="4" fill-opacity="0" stroke-width="2" stroke="#edc948" />
<circle cx="506.9878384734261" cy="-622.7176220806793" r="4" fill-opacity="0" stroke-width="2" stroke="#f28e2b" />
<circle cx="242.00773773162283" cy="-474.80571118742074" r="4" fill-opacity="0" stroke-width="2" stroke="#59a14f" />
<circle cx="517.7032848680669" cy="-605.8031959629942" r="4" fill-opacity="0" stroke-width="2" stroke="#edc948" />
<circle cx="505.0220027545432" cy="-623.5786190273642" r="4" fill-opacity="0" stroke-width="2" stroke="#f28e2b" />
<circle cx="539.93406001884" cy="-611.3558155540261" r="4" fill-opacity="0" stroke-width="2" stroke="#59a14f" />
<circle cx="552.5952837487806" cy="-613.2152588555855" r="4" fill-opacity="0" stroke-width="2" stroke="#edc948" />
<circle cx="520.8375276827057" cy="-635.3303471444566" r="4" fill-opacity="0" stroke-width="2" stroke="#f28e2b" />
<circle cx="534.429979479934" cy="-611.9192477876107" r="4" fill-opacity="0" stroke-width="2" stroke="#59a14f" />
<circle cx="550.7904473595695" cy="-614.0401146131807" r="4" fill-opacity="0" stroke-width="2" stroke="#edc948" />
<circle cx="519.6631098583987" cy="-635.2669188734762" r="4" fill-opacity="0" stroke-width="2" stroke="#f28e2b" />
<circle cx="531.6915623738392" cy="-610.7538802660757" r="4" fill-opacity="0" stroke-width="2" stroke="#59a14f" />
<circle cx="550.208501479688" cy="-615.9044368600682" r="4" fill-opacity="0" stroke-width="2" stroke="#edc948" />
<circle cx="518.8242399838937" cy="-635.2215367358382" r="4" fill-opacity="0" stroke-width="2" stroke="#f28e2b" />
<circle cx="529.3840616274766" cy="-611.5523465703974" r="4" fill-opacity="0" stroke-width="2" stroke="#59a14f" />
<circle cx="549.1541384993106" cy="-614.8790818417815" r="4" fill-opacity="0" stroke-width="2" stroke="#edc948" />
<circle cx="518.0338869317228" cy="-636.1582713624242" r="4" fill-opacity="0" stroke-width="2" stroke="#f28e2b" />
<circle cx="529.3840616274766" cy="-611.5523465703974" r="4" fill-opacity="0" stroke-width="2" stroke="#59a14f" />
<circle cx="549.9949551003936" cy="-614.9371927908245" r="4" fill-opacity="0" stroke-width="2" stroke="#edc948" />
<circle cx="517.866129843986" cy="-636.1493123772099" r="4" fill-opacity="0" stroke-width="2" stroke="#f28e2b" />
<circle cx="527.237941798409" cy="-632.7579005986356" r="4" fill-opacity="0" stroke-width="2" stroke="#59a14f" />
<circle cx="528.6280037588938" cy="-633.8061465721039" r="4" fill-opacity="0" stroke-width="2" stroke="#edc948" />
<circle cx="497.7858293075684" cy="-636.0548101627176" r="4" fill-opacity="0" stroke-width="2" stroke="#f28e2b" />
<circle cx="524.4328097731237" cy="-633.5752162991907" r="4" fill-opacity="0" stroke-width="2" stroke="#59a14f" />
<circle cx="527.8365045806906" cy="-634.7342053993873" r="4" fill-opacity="0" stroke-width="2" stroke="#edc948" />
<circle cx="496.9977525074637" cy="-637.0089987144694" r="4" fill-opacity="0" stroke-width="2" stroke="#f28e2b" />
<circle cx="523.4259632165391" cy="-633.5195530726255" r="4" fill-opacity="0" stroke-width="2" stroke="#59a14f" />
<circle cx="527.1653411188295" cy="-634.6978557504871" r="4" fill-opacity="0" stroke-width="2" stroke="#edc948" />
<circle cx="496.3268592130421" cy="-636.9729884236101" r="4" fill-opacity="0" stroke-width="2" stroke="#f28e2b" />
<circle cx="522.802778616732" cy="-634.4605925097817" r="4" fill-opacity="0" stroke-width="2" stroke="#59a14f" />
<circle cx="526.8773907791423" cy="-635.6545961002788" r="4" fill-opacity="0" stroke-width="2" stroke="#edc948" />
<circle cx="496.26052252070974" cy="-638.965122927387" r="4" fill-opacity="0" stroke-width="2" stroke="#f28e2b" />
<circle cx="522.347493456815" cy="-635.4117153641826" r="4" fill-opacity="0" stroke-width="2" stroke="#59a14f" />
<circle cx="526.7096168042413" cy="-635.6456330965317" r="4" fill-opacity="0" stroke-width="2" stroke="#edc948" />
<circle cx="496.14352783366866" cy="-639.9571122230167" r="4" fill-opacity="0" stroke-width="2" stroke="#f28e2b" />
<circle cx="483.3886486305272" cy="-642.3243712055505" r="4" fill-opacity="0" stroke-width="2" stroke="#59a14f" />
<circle cx="481.649069884364" cy="-644.2594469378889" r="4" fill-opacity="0" stroke-width="2" stroke="#edc948" />
<circle cx="454.4418752722764" cy="-644.988137603796" r="4" fill-opacity="0" stroke-width="2" stroke="#f28e2b" />
<circle cx="481.2095611653089" cy="-642.2157856625635" r="4" fill-opacity="0" stroke-width="2" stroke="#59a14f" />
<circle cx="480.97871627283394" cy="-644.227147616978" r="4" fill-opacity="0" stroke-width="2" stroke="#edc948" />
<circle cx="453.9392111524412" cy="-644.9636552440294" r="4" fill-opacity="0" stroke-width="2" stroke="#f28e2b" />
<circle cx="480.2038284890542" cy="-642.1655312364111" r="4" fill-opacity="0" stroke-width="2" stroke="#59a14f" />
<circle cx="480.5913113435238" cy="-643.1966381683815" r="4" fill-opacity="0" stroke-width="2" stroke="#edc948" />
<circle cx="453.2689923259943" cy="-644.9309781801991" r="4" fill-opacity="0" stroke-width="2" stroke="#f28e2b" />
<circle cx="479.86858426363597" cy="-642.1487603305786" r="4" fill-opacity="0" stroke-width="2" stroke="#59a14f" />
<circle cx="480.08849557522126" cy="-643.1719338938826" r="4" fill-opacity="0" stroke-width="2" stroke="#edc948" />
<circle cx="452.9338829127711" cy="-644.9146250927985" r="4" fill-opacity="0" stroke-width="2" stroke="#f28e2b" />
<circle cx="479.7009621509269" cy="-642.1403712296988" r="4" fill-opacity="0" stroke-width="2" stroke="#59a14f" />
<circle cx="480.5390727144724" cy="-642.1822924213881" r="4" fill-opacity="0" stroke-width="2" stroke="#edc948" />
<circle cx="453.10143761938286" cy="-644.9228028503561" r="4" fill-opacity="0" stroke-width="2" stroke="#f28e2b" />
</svg>