<?xml version="1.0" encoding="UTF-8"?>
<svg xmlns="http://www.w3.org/2000/svg" xmlns:xlink="http://www.w3.org/1999/xlink"
     width="1000" height="700" viewBox="0 -700 1000 700" viewport-fill="white">
<defs>
</defs>
<rect x="0" y="-700" width="1000" height="700" fill="white" />
<circle cx="702.5460493563759" cy="-251.6528925619837" r="4" fill-opacity="0" stroke-width="2" stroke="#59a14f" />
<circle cx="630.7405875051718" cy="-489.7924990333804" r="4" fill-opacity="0" stroke-width="2" stroke="#59a14f" />
<circle cx="571.4481859060172" cy="-520.367368989735" r="4" fill-opacity="0" stroke-width="2" stroke="#59a14f" />
<circle cx="703.747197608626" cy="-246.1389023797958" r="4" fill-opacity="0" stroke-width="2" stroke="#59a14f" />
<circle cx="632.027904406686" cy="-475.6756756756759" r="4" fill-opacity="0" stroke-width="2" stroke="#59a14f" />
<circle cx="572.4204303292776" cy="-508.3097261567518" r="4" fill-opacity="0" stroke-width="2" stroke="#59a14f" />
<circle cx="704.3010752688173" cy="-242.11165048543666" r="4" fill-opacity="0" stroke-width="2" stroke="#59a14f" />
<circle cx="633.0259385901288" cy="-474.9485596707818" r="4" fill-opacity="0" stroke-width="2" stroke="#59a14f" />
<circle cx="573.659409073711" cy="-501.9401778496361" r="4" fill-opacity="0" stroke-width="2" stroke="#59a14f" />
<circle cx="704.2062898457813" cy="-239.56310679611653" r="4" fill-opacity="0" stroke-width="2" stroke="#59a14f" />
<circle cx="632.4697754749568" cy="-473.96114756207373" r="4" fill-opacity="0" stroke-width="2" stroke="#59a14f" />
<circle cx="572.7597826834469" cy="-504.61165048543654" r="4" fill-opacity="0" stroke-width="2" stroke="#59a14f" />
<circle cx="703.2207496080946" cy="-236.73345476624146" r="4" fill-opacity="0" stroke-width="2" stroke="#59a14f" />
<circle cx="632.4697754749568" cy="-473.96114756207373" r="4" fill-opacity="0" stroke-width="2" stroke="#59a14f" />
<circle cx="572.4600309437856" cy="-505.5031022390075" r="4" fill-opacity="0" stroke-width="2" stroke="#59a14f" />
<circle cx="653.5748130988734" cy="-343.24460703923285" r="4" fill-opacity="0" stroke-width="2" stroke="#59a14f" />
<circle cx="590.9464175733934" cy="-551.7976031957392" r="4" fill-opacity="0" stroke-width="2" stroke="#59a14f" />
<circle cx="535.8153489482116" cy="-579.0749512398999" r="4" fill-opacity="0" stroke-width="2" stroke="#59a14f" />
<circle cx="652.7777777777777" cy="-349.1604595379373" r="4" fill-opacity="0" stroke-width="2" stroke="#59a14f" />
<circle cx="590.3012892855921" cy="-556.3624250499671" r="4" fill-opacity="0" stroke-width="2" stroke="#59a14f" />
<circle cx="536.279323513366" cy="-578.1506753933991" r="4" fill-opacity="0" stroke-width="2" stroke="#59a14f" />
<circle cx="651.2076278613243" cy="-353.14119580331186" r="4" fill-opacity="0" stroke-width="2" stroke="#59a14f" />
<circle cx="591.5922084146384" cy="-547.238855622089" r="4" fill-opacity="0" stroke-width="2" stroke="#59a14f" />
<circle cx="536.4023870417732" cy="-577.1929824561399" r="4" fill-opacity="0" stroke-width="2" stroke="#59a14f" />
<circle cx="650.8653913530937" cy="-357.4355083459787" r="4" fill-opacity="0" stroke-width="2" stroke="#59a14f" />
<circle cx="591.1626792620733" cy="-549.041533546326" r="4" fill-opacity="0" stroke-width="2" stroke="#59a14f" />
<circle cx="536.2037226426671" cy="-580.0835654596099" r="4" fill-opacity="0" stroke-width="2" stroke="#59a14f" />
<circle cx="649.5188101487314" cy="-366.7510762218285" r="4" fill-opacity="0" stroke-width="2" stroke="#59a14f" />
<circle cx="590.8624229979466" cy="-549.9334221038616" r="4" fill-opacity="0" stroke-width="2" stroke="#59a14f" />
<circle cx="535.398984217882" cy="-580.9756097560972" r="4" fill-opacity="0" stroke-width="2" stroke="#59a14f" />
<circle cx="568.167059708124" cy="-559.5063737455922" r="4" fill-opacity="0" stroke-width="2" stroke="#59a14f" />
<circle cx="556.3069986678963" cy="-563.8915514172254" r="4" fill-opacity="0" stroke-width="2" stroke="#59a14f" />
<circle cx="503.7271520473808" cy="-591.7680744452399" r="4" fill-opacity="0" stroke-width="2" stroke="#59a14f" />
<circle cx="567.5786453530075" cy="-565.1105984529786" r="4" fill-opacity="0" stroke-width="2" stroke="#59a14f" />
<circle cx="555.248241480571" cy="-566.6392543859649" r="4" fill-opacity="0" stroke-width="2" stroke="#59a14f" />
<circle cx="503.04639368256227" cy="-591.7060593038249" r="4" fill-opacity="0" stroke-width="2" stroke="#59a14f" />
<circle cx="567.9961721179807" cy="-559.487318594873" r="4" fill-opacity="0" stroke-width="2" stroke="#59a14f" />
<circle cx="555.0775114389129" cy="-566.6209732693629" r="4" fill-opacity="0" stroke-width="2" stroke="#59a14f" />
<circle cx="503.1985844562407" cy="-594.7142243231629" r="4" fill-opacity="0" stroke-width="2" stroke="#59a14f" />
<circle cx="567.3635307781649" cy="-564.1422366992402" r="4" fill-opacity="0" stroke-width="2" stroke="#59a14f" />
<circle cx="554.997951659156" cy="-568.5220729366604" r="4" fill-opacity="0" stroke-width="2" stroke="#59a14f" />
<circle cx="502.601775329048" cy="-599.6559633027522" r="4" fill-opacity="0" stroke-width="2" stroke="#59a14f" />
<circle cx="567.192730750837" cy="-564.1237953033797" r="4" fill-opacity="0" stroke-width="2" stroke="#59a14f" />
<circle cx="554.8728451954258" cy="-569.4638694638692" r="4" fill-opacity="0" stroke-width="2" stroke="#59a14f" />
<circle cx="502.55102040816325" cy="-598.6525229357795" r="4" fill-opacity="0" stroke-width="2" stroke="#59a14f" />
<circle cx="517.5617725137839" cy="-593.999433908859" r="4" fill-opacity="0" stroke-width="2" stroke="#59a14f" />
<circle cx="507.21235626318287" cy="-597.058823529412" r="4" fill-opacity="0" stroke-width="2" stroke="#59a14f" />
<circle cx="479.8788992074021" cy="-595.659798334064" r="4" fill-opacity="0" stroke-width="2" stroke="#59a14f" />
<circle cx="516.4693072002178" cy="-595.8776030599236" r="4" fill-opacity="0" stroke-width="2" stroke="#59a14f" />
<circle cx="506.36184255290186" cy="-596.9852836119444" r="4" fill-opacity="0" stroke-width="2" stroke="#59a14f" />
<circle cx="479.47488351528756" cy="-597.6608187134505" r="4" fill-opacity="0" stroke-width="2" stroke="#59a14f" />
<circle cx="516.6887822802897" cy="-596.8838526912182" r="4" fill-opacity="0" stroke-width="2" stroke="#59a14f" />
<circle cx="506.3114558878567" cy="-595.9851407343905" r="4" fill-opacity="0" stroke-width="2" stroke="#59a14f" />
<circle cx="479.5279874855472" cy="-598.6842105263158" r="4" fill-opacity="0" stroke-width="2" stroke="#59a14f" />
<circle cx="515.2844367370533" cy="-602.6950354609926" r="4" fill-opacity="0" stroke-width="2" stroke="#59a14f" />
<circle cx="505.37305311841124" cy="-600.8867276887869" r="4" fill-opacity="0" stroke-width="2" stroke="#59a14f" />
<circle cx="478.77366506916815" cy="-603.7167105648228" r="4" fill-opacity="0" stroke-width="2" stroke="#59a14f" />
<circle cx="514.8238814089486" cy="-603.646941961118" r="4" fill-opacity="0" stroke-width="2" stroke="#59a14f" />
<circle cx="505.08347784691773" cy="-601.8597997138766" r="4" fill-opacity="0" stroke-width="2" stroke="#59a14f" />
<circle cx="478.8268080478522" cy="-604.741000877963" r="4" fill-opacity="0" stroke-width="2" stroke="#59a14f" />
<circle cx="461.7684024593228" cy="-608.4967320261441" r="4" fill-opacity="0" stroke-width="2" stroke="#59a14f" />
<circle cx="455.5951774494821" cy="-610.0821508588496" r="4" fill-opacity="0" stroke-width="2" stroke="#59a14f" />
<circle cx="432.2773420257377" cy="-610.3248436785112" r="4" fill-opacity="0" stroke-width="2" stroke="#59a14f" />
<circle cx="461.2537353979897" cy="-611.5636147443516" r="4" fill-opacity="0" stroke-width="2" stroke="#59a14f" />
<circle cx="454.46210268948647" cy="-611.0346889952151" r="4" fill-opacity="0" stroke-width="2" stroke="#59a14f" />
<circle cx="431.9377949814947" cy="-610.2974828375284" r="4" fill-opacity="0" stroke-width="2" stroke="#59a14f" />
<circle cx="460.51470088952254" cy="-613.5802469135798" r="4" fill-opacity="0" stroke-width="2" stroke="#59a14f" />
<circle cx="454.12252105406134" cy="-611.0080765779243" r="4" fill-opacity="0" stroke-width="2" stroke="#59a14f" />
<circle cx="431.4863855503496" cy="-611.3247863247866" r="4" fill-opacity="0" stroke-width="2" stroke="#59a14f" />
<circle cx="460.85421334963" cy="-613.60594795539" r="4" fill-opacity="0" stroke-width="2" stroke="#59a14f" />
<circle cx="454.46210268948647" cy="-611.0346889952151" r="4" fill-opacity="0" stroke-width="2" stroke="#59a14f" />
<circle cx="431.9416157501697" cy="-613.4879462923403" r="4" fill-opacity="0" stroke-width="2" stroke="#59a14f" />
<circle cx="460.28997317578353" cy="-612.5260339184765" r="4" fill-opacity="0" stroke-width="2" stroke="#59a14f" />
<circle cx="453.8385793351668" cy="-612.028725314183" r="4" fill-opacity="0" stroke-width="2" stroke="#59a14f" />
<circle cx="431.2627291242363" cy="-613.4351145038167" r="4" fill-opacity="0" stroke-width="2" stroke="#59a14f" />
<circle cx="667.087630674244" cy="-351.0058727977004" r="4" fill-opacity="0" stroke-width="2" stroke="#76b7b2" />
<circle cx="617.4160578934733" cy="-533.898305084746" r="4" fill-opacity="0" stroke-width="2" stroke="#76b7b2" />
<circle cx="560.5315296850448" cy="-563.4006550218337" r="4" fill-opacity="0" stroke-width="2" stroke="#76b7b2" />
<circle cx="667.8597747131276" cy="-348.6013986013986" r="4" fill-opacity="0" stroke-width="2" stroke="#76b7b2" />
<circle cx="616.5465156196361" cy="-525.6162775531499" r="4" fill-opacity="0" stroke-width="2" stroke="#76b7b2" />
<circle cx="561.0347891463332" cy="-559.656301145663" r="4" fill-opacity="0" stroke-width="2" stroke="#76b7b2" />
<circle cx="666.5613702572743" cy="-346.54418197725306" r="4" fill-opacity="0" stroke-width="2" stroke="#76b7b2" />
<circle cx="615.9920348817247" cy="-524.6346555323589" r="4" fill-opacity="0" stroke-width="2" stroke="#76b7b2" />
<circle cx="560.2255253716042" cy="-560.515900095537" r="4" fill-opacity="0" stroke-width="2" stroke="#76b7b2" />
<circle cx="664.84268125855" cy="-351.31414267834765" r="4" fill-opacity="0" stroke-width="2" stroke="#76b7b2" />
<circle cx="614.2102374090847" cy="-530.7631991636172" r="4" fill-opacity="0" stroke-width="2" stroke="#76b7b2" />
<circle cx="559.5872625392922" cy="-561.3956028949885" r="4" fill-opacity="0" stroke-width="2" stroke="#76b7b2" />
<circle cx="664.2458688559099" cy="-349.43032427694993" r="4" fill-opacity="0" stroke-width="2" stroke="#76b7b2" />
<circle cx="612.9574373220838" cy="-533.3333333333331" r="4" fill-opacity="0" stroke-width="2" stroke="#76b7b2" />
<circle cx="559.0295574918845" cy="-560.3825136612021" r="4" fill-opacity="0" stroke-width="2" stroke="#76b7b2" />
<circle cx="634.5335287139766" cy="-388.8291058160391" r="4" fill-opacity="0" stroke-width="2" stroke="#76b7b2" />
<circle cx="585.2967288124019" cy="-569.7805139186295" r="4" fill-opacity="0" stroke-width="2" stroke="#76b7b2" />
<circle cx="532.223470534164" cy="-592.3528589403047" r="4" fill-opacity="0" stroke-width="2" stroke="#76b7b2" />
<circle cx="632.6118024329883" cy="-396.3941999230075" r="4" fill-opacity="0" stroke-width="2" stroke="#76b7b2" />
<circle cx="584.870218579235" cy="-567.8714859437752" r="4" fill-opacity="0" stroke-width="2" stroke="#76b7b2" />
<circle cx="532.3459312223358" cy="-591.3894324853225" r="4" fill-opacity="0" stroke-width="2" stroke="#76b7b2" />
<circle cx="633.2147341984095" cy="-390.3052064631959" r="4" fill-opacity="0" stroke-width="2" stroke="#76b7b2" />
<circle cx="585.6391337022613" cy="-566.0869565217392" r="4" fill-opacity="0" stroke-width="2" stroke="#76b7b2" />
<circle cx="533.1494534681785" cy="-590.4874982539463" r="4" fill-opacity="0" stroke-width="2" stroke="#76b7b2" />
<circle cx="632.747681795998" cy="-395.53502694380313" r="4" fill-opacity="0" stroke-width="2" stroke="#76b7b2" />
<circle cx="585.6391337022613" cy="-566.0869565217392" r="4" fill-opacity="0" stroke-width="2" stroke="#76b7b2" />
<circle cx="532.4891929609583" cy="-594.3248532289629" r="4" fill-opacity="0" stroke-width="2" stroke="#76b7b2" />
<circle cx="630.9449202701761" cy="-405.8218737951422" r="4" fill-opacity="0" stroke-width="2" stroke="#76b7b2" />
<circle cx="584.3153328551423" cy="-566.8809428150525" r="4" fill-opacity="0" stroke-width="2" stroke="#76b7b2" />
<circle cx="531.0532584652034" cy="-596.1511546536036" r="4" fill-opacity="0" stroke-width="2" stroke="#76b7b2" />
<circle cx="563.5774022870797" cy="-570.3703703703706" r="4" fill-opacity="0" stroke-width="2" stroke="#76b7b2" />
<circle cx="552.7914277914277" cy="-572.1153846153842" r="4" fill-opacity="0" stroke-width="2" stroke="#76b7b2" />
<circle cx="501.32707227439766" cy="-594.5480631276904" r="4" fill-opacity="0" stroke-width="2" stroke="#76b7b2" />
<circle cx="562.8583128583128" cy="-573.1434800381521" r="4" fill-opacity="0" stroke-width="2" stroke="#76b7b2" />
<circle cx="551.8924268796286" cy="-571.06529209622" r="4" fill-opacity="0" stroke-width="2" stroke="#76b7b2" />
<circle cx="500.74845206504716" cy="-596.4972724662648" r="4" fill-opacity="0" stroke-width="2" stroke="#76b7b2" />
<circle cx="562.9030607022214" cy="-574.0972884589183" r="4" fill-opacity="0" stroke-width="2" stroke="#76b7b2" />
<circle cx="551.8594336403958" cy="-573.9345614517456" r="4" fill-opacity="0" stroke-width="2" stroke="#76b7b2" />
<circle cx="500.85034013605446" cy="-598.5070341659485" r="4" fill-opacity="0" stroke-width="2" stroke="#76b7b2" />
<circle cx="562.0587332446536" cy="-577.8126278467205" r="4" fill-opacity="0" stroke-width="2" stroke="#76b7b2" />
<circle cx="551.5771526001704" cy="-578.696190345207" r="4" fill-opacity="0" stroke-width="2" stroke="#76b7b2" />
<circle cx="500.3568879371876" cy="-605.4733515299522" r="4" fill-opacity="0" stroke-width="2" stroke="#76b7b2" />
<circle cx="562.1844726429254" cy="-576.8748295609489" r="4" fill-opacity="0" stroke-width="2" stroke="#76b7b2" />
<circle cx="551.5771526001704" cy="-578.696190345207" r="4" fill-opacity="0" stroke-width="2" stroke="#76b7b2" />
<circle cx="500.0509632045663" cy="-609.456740442656" r="4" fill-opacity="0" stroke-width="2" stroke="#76b7b2" />
<circle cx="515.5473906239368" cy="-597.7739968807597" r="4" fill-opacity="0" stroke-width="2" stroke="#76b7b2" />
<circle cx="505.8831530980072" cy="-600.9292351679768" r="4" fill-opacity="0" stroke-width="2" stroke="#76b7b2" />
<circle cx="478.49736528981816" cy="-601.6537392067904" r="4" fill-opacity="0" stroke-width="2" stroke="#76b7b2" />
<circle cx="514.7248860776712" cy="-601.660280970626" r="4" fill-opacity="0" stroke-width="2" stroke="#76b7b2" />
<circle cx="505.0144484106748" cy="-603.848905422807" r="4" fill-opacity="0" stroke-width="2" stroke="#76b7b2" />
<circle cx="478.04065538105925" cy="-602.6354319180089" r="4" fill-opacity="0" stroke-width="2" stroke="#76b7b2" />
<circle cx="514.703382627911" cy="-604.6267385750779" r="4" fill-opacity="0" stroke-width="2" stroke="#76b7b2" />
<circle cx="504.96396028831776" cy="-602.8473315209617" r="4" fill-opacity="0" stroke-width="2" stroke="#76b7b2" />
<circle cx="478.3170201196302" cy="-604.6991655687307" r="4" fill-opacity="0" stroke-width="2" stroke="#76b7b2" />
<circle cx="513.4923871669386" cy="-607.5021312872976" r="4" fill-opacity="0" stroke-width="2" stroke="#76b7b2" />
<circle cx="504.1968260441092" cy="-607.7760274953458" r="4" fill-opacity="0" stroke-width="2" stroke="#76b7b2" />
<circle cx="477.45727584683857" cy="-607.692307692308" r="4" fill-opacity="0" stroke-width="2" stroke="#76b7b2" />
<circle cx="513.0818892286782" cy="-609.452736318408" r="4" fill-opacity="0" stroke-width="2" stroke="#76b7b2" />
<circle cx="503.3978933061502" cy="-608.7130983089714" r="4" fill-opacity="0" stroke-width="2" stroke="#76b7b2" />
<circle cx="477.0542477665681" cy="-609.7038991498092" r="4" fill-opacity="0" stroke-width="2" stroke="#76b7b2" />
<circle cx="461.07886071222464" cy="-614.6595301813853" r="4" fill-opacity="0" stroke-width="2" stroke="#76b7b2" />
<circle cx="455.19348268839093" cy="-615.2593035420713" r="4" fill-opacity="0" stroke-width="2" stroke="#76b7b2" />
<circle cx="431.8837627728554" cy="-612.4198962465672" r="4" fill-opacity="0" stroke-width="2" stroke="#76b7b2" />
<circle cx="460.6245756958588" cy="-615.6626506024094" r="4" fill-opacity="0" stroke-width="2" stroke="#76b7b2" />
<circle cx="454.1751527494909" cy="-615.1832460732986" r="4" fill-opacity="0" stroke-width="2" stroke="#76b7b2" />
<circle cx="431.71791216995865" cy="-615.5982905982909" r="4" fill-opacity="0" stroke-width="2" stroke="#76b7b2" />
<circle cx="459.8309744425211" cy="-616.641857695743" r="4" fill-opacity="0" stroke-width="2" stroke="#76b7b2" />
<circle cx="453.7800862273822" cy="-614.1104294478524" r="4" fill-opacity="0" stroke-width="2" stroke="#76b7b2" />
<circle cx="431.20885087897915" cy="-615.5596274240341" r="4" fill-opacity="0" stroke-width="2" stroke="#76b7b2" />
<circle cx="460.0006788174998" cy="-616.6542640273852" r="4" fill-opacity="0" stroke-width="2" stroke="#76b7b2" />
<circle cx="454.0610256932424" cy="-616.217833632555" r="4" fill-opacity="0" stroke-width="2" stroke="#76b7b2" />
<circle cx="431.4364247174998" cy="-616.6412213740459" r="4" fill-opacity="0" stroke-width="2" stroke="#76b7b2" />
<circle cx="459.37690897984106" cy="-617.6470588235297" r="4" fill-opacity="0" stroke-width="2" stroke="#76b7b2" />
<circle cx="453.268173488088" cy="-617.2031741278636" r="4" fill-opacity="0" stroke-width="2" stroke="#76b7b2" />
<circle cx="430.8156894679695" cy="-617.6596394744885" r="4" fill-opacity="0" stroke-width="2" stroke="#76b7b2" />
<circle cx="573.2806433721576" cy="-431.8187928485013" r="4" fill-opacity="0" stroke-width="2" stroke="#e15759" />
<circle cx="570.0408997955011" cy="-585.1992409867177" r="4" fill-opacity="0" stroke-width="2" stroke="#e15759" />
<circle cx="531.4147702146477" cy="-600.0839630562555" r="4" fill-opacity="0" stroke-width="2" stroke="#e15759" />
<circle cx="565.9614187927816" cy="-454.66847090663083" r="4" fill-opacity="0" stroke-width="2" stroke="#e15759" />
<circle cx="565.7733224222585" cy="-581.0171335327711" r="4" fill-opacity="0" stroke-width="2" stroke="#e15759" />
<circle cx="528.9633108706009" cy="-594.9950932286552" r="4" fill-opacity="0" stroke-width="2" stroke="#e15759" />
<circle cx="562.0400124391003" cy="-458.6206896551726" r="4" fill-opacity="0" stroke-width="2" stroke="#e15759" />
<circle cx="563.5650988411725" cy="-584.6049046321522" r="4" fill-opacity="0" stroke-width="2" stroke="#e15759" />
<circle cx="528.0130625574038" cy="-599.8035363457758" r="4" fill-opacity="0" stroke-width="2" stroke="#e15759" />
<circle cx="561.921536123774" cy="-463.3079847908743" r="4" fill-opacity="0" stroke-width="2" stroke="#e15759" />
<circle cx="560.6416675181362" cy="-590.9984974730226" r="4" fill-opacity="0" stroke-width="2" stroke="#e15759" />
<circle cx="525.873793009656" cy="-604.5275590551181" r="4" fill-opacity="0" stroke-width="2" stroke="#e15759" />
<circle cx="561.4489450602575" cy="-464.16247792419506" r="4" fill-opacity="0" stroke-width="2" stroke="#e15759" />
<circle cx="560.5967708972001" cy="-590.0423439420845" r="4" fill-opacity="0" stroke-width="2" stroke="#e15759" />
<circle cx="525.5102040816327" cy="-600.5765715089298" r="4" fill-opacity="0" stroke-width="2" stroke="#e15759" />
<circle cx="577.2180007633323" cy="-424.2765273311897" r="4" fill-opacity="0" stroke-width="2" stroke="#e15759" />
<circle cx="567.5546936136913" cy="-601.0735154232914" r="4" fill-opacity="0" stroke-width="2" stroke="#e15759" />
<circle cx="522.1599592460518" cy="-615.0557358543815" r="4" fill-opacity="0" stroke-width="2" stroke="#e15759" />
<circle cx="575.0580569131054" cy="-433.1185394012615" r="4" fill-opacity="0" stroke-width="2" stroke="#e15759" />
<circle cx="566.5782132407974" cy="-601.9447844417241" r="4" fill-opacity="0" stroke-width="2" stroke="#e15759" />
<circle cx="521.5294756859549" cy="-615.9960468727938" r="4" fill-opacity="0" stroke-width="2" stroke="#e15759" />
<circle cx="575.8835758835759" cy="-436.07943110156964" r="4" fill-opacity="0" stroke-width="2" stroke="#e15759" />
<circle cx="566.4011980123885" cy="-598.1368149054807" r="4" fill-opacity="0" stroke-width="2" stroke="#e15759" />
<circle cx="521.2386676173984" cy="-616.9608812314646" r="4" fill-opacity="0" stroke-width="2" stroke="#e15759" />
<circle cx="574.7221933741821" cy="-444.2235357334769" r="4" fill-opacity="0" stroke-width="2" stroke="#e15759" />
<circle cx="565.128623928134" cy="-599.9319264805988" r="4" fill-opacity="0" stroke-width="2" stroke="#e15759" />
<circle cx="519.7855155094006" cy="-621.7932399943433" r="4" fill-opacity="0" stroke-width="2" stroke="#e15759" />
<circle cx="573.9010038075457" cy="-444.9926065331361" r="4" fill-opacity="0" stroke-width="2" stroke="#e15759" />
<circle cx="564.5737621235323" cy="-598.9376191773359" r="4" fill-opacity="0" stroke-width="2" stroke="#e15759" />
<circle cx="518.8163833180629" cy="-622.7176220806793" r="4" fill-opacity="0" stroke-width="2" stroke="#e15759" />
<circle cx="550.7320394960844" cy="-593.0046819058108" r="4" fill-opacity="0" stroke-width="2" stroke="#e15759" />
<circle cx="542.5604358188627" cy="-592.2927640698643" r="4" fill-opacity="0" stroke-width="2" stroke="#e15759" />
<circle cx="495.2118989405052" cy="-614.1166281755195" r="4" fill-opacity="0" stroke-width="2" stroke="#e15759" />
<circle cx="548.4409041394337" cy="-594.7295805739516" r="4" fill-opacity="0" stroke-width="2" stroke="#e15759" />
<circle cx="540.7051936559798" cy="-596.0011108025545" r="4" fill-opacity="0" stroke-width="2" stroke="#e15759" />
<circle cx="494.39918533604896" cy="-618.087258017914" r="4" fill-opacity="0" stroke-width="2" stroke="#e15759" />
<circle cx="548.3168249429865" cy="-595.6809714364566" r="4" fill-opacity="0" stroke-width="2" stroke="#e15759" />
<circle cx="540.7520843968011" cy="-596.9730630380451" r="4" fill-opacity="0" stroke-width="2" stroke="#e15759" />
<circle cx="494.2294636795654" cy="-618.0754226267878" r="4" fill-opacity="0" stroke-width="2" stroke="#e15759" />
<circle cx="547.1254978045542" cy="-595.5801104972373" r="4" fill-opacity="0" stroke-width="2" stroke="#e15759" />
<circle cx="540.1184156798693" cy="-597.8883023061965" r="4" fill-opacity="0" stroke-width="2" stroke="#e15759" />
<circle cx="493.41748099891413" cy="-622.053506869125" r="4" fill-opacity="0" stroke-width="2" stroke="#e15759" />
<circle cx="546.6149290309404" cy="-595.5368246510985" r="4" fill-opacity="0" stroke-width="2" stroke="#e15759" />
<circle cx="540.2885531509459" cy="-597.9024864564522" r="4" fill-opacity="0" stroke-width="2" stroke="#e15759" />
<circle cx="493.40253044333633" cy="-625.0795487416832" r="4" fill-opacity="0" stroke-width="2" stroke="#e15759" />
<circle cx="508.33587993616516" cy="-616.0599571734476" r="4" fill-opacity="0" stroke-width="2" stroke="#e15759" />
<circle cx="500.4582951420715" cy="-617.5050301810867" r="4" fill-opacity="0" stroke-width="2" stroke="#e15759" />
<circle cx="473.5770288158029" cy="-617.634946315635" r="4" fill-opacity="0" stroke-width="2" stroke="#e15759" />
<circle cx="507.00879068662385" cy="-619.9542595769012" r="4" fill-opacity="0" stroke-width="2" stroke="#e15759" />
<circle cx="499.42306387022336" cy="-620.4431017119838" r="4" fill-opacity="0" stroke-width="2" stroke="#e15759" />
<circle cx="473.22882736156356" cy="-620.6886403766925" r="4" fill-opacity="0" stroke-width="2" stroke="#e15759" />
<circle cx="506.76982591876197" cy="-621.9330855018585" r="4" fill-opacity="0" stroke-width="2" stroke="#e15759" />
<circle cx="499.20238943759966" cy="-619.4244604316547" r="4" fill-opacity="0" stroke-width="2" stroke="#e15759" />
<circle cx="473.3448708812651" cy="-619.6704428424306" r="4" fill-opacity="0" stroke-width="2" stroke="#e15759" />
<circle cx="505.51314673452066" cy="-623.8476953907817" r="4" fill-opacity="0" stroke-width="2" stroke="#e15759" />
<circle cx="498.33740499457105" cy="-622.3790322580643" r="4" fill-opacity="0" stroke-width="2" stroke="#e15759" />
<circle cx="472.5953059286392" cy="-624.7533500220882" r="4" fill-opacity="0" stroke-width="2" stroke="#e15759" />
<circle cx="505.1553384886719" cy="-626.8222826865247" r="4" fill-opacity="0" stroke-width="2" stroke="#e15759" />
<circle cx="497.5914241128978" cy="-624.3406830955472" r="4" fill-opacity="0" stroke-width="2" stroke="#e15759" />
<circle cx="472.47939770068155" cy="-625.7731958762889" r="4" fill-opacity="0" stroke-width="2" stroke="#e15759" />
<circle cx="457.5535665852996" cy="-627.9212057901806" r="4" fill-opacity="0" stroke-width="2" stroke="#e15759" />
<circle cx="452.24290509612445" cy="-626.5367316341828" r="4" fill-opacity="0" stroke-width="2" stroke="#e15759" />
<circle cx="429.24464334147" cy="-626.0789715335171" r="4" fill-opacity="0" stroke-width="2" stroke="#e15759" />
<circle cx="456.8755085435313" cy="-627.8781543974917" r="4" fill-opacity="0" stroke-width="2" stroke="#e15759" />
<circle cx="451.22571457634007" cy="-626.4705882352944" r="4" fill-opacity="0" stroke-width="2" stroke="#e15759" />
<circle cx="428.96369368453173" cy="-627.127985303123" r="4" fill-opacity="0" stroke-width="2" stroke="#e15759" />
<circle cx="456.25275433065536" cy="-628.88092036456" r="4" fill-opacity="0" stroke-width="2" stroke="#e15759" />
<circle cx="450.77298616761595" cy="-627.4883651103439" r="4" fill-opacity="0" stroke-width="2" stroke="#e15759" />
<circle cx="428.51332113077063" cy="-628.1666411395313" r="4" fill-opacity="0" stroke-width="2" stroke="#e15759" />
<circle cx="456.4222516017491" cy="-628.8915446668657" r="4" fill-opacity="0" stroke-width="2" stroke="#e15759" />
<circle cx="450.942500678058" cy="-627.4992494746324" r="4" fill-opacity="0" stroke-width="2" stroke="#e15759" />
<circle cx="428.8522812012745" cy="-628.188638799571" r="4" fill-opacity="0" stroke-width="2" stroke="#e15759" />
<circle cx="455.6301267710663" cy="-629.884885633129" r="4" fill-opacity="0" stroke-width="2" stroke="#e15759" />
<circle cx="450.2644426362897" cy="-627.4556924001205" r="4" fill-opacity="0" stroke-width="2" stroke="#e15759" />
<circle cx="428.57142857142856" cy="-629.2387808240159" r="4" fill-opacity="0" stroke-width="2" stroke="#e15759" />
<circle cx="358.88178254590474" cy="-465.2300712896956" r="4" fill-opacity="0" stroke-width="2" stroke="#f28e2b" />
<circle cx="490.792743115831" cy="-590.577507598784" r="4" fill-opacity="0" stroke-width="2" stroke="#f28e2b" />
<circle cx="489.5323545405111" cy="-605.6111352762074" r="4" fill-opacity="0" stroke-width="2" stroke="#f28e2b" />
<circle cx="337.03741811571837" cy="-488.8980944490474" r="4" fill-opacity="0" stroke-width="2" stroke="#f28e2b" />
<circle cx="475.3054903162123" cy="-589.1170431211501" r="4" fill-opacity="0" stroke-width="2" stroke="#f28e2b" />
<circle cx="477.594179246566" cy="-600.556531927358" r="4" fill-opacity="0" stroke-width="2" stroke="#f28e2b" />
<circle cx="325.55989315800286" cy="-503.9248574303921" r="4" fill-opacity="0" stroke-width="2" stroke="#f28e2b" />
<circle cx="468.20455241400424" cy="-592.5461254612546" r="4" fill-opacity="0" stroke-width="2" stroke="#f28e2b" />
<circle cx="472.5394235997825" cy="-604.2224510813593" r="4" fill-opacity="0" stroke-width="2" stroke="#f28e2b" />
<circle cx="323.6169557631119" cy="-514.0238775853369" r="4" fill-opacity="0" stroke-width="2" stroke="#f28e2b" />
<circle cx="464.51042410638377" cy="-596.3270142180098" r="4" fill-opacity="0" stroke-width="2" stroke="#f28e2b" />
<circle cx="468.8476695203154" cy="-608.030705639209" r="4" fill-opacity="0" stroke-width="2" stroke="#f28e2b" />
<circle cx="320.6772703950744" cy="-515.8205430932701" r="4" fill-opacity="0" stroke-width="2" stroke="#f28e2b" />
<circle cx="460.8243215670271" cy="-597.0282317979202" r="4" fill-opacity="0" stroke-width="2" stroke="#f28e2b" />
<circle cx="466.1365412716212" cy="-604.7196330818168" r="4" fill-opacity="0" stroke-width="2" stroke="#f28e2b" />
<circle cx="454.5203302587488" cy="-438.39537297938585" r="4" fill-opacity="0" stroke-width="2" stroke="#f28e2b" />
<circle cx="548.7775850929988" cy="-605.3401407478959" r="4" fill-opacity="0" stroke-width="2" stroke="#f28e2b" />
<circle cx="515.4446707399865" cy="-619.5288106727221" r="4" fill-opacity="0" stroke-width="2" stroke="#f28e2b" />
<circle cx="451.9791558822513" cy="-448.10408921933083" r="4" fill-opacity="0" stroke-width="2" stroke="#f28e2b" />
<circle cx="545.469998300187" cy="-607.0153590701536" r="4" fill-opacity="0" stroke-width="2" stroke="#f28e2b" />
<circle cx="513.4575569358178" cy="-620.3866932044357" r="4" fill-opacity="0" stroke-width="2" stroke="#f28e2b" />
<circle cx="454.0527478597073" cy="-445.4734342534876" r="4" fill-opacity="0" stroke-width="2" stroke="#f28e2b" />
<circle cx="542.6103516289191" cy="-603.8968242962139" r="4" fill-opacity="0" stroke-width="2" stroke="#f28e2b" />
<circle cx="511.4708477567365" cy="-621.2475078325266" r="4" fill-opacity="0" stroke-width="2" stroke="#f28e2b" />
<circle cx="454.6803298485319" cy="-450.74183976261116" r="4" fill-opacity="0" stroke-width="2" stroke="#f28e2b" />
<circle cx="541.203278577016" cy="-602.8182701652088" r="4" fill-opacity="0" stroke-width="2" stroke="#f28e2b" />
<circle cx="509.8737785016287" cy="-623.1317741015403" r="4" fill-opacity="0" stroke-width="2" stroke="#f28e2b" />
<circle cx="456.22564739146924" cy="-457.2254335260116" r="4" fill-opacity="0" stroke-width="2" stroke="#f28e2b" />
<circle cx="539.8898184044073" cy="-603.683113273106" r="4" fill-opacity="0" stroke-width="2" stroke="#f28e2b" />
<circle cx="508.56658184902466" cy="-624.043403769275" r="4" fill-opacity="0" stroke-width="2" stroke="#f28e2b" />
<circle cx="529.9581504542206" cy="-598.010647240123" r="4" fill-opacity="0" stroke-width="2" stroke="#f28e2b" />
<circle cx="530.1282705590147" cy="-598.0249334640705" r="4" fill-opacity="0" stroke-width="2" stroke="#f28e2b" />
<circle cx="491.3959881885755" cy="-618.8876013904979" r="4" fill-opacity="0" stroke-width="2" stroke="#f28e2b" />
<circle cx="527.332721025955" cy="-599.7472620050547" r="4" fill-opacity="0" stroke-width="2" stroke="#f28e2b" />
<circle cx="528.7895792946298" cy="-601.8232819074329" r="4" fill-opacity="0" stroke-width="2" stroke="#f28e2b" />
<circle cx="490.5852417302799" cy="-622.8761959988403" r="4" fill-opacity="0" stroke-width="2" stroke="#f28e2b" />
<circle cx="527.5510204081633" cy="-600.7440685104591" r="4" fill-opacity="0" stroke-width="2" stroke="#f28e2b" />
<circle cx="528.8376521798272" cy="-602.8050490883586" r="4" fill-opacity="0" stroke-width="2" stroke="#f28e2b" />
<circle cx="489.9586132030666" cy="-623.8468233246299" r="4" fill-opacity="0" stroke-width="2" stroke="#f28e2b" />
<circle cx="526.5306122448981" cy="-600.660390614023" r="4" fill-opacity="0" stroke-width="2" stroke="#f28e2b" />
<circle cx="528.3275522002313" cy="-602.7641363827698" r="4" fill-opacity="0" stroke-width="2" stroke="#f28e2b" />
<circle cx="489.04490571157237" cy="-625.8130081300809" r="4" fill-opacity="0" stroke-width="2" stroke="#f28e2b" />
<circle cx="525.5102040816327" cy="-600.5765715089298" r="4" fill-opacity="0" stroke-width="2" stroke="#f28e2b" />
<circle cx="527.8174522206352" cy="-602.7231892195398" r="4" fill-opacity="0" stroke-width="2" stroke="#f28e2b" />
<circle cx="488.9793150220414" cy="-627.835051546392" r="4" fill-opacity="0" stroke-width="2" stroke="#f28e2b" />
<circle cx="503.5135960892148" cy="-617.7178899082567" r="4" fill-opacity="0" stroke-width="2" stroke="#f28e2b" />
<circle cx="497.16593693785427" cy="-619.2850965696165" r="4" fill-opacity="0" stroke-width="2" stroke="#f28e2b" />
<circle cx="471.0233441910966" cy="-620.5366357069145" r="4" fill-opacity="0" stroke-width="2" stroke="#f28e2b" />
<circle cx="500.1527028402728" cy="-621.4953271028036" r="4" fill-opacity="0" stroke-width="2" stroke="#f28e2b" />
<circle cx="495.96226927252985" cy="-622.2222222222225" r="4" fill-opacity="0" stroke-width="2" stroke="#f28e2b" />
<circle cx="470.6760286286083" cy="-623.5988200589973" r="4" fill-opacity="0" stroke-width="2" stroke="#f28e2b" />
<circle cx="499.69462540716603" cy="-622.46835443038" r="4" fill-opacity="0" stroke-width="2" stroke="#f28e2b" />
<circle cx="495.28365906623236" cy="-622.1773029165465" r="4" fill-opacity="0" stroke-width="2" stroke="#f28e2b" />
<circle cx="470.6760286286083" cy="-623.5988200589973" r="4" fill-opacity="0" stroke-width="2" stroke="#f28e2b" />
<circle cx="498.66015399748983" cy="-625.4139668826492" r="4" fill-opacity="0" stroke-width="2" stroke="#f28e2b" />
<circle cx="494.4201350022049" cy="-625.1445086705205" r="4" fill-opacity="0" stroke-width="2" stroke="#f28e2b" />
<circle cx="469.82027806035944" cy="-626.6312370829643" r="4" fill-opacity="0" stroke-width="2" stroke="#f28e2b" />
<circle cx="498.42303387933663" cy="-627.408901051419" r="4" fill-opacity="0" stroke-width="2" stroke="#f28e2b" />
<circle cx="493.84474514192704" cy="-627.1255060728741" r="4" fill-opacity="0" stroke-width="2" stroke="#f28e2b" />
<circle cx="469.9281258475726" cy="-628.6979627989369" r="4" fill-opacity="0" stroke-width="2" stroke="#f28e2b" />
<circle cx="454.66870022030173" cy="-630.8693700433937" r="4" fill-opacity="0" stroke-width="2" stroke="#f28e2b" />
<circle cx="449.7542789357736" cy="-630.5680793507662" r="4" fill-opacity="0" stroke-width="2" stroke="#f28e2b" />
<circle cx="426.82389617430783" cy="-631.2672598956734" r="4" fill-opacity="0" stroke-width="2" stroke="#f28e2b" />
<circle cx="453.70746916090553" cy="-631.8556237831361" r="4" fill-opacity="0" stroke-width="2" stroke="#f28e2b" />
<circle cx="448.79354751253896" cy="-631.5583634175692" r="4" fill-opacity="0" stroke-width="2" stroke="#f28e2b" />
<circle cx="426.5433353662668" cy="-632.3204419889503" r="4" fill-opacity="0" stroke-width="2" stroke="#f28e2b" />
<circle cx="452.91586188201006" cy="-632.8537170263785" r="4" fill-opacity="0" stroke-width="2" stroke="#f28e2b" />
<circle cx="448.2291137095407" cy="-630.474040632054" r="4" fill-opacity="0" stroke-width="2" stroke="#f28e2b" />
<circle cx="426.0351019854984" cy="-632.2892676186086" r="4" fill-opacity="0" stroke-width="2" stroke="#f28e2b" />
<circle cx="452.91586188201006" cy="-632.8537170263785" r="4" fill-opacity="0" stroke-width="2" stroke="#f28e2b" />
<circle cx="448.39857651245546" cy="-630.4845019560637" r="4" fill-opacity="0" stroke-width="2" stroke="#f28e2b" />
<circle cx="426.5433353662668" cy="-632.3204419889503" r="4" fill-opacity="0" stroke-width="2" stroke="#f28e2b" />
<circle cx="452.2381484870047" cy="-632.8134373125376" r="4" fill-opacity="0" stroke-width="2" stroke="#f28e2b" />
<circle cx="447.7207253007964" cy="-630.4426377597108" r="4" fill-opacity="0" stroke-width="2" stroke="#f28e2b" />
<circle cx="426.2045131124211" cy="-632.2996622658891" r="4" fill-opacity="0" stroke-width="2" stroke="#f28e2b" />
<circle cx="157.83153199519637" cy="-439.182692307692" r="4" fill-opacity="0" stroke-width="2" stroke="#4e79a7" />
<circle cx="440.7581325711174" cy="-588.8720895071064" r="4" fill-opacity="0" stroke-width="2" stroke="#4e79a7" />
<circle cx="460.35466775377085" cy="-607.3468173706124" r="4" fill-opacity="0" stroke-width="2" stroke="#4e79a7" />
<circle cx="129.63153032946724" cy="-470.2056929150221" r="4" fill-opacity="0" stroke-width="2" stroke="#4e79a7" />
<circle cx="406.96131468816975" cy="-586.5159781761498" r="4" fill-opacity="0" stroke-width="2" stroke="#4e79a7" />
<circle cx="433.5134400380603" cy="-601.9339119841636" r="4" fill-opacity="0" stroke-width="2" stroke="#4e79a7" />
<circle cx="118.57167264650599" cy="-484.47912273302404" r="4" fill-opacity="0" stroke-width="2" stroke="#4e79a7" />
<circle cx="390.6462585034013" cy="-588.0974992086102" r="4" fill-opacity="0" stroke-width="2" stroke="#4e79a7" />
<circle cx="419.47756377594345" cy="-604.9822612987817" r="4" fill-opacity="0" stroke-width="2" stroke="#4e79a7" />
<circle cx="114.85540646659152" cy="-495.16539440203593" r="4" fill-opacity="0" stroke-width="2" stroke="#4e79a7" />
<circle cx="382.45792962774084" cy="-592.7887683471598" r="4" fill-opacity="0" stroke-width="2" stroke="#4e79a7" />
<circle cx="411.854567674916" cy="-610.8141702921071" r="4" fill-opacity="0" stroke-width="2" stroke="#4e79a7" />
<circle cx="114.61533210458046" cy="-499.49077021005695" r="4" fill-opacity="0" stroke-width="2" stroke="#4e79a7" />
<circle cx="376.46578974202095" cy="-594.415917843389" r="4" fill-opacity="0" stroke-width="2" stroke="#4e79a7" />
<circle cx="408.8485959729721" cy="-608.3969465648851" r="4" fill-opacity="0" stroke-width="2" stroke="#4e79a7" />
<circle cx="311.2790777938842" cy="-412.1827411167509" r="4" fill-opacity="0" stroke-width="2" stroke="#4e79a7" />
<circle cx="537.3865143323472" cy="-604.4568245125351" r="4" fill-opacity="0" stroke-width="2" stroke="#4e79a7" />
<circle cx="513.9171758316362" cy="-619.4258917152193" r="4" fill-opacity="0" stroke-width="2" stroke="#4e79a7" />
<circle cx="313.7153496069508" cy="-424.49324324324294" r="4" fill-opacity="0" stroke-width="2" stroke="#4e79a7" />
<circle cx="534.2512323644399" cy="-606.1583577712612" r="4" fill-opacity="0" stroke-width="2" stroke="#4e79a7" />
<circle cx="511.76051318603" cy="-620.2733485193622" r="4" fill-opacity="0" stroke-width="2" stroke="#4e79a7" />
<circle cx="319.46743929359815" cy="-421.41057934508837" r="4" fill-opacity="0" stroke-width="2" stroke="#4e79a7" />
<circle cx="531.3881520778073" cy="-603.0090972708184" r="4" fill-opacity="0" stroke-width="2" stroke="#4e79a7" />
<circle cx="509.2649154958256" cy="-621.1014410044228" r="4" fill-opacity="0" stroke-width="2" stroke="#4e79a7" />
<circle cx="325.1628917157927" cy="-428.70030070163676" r="4" fill-opacity="0" stroke-width="2" stroke="#4e79a7" />
<circle cx="530.0278854655512" cy="-602.9003783102147" r="4" fill-opacity="0" stroke-width="2" stroke="#4e79a7" />
<circle cx="507.37913486005095" cy="-623.9674146062596" r="4" fill-opacity="0" stroke-width="2" stroke="#4e79a7" />
<circle cx="330.9216192937124" cy="-437.0782782117333" r="4" fill-opacity="0" stroke-width="2" stroke="#4e79a7" />
<circle cx="528.2056513312252" cy="-603.732809430255" r="4" fill-opacity="0" stroke-width="2" stroke="#4e79a7" />
<circle cx="505.56347106316565" cy="-624.8496993987975" r="4" fill-opacity="0" stroke-width="2" stroke="#4e79a7" />
<circle cx="520.9417849001395" cy="-597.2477064220183" r="4" fill-opacity="0" stroke-width="2" stroke="#4e79a7" />
<circle cx="520.8205756276791" cy="-598.221343873518" r="4" fill-opacity="0" stroke-width="2" stroke="#4e79a7" />
<circle cx="490.8868750636392" cy="-618.8523402405447" r="4" fill-opacity="0" stroke-width="2" stroke="#4e79a7" />
<circle cx="518.4882811171208" cy="-599.0099009900993" r="4" fill-opacity="0" stroke-width="2" stroke="#4e79a7" />
<circle cx="520.1659525266952" cy="-602.1048170645569" r="4" fill-opacity="0" stroke-width="2" stroke="#4e79a7" />
<circle cx="490.0763358778627" cy="-622.8426395939083" r="4" fill-opacity="0" stroke-width="2" stroke="#4e79a7" />
<circle cx="518.3673469387754" cy="-599.9858537275427" r="4" fill-opacity="0" stroke-width="2" stroke="#4e79a7" />
<circle cx="520.2149002006188" cy="-603.0936572962281" r="4" fill-opacity="0" stroke-width="2" stroke="#4e79a7" />
<circle cx="489.44975914241127" cy="-623.8136700043539" r="4" fill-opacity="0" stroke-width="2" stroke="#4e79a7" />
<circle cx="517.5170068027211" cy="-599.9150622876554" r="4" fill-opacity="0" stroke-width="2" stroke="#4e79a7" />
<circle cx="519.8748682376145" cy="-603.0662710187936" r="4" fill-opacity="0" stroke-width="2" stroke="#4e79a7" />
<circle cx="488.5361552028219" cy="-625.7806826434278" r="4" fill-opacity="0" stroke-width="2" stroke="#4e79a7" />
<circle cx="516.4965986394559" cy="-599.8299801643527" r="4" fill-opacity="0" stroke-width="2" stroke="#4e79a7" />
<circle cx="519.5348362746098" cy="-603.0388692579502" r="4" fill-opacity="0" stroke-width="2" stroke="#4e79a7" />
<circle cx="488.4706680230587" cy="-627.8036025566529" r="4" fill-opacity="0" stroke-width="2" stroke="#4e79a7" />
<circle cx="502.32542349865906" cy="-617.6352417850478" r="4" fill-opacity="0" stroke-width="2" stroke="#4e79a7" />
<circle cx="496.6568238129179" cy="-619.2501802451334" r="4" fill-opacity="0" stroke-width="2" stroke="#4e79a7" />
<circle cx="470.5143865363735" cy="-620.501474926254" r="4" fill-opacity="0" stroke-width="2" stroke="#4e79a7" />
<circle cx="499.304353727646" cy="-621.4388489208633" r="4" fill-opacity="0" stroke-width="2" stroke="#4e79a7" />
<circle cx="495.45331161780666" cy="-622.1885376064675" r="4" fill-opacity="0" stroke-width="2" stroke="#4e79a7" />
<circle cx="470.1672263491741" cy="-623.5649992622101" r="4" fill-opacity="0" stroke-width="2" stroke="#4e79a7" />
<circle cx="498.8463626492941" cy="-622.4125521807974" r="4" fill-opacity="0" stroke-width="2" stroke="#4e79a7" />
<circle cx="494.7747014115091" cy="-622.1435793731039" r="4" fill-opacity="0" stroke-width="2" stroke="#4e79a7" />
<circle cx="470.1672263491741" cy="-623.5649992622101" r="4" fill-opacity="0" stroke-width="2" stroke="#4e79a7" />
<circle cx="497.6425494386214" cy="-625.349473987606" r="4" fill-opacity="0" stroke-width="2" stroke="#4e79a7" />
<circle cx="493.91133272277045" cy="-625.112042793118" r="4" fill-opacity="0" stroke-width="2" stroke="#4e79a7" />
<circle cx="469.3116310613767" cy="-626.5987298774185" r="4" fill-opacity="0" stroke-width="2" stroke="#4e79a7" />
<circle cx="497.40563638213445" cy="-627.3461150353179" r="4" fill-opacity="0" stroke-width="2" stroke="#4e79a7" />
<circle cx="493.3360463933258" cy="-627.0938810935917" r="4" fill-opacity="0" stroke-width="2" stroke="#4e79a7" />
<circle cx="469.4195823162462" cy="-628.6663712893219" r="4" fill-opacity="0" stroke-width="2" stroke="#4e79a7" />
<circle cx="454.32977461447217" cy="-630.8486753480018" r="4" fill-opacity="0" stroke-width="2" stroke="#4e79a7" />
<circle cx="449.5848161328588" cy="-630.5576431684951" r="4" fill-opacity="0" stroke-width="2" stroke="#4e79a7" />
<circle cx="426.6544678255565" cy="-631.2567132116002" r="4" fill-opacity="0" stroke-width="2" stroke="#4e79a7" />
<circle cx="453.1991324386607" cy="-631.8249925082406" r="4" fill-opacity="0" stroke-width="2" stroke="#4e79a7" />
<circle cx="448.62410193845733" cy="-631.5480667970512" r="4" fill-opacity="0" stroke-width="2" stroke="#4e79a7" />
<circle cx="426.37392423934403" cy="-632.3100537221798" r="4" fill-opacity="0" stroke-width="2" stroke="#4e79a7" />
<circle cx="452.5770051845074" cy="-632.8335832083956" r="4" fill-opacity="0" stroke-width="2" stroke="#4e79a7" />
<circle cx="448.05965090662596" cy="-630.46357615894" r="4" fill-opacity="0" stroke-width="2" stroke="#4e79a7" />
<circle cx="425.86569085857565" cy="-632.2788697788695" r="4" fill-opacity="0" stroke-width="2" stroke="#4e79a7" />
<circle cx="452.5770051845074" cy="-632.8335832083956" r="4" fill-opacity="0" stroke-width="2" stroke="#4e79a7" />
<circle cx="448.2291137095407" cy="-630.474040632054" r="4" fill-opacity="0" stroke-width="2" stroke="#4e79a7" />
<circle cx="426.37392423934403" cy="-632.3100537221798" r="4" fill-opacity="0" stroke-width="2" stroke="#4e79a7" />
<circle cx="451.89929178950223" cy="-632.7932793279325" r="4" fill-opacity="0" stroke-width="2" stroke="#4e79a7" />
<circle cx="447.55126249788174" cy="-630.432163830748" r="4" fill-opacity="0" stroke-width="2" stroke="#4e79a7" />
<circle cx="426.0351019854984" cy="-632.2892676186086" r="4" fill-opacity="0" stroke-width="2" stroke="#4e79a7" />
</svg>